<?xml version="1.0" encoding="UTF-8" standalone="no"?>
<!-- Created with Inkscape (http://www.inkscape.org/) -->
<svg
   xmlns:dc="http://purl.org/dc/elements/1.1/"
   xmlns:cc="http://web.resource.org/cc/"
   xmlns:rdf="http://www.w3.org/1999/02/22-rdf-syntax-ns#"
   xmlns:svg="http://www.w3.org/2000/svg"
   xmlns="http://www.w3.org/2000/svg"
   xmlns:sodipodi="http://sodipodi.sourceforge.net/DTD/sodipodi-0.dtd"
   xmlns:inkscape="http://www.inkscape.org/namespaces/inkscape"
   width="744.09448"
   height="1052.3622"
   id="svg2"
   sodipodi:version="0.32"
   inkscape:version="0.45.1"
   version="1.0"
   sodipodi:docbase="C:\Users\ieb\Documents\Kung Food card game\outlines"
   sodipodi:docname="acrobatic_back_kick.svg"
   inkscape:output_extension="org.inkscape.output.svg.inkscape">
  <defs
     id="defs4" />
  <sodipodi:namedview
     id="base"
     pagecolor="#ffffff"
     bordercolor="#666666"
     borderopacity="1.0"
     gridtolerance="10000"
     guidetolerance="10"
     objecttolerance="10"
     inkscape:pageopacity="0.0"
     inkscape:pageshadow="2"
     inkscape:zoom="0.7"
     inkscape:cx="672.78282"
     inkscape:cy="521.34039"
     inkscape:document-units="px"
     inkscape:current-layer="layer2"
     inkscape:window-width="1280"
     inkscape:window-height="974"
     inkscape:window-x="-8"
     inkscape:window-y="-8" />
  <metadata
     id="metadata7">
    <rdf:RDF>
      <cc:Work
         rdf:about="">
        <dc:format>image/svg+xml</dc:format>
        <dc:type
           rdf:resource="http://purl.org/dc/dcmitype/StillImage" />
      </cc:Work>
    </rdf:RDF>
  </metadata>
  <g
     inkscape:groupmode="layer"
     id="layer2"
     inkscape:label="outline">
    <path
       style="fill:#000000;fill-rule:evenodd;stroke-width:1px;stroke-linecap:butt;stroke-linejoin:miter;stroke-opacity:1"
       d="M 485.125 288.125 C 483.31422 288.1018 481.31942 288.44501 479.21875 289.03125 C 464.67741 288.5778 439.33665 288.92393 424.28125 294.5 C 404.99554 301.64286 369.28125 328.07143 364.28125 329.5 C 360.56573 330.56158 361.18781 343.86192 363.21875 353.84375 C 361.84714 353.89265 360.26201 353.35576 358.5625 351.65625 C 352.8482 345.94197 354.28571 337.37053 350 336.65625 C 345.71429 335.94197 337.8616 340.22321 335.71875 345.9375 C 333.57589 351.65178 327.1384 356.65179 329.28125 360.9375 C 331.42411 365.2232 339.2991 380.91964 347.15625 383.0625 C 355.0134 385.20534 365.71875 389.5 365.71875 389.5 C 365.71875 389.5 370.71429 385.91964 375 383.0625 C 376.62627 381.97831 378.05069 379.55622 379.1875 376.96875 C 382.95293 379.74643 386.52629 381.65625 388.5625 381.65625 C 393.56249 381.65626 402.14286 353.77678 405 348.0625 C 407.63972 342.78304 421.21879 328.3844 427.21875 325.65625 C 417.82299 339.11416 395.02257 385.51079 389.28125 388.0625 C 382.85268 390.91964 375 393.79463 370 395.9375 C 365 398.08036 355 405.2232 350 405.9375 C 345 406.65179 314.99554 405.21428 309.28125 404.5 C 303.56697 403.78571 250.72322 372.35269 236.4375 368.78125 C 222.15179 365.20982 191.42857 314.50446 185 315.21875 C 180.45157 315.72413 178.31378 318.16845 171.6875 327.5625 C 167.86293 323.70771 160.92018 316.68523 159.28125 314.5 C 157.1384 311.64286 157.84662 302.78858 150 303.0625 C 140.69252 303.3874 140 318.08483 130 326.65625 C 120 335.22768 97.129464 353.08929 97.84375 357.375 C 98.558039 361.66072 111.42857 369.49554 115 368.78125 C 118.57143 368.06698 134.2991 351.65625 142.15625 351.65625 C 145.04491 351.65625 149.6477 352.62273 154.34375 353.84375 C 147.5749 368.86466 154.67065 375.63695 156.4375 380.9375 C 158.58036 387.36607 212.86607 430.91963 226.4375 438.0625 C 240.00893 445.20535 278.57589 466.66072 305.71875 472.375 C 319.8628 475.3527 336.87878 474.64184 349.96875 473.28125 C 353.96001 482.94349 360.31368 496.03602 370.71875 513.0625 C 394.29017 551.63393 391.43751 570.20534 391.4375 578.0625 C 391.4375 585.91964 397.12946 605.93752 402.84375 615.9375 C 408.55804 625.9375 422.8482 653.78568 423.5625 659.5 C 424.27678 665.21429 417.8482 669.49552 418.5625 683.78125 C 419.27678 698.06697 428.55803 715.20981 427.84375 723.78125 C 425.28571 739.08799 428.69462 735.46056 414.28125 739.5 C 402.1384 743.78571 397.84374 751.65626 397.84375 751.65625 L 403.5625 753.78125 L 405 760.21875 L 412.84375 760.21875 L 415.71875 766.65625 C 415.71875 766.65625 436.42857 748.08483 440 746.65625 C 443.57143 745.22768 457.85714 755.20981 460 753.78125 C 462.14286 752.35268 452.12946 743.07586 447.84375 740.21875 C 443.55804 737.3616 443.55803 732.35711 442.84375 724.5 C 442.12947 716.64286 452.84374 690.23215 452.84375 682.375 C 452.84375 674.51786 453.55803 655.92409 452.84375 648.78125 C 452.12947 641.6384 444.27914 622.51502 449.28125 625.9375 C 462.85268 635.22322 470.00894 649.49106 496.4375 628.0625 C 517.32283 611.12845 480.71874 588.80357 475.71875 577.375 C 473.53836 572.39125 475.71875 560.20534 475.71875 553.0625 C 475.71875 545.91964 475.72768 536.63392 482.15625 533.0625 C 488.58482 529.49107 497.79999 522.42322 508.5625 512.375 C 515.5867 505.81699 523.56252 486.65626 523.5625 486.65625 C 523.5625 486.65625 533.56697 489.50892 539.28125 485.9375 C 544.99554 482.36607 560.70092 476.63392 567.84375 473.0625 C 574.98661 469.49107 589.27234 473.79463 592.84375 470.9375 C 596.41518 468.08036 602.86605 459.49106 601.4375 453.0625 C 600.00893 446.63393 583.55806 440.20983 577.84375 438.78125 C 572.12947 437.35268 569.29908 452.35714 562.15625 454.5 C 555.01339 456.64286 518.56252 455.23214 513.5625 457.375 C 508.5625 459.51786 496.43751 467.35269 486.4375 473.78125 C 476.4375 480.20982 469.9866 497.3482 467.84375 493.0625 C 465.7009 488.77678 450.0134 472.35714 447.15625 464.5 C 444.44975 457.05716 441.76003 437.56638 440.875 427.625 C 444.99796 422.91288 449.87186 417.86761 452.84375 413.78125 C 458.55804 405.92411 492.14286 345.94643 495 337.375 C 497.85714 328.80357 505.0134 304.50892 492.15625 290.9375 C 490.34821 289.02902 487.93483 288.161 485.125 288.125 z "
       id="path2837" />
  </g>
</svg>
