<?xml version="1.0" encoding="UTF-8" standalone="no"?>
<!-- Created with Inkscape (http://www.inkscape.org/) -->
<svg
   xmlns:dc="http://purl.org/dc/elements/1.1/"
   xmlns:cc="http://web.resource.org/cc/"
   xmlns:rdf="http://www.w3.org/1999/02/22-rdf-syntax-ns#"
   xmlns:svg="http://www.w3.org/2000/svg"
   xmlns="http://www.w3.org/2000/svg"
   xmlns:sodipodi="http://sodipodi.sourceforge.net/DTD/sodipodi-0.dtd"
   xmlns:inkscape="http://www.inkscape.org/namespaces/inkscape"
   width="744.09448"
   height="1052.3622"
   id="svg2"
   sodipodi:version="0.32"
   inkscape:version="0.45.1"
   version="1.0"
   sodipodi:docbase="C:\Users\ieb\Documents\Kung Food card game\outlines"
   sodipodi:docname="backflip.svg"
   inkscape:output_extension="org.inkscape.output.svg.inkscape">
  <defs
     id="defs4" />
  <sodipodi:namedview
     id="base"
     pagecolor="#ffffff"
     bordercolor="#666666"
     borderopacity="1.0"
     gridtolerance="10000"
     guidetolerance="10"
     objecttolerance="10"
     inkscape:pageopacity="0.0"
     inkscape:pageshadow="2"
     inkscape:zoom="0.37512071"
     inkscape:cx="283.8448"
     inkscape:cy="840.73642"
     inkscape:document-units="px"
     inkscape:current-layer="layer2"
     showguides="true"
     inkscape:guide-bbox="true"
     inkscape:window-width="1280"
     inkscape:window-height="974"
     inkscape:window-x="-8"
     inkscape:window-y="-8" />
  <metadata
     id="metadata7">
    <rdf:RDF>
      <cc:Work
         rdf:about="">
        <dc:format>image/svg+xml</dc:format>
        <dc:type
           rdf:resource="http://purl.org/dc/dcmitype/StillImage" />
      </cc:Work>
    </rdf:RDF>
  </metadata>
  <g
     inkscape:groupmode="layer"
     id="layer2"
     inkscape:label="outline">
    <path
       style="fill:#000000;fill-rule:evenodd;stroke-width:1px;stroke-linecap:butt;stroke-linejoin:miter;stroke-opacity:1"
       d="M 181.04524,202.67447 C 180.36389,202.69327 179.90902,202.86927 179.77068,203.22758 C 178.88529,205.52082 187.16429,234.54371 187.63448,239.4684 C 188.10468,244.39308 187.60309,250.51594 188.62046,255.38838 C 189.63784,260.26082 200.64699,265.82547 204.34806,269.88952 C 208.04913,273.95355 233.49437,297.47449 236.90947,304.3267 C 240.32458,311.17891 253.92881,326.46561 256.82148,327.84595 C 259.71414,329.2263 276.40899,336.46308 279.66738,341.67373 C 280.58904,343.14762 283.12678,347.38089 286.25661,352.73596 C 274.12052,345.43428 263.03963,338.86555 261.82353,338.37911 C 259.07515,337.27976 212.90238,333.44921 207.9553,333.44921 C 203.00822,333.44921 138.69273,318.60453 126.59986,317.50518 C 114.50699,316.40583 82.622362,307.06821 79.873983,307.06821 C 77.125604,307.06821 73.841293,309.24973 74.390968,311.99811 C 74.940644,314.74649 91.984028,328.48838 101.87819,331.23676 C 111.77236,333.98514 123.86522,348.28702 128.8123,348.28702 C 133.75939,348.28702 145.85225,340.58469 151.89868,339.48534 C 157.94512,338.38599 218.40258,375.20738 223.89934,376.85642 C 229.39609,378.50544 243.13455,377.9695 254.12807,382.91659 C 265.12158,387.86367 297.55933,426.34097 301.40705,432.93709 C 305.25478,439.5332 304.70855,454.371 305.80789,470.86128 C 306.50358,481.2966 315.32974,491.93043 321.72788,498.3485 C 317.63364,500.60804 314.58553,502.28812 314.58553,502.19623 C 316.78422,529.68001 305.25478,554.40512 301.40705,562.10058 C 297.55933,569.79603 306.88664,582.98826 314.03242,585.18696 C 317.89752,586.37622 322.07779,590.47248 325.45537,594.49366 C 323.48488,598.8481 321.16115,603.01363 318.04849,605.89256 C 314.1497,593.18512 301.43926,569.82455 282.72151,568.16076 C 257.98611,565.96206 234.32943,567.0614 225.53462,595.09487 C 209.59402,635.77088 242.578,648.95966 249.17411,652.25771 C 255.77022,655.55579 265.11815,665.9893 265.11815,665.9893 C 265.11815,665.98928 283.26088,664.88995 288.75764,669.83703 C 293.87531,674.44292 310.41919,667.13807 310.01635,653.24369 C 325.16842,641.1366 347.19306,630.195 354.72216,629.72444 C 356.02431,629.64305 357.52361,629.17936 359.09896,628.42583 C 362.48618,630.44921 365.5023,631.52672 367.63611,630.90281 C 374.29477,635.65372 383.96184,638.14235 397.72055,616.97883 C 416.58609,587.96005 422.16067,560.49846 423.54844,541.65951 C 424.93619,522.82058 423.71448,475.22143 426.41019,460.6167 C 429.10591,446.01197 435.52325,419.84478 436.24595,411.55813 C 436.62025,407.26628 435.929,403.05537 434.97139,399.46183 C 447.35055,410.92382 475.15964,439.10721 481.09606,442.33998 C 481.36834,456.82249 481.82713,472.6361 482.29847,475.93547 C 483.02377,481.01258 492.45842,514.38768 490.28251,528.16841 C 488.1947,541.39118 480.0993,569.95963 482.00989,576.0967 C 478.38567,591.42173 476.70854,611.40279 477.22428,641.31573 C 477.94957,683.38324 485.20446,728.34752 485.92977,732.69932 C 486.65506,737.05114 503.3321,766.07068 503.3321,766.07068 L 567.88642,766.07838 C 567.88644,766.07836 563.51733,755.18741 562.06673,750.1103 C 560.61614,745.03321 554.83203,726.1688 554.10674,719.64109 C 553.38144,713.11337 543.94294,646.40252 546.84415,630.44589 C 549.74535,614.48927 580.92925,700.80064 583.83045,707.32835 C 586.73164,713.85605 604.14545,732.70505 606.32135,739.23276 C 608.49727,745.76049 627.36176,766.06204 627.36176,766.06204 L 644.03494,765.33674 L 644.04743,698.62286 C 644.04741,698.62288 628.08997,671.0559 621.56226,654.37396 C 615.03456,637.69201 609.93443,596.33674 607.75853,593.43553 C 606.04501,591.15081 603.43603,583.93218 598.86065,577.41936 C 597.08569,566.86052 586.08726,524.96087 587.46175,519.46292 C 588.50102,515.30579 593.99139,487.74038 597.29751,467.61475 C 615.78036,474.79557 644.04743,481.75517 644.04743,481.75516 L 644.02338,425.16948 C 644.02338,425.16948 638.23068,420.83214 633.15355,417.93094 C 628.07644,415.02973 593.9856,396.16628 588.1832,391.81447 C 585.773,390.00681 577.45778,389.58442 567.91047,389.69822 C 569.11568,387.45447 568.85786,385.10889 568.60787,383.10898 C 567.88258,377.30656 570.77316,371.49177 575.12496,362.78815 C 579.47675,354.08454 591.08858,286.63578 533.06446,289.53699 C 497.52468,290.26229 498.96395,327.25432 498.96395,334.50734 C 498.96396,340.30558 499.89988,378.10389 518.05831,392.65616 C 516.87488,392.72117 515.63347,392.69402 514.21058,392.53592 C 507.68286,391.81062 488.81369,376.58615 480.11007,368.60785 C 471.40646,360.62952 438.773,336.67752 429.34408,326.5233 C 419.91517,316.36907 391.64217,296.06377 381.48794,285.18424 C 366.98191,268.50231 379.30444,260.53858 364.79841,259.81327 C 350.29238,259.08797 343.03468,258.34632 343.03468,258.34632 C 337.24794,286.48185 334.63955,277.35557 337.23904,292.44683 C 336.51374,297.52394 355.35702,302.60864 362.61001,309.13636 C 369.86303,315.66408 393.79776,350.4725 398.87487,355.54961 C 402.90567,359.58041 416.98571,380.48408 424.79895,390.03489 C 424.51367,390.3048 423.98131,390.80444 423.98131,390.80444 L 416.35799,384.59997 L 410.68259,382.21919 L 415.08343,402.90074 L 405.84888,391.26136 L 401.01517,395.25338 C 401.01517,395.25339 409.65824,409.58645 408.63849,416.68043 C 407.61874,423.77439 411.46717,439.26411 411.64452,440.99327 C 411.70619,441.59446 410.24593,445.58663 408.20562,450.80498 C 407.26475,441.97488 405.68385,436.39655 403.54024,430.33987 C 399.75942,419.65734 324.97181,330.17187 315.98033,322.74771 C 306.98887,315.32357 271.09221,292.23655 267.2344,286.53095 C 263.37659,280.82536 220.87542,257.81985 218.0075,250.9154 C 215.13958,244.01094 191.51918,216.46553 193.23773,211.33187 C 194.68777,207.00034 184.72452,202.57297 181.04524,202.67447 z "
       id="path2252"
       sodipodi:nodetypes="cssssssscssssssssssssccssccscscscsccssssccsscssccssssscccsscscccsscsscscssscsccsscccccccsscsssssc" />
  </g>
</svg>
