<?xml version="1.0" encoding="UTF-8" standalone="no"?>
<!-- Created with Inkscape (http://www.inkscape.org/) -->
<svg
   xmlns:dc="http://purl.org/dc/elements/1.1/"
   xmlns:cc="http://web.resource.org/cc/"
   xmlns:rdf="http://www.w3.org/1999/02/22-rdf-syntax-ns#"
   xmlns:svg="http://www.w3.org/2000/svg"
   xmlns="http://www.w3.org/2000/svg"
   xmlns:sodipodi="http://sodipodi.sourceforge.net/DTD/sodipodi-0.dtd"
   xmlns:inkscape="http://www.inkscape.org/namespaces/inkscape"
   width="744.09448"
   height="1052.3622"
   id="svg2"
   sodipodi:version="0.32"
   inkscape:version="0.45.1"
   version="1.0"
   sodipodi:docbase="C:\Users\ieb\Documents\Kung Food card game\outlines"
   sodipodi:docname="boot_in_the_ear.svg"
   inkscape:output_extension="org.inkscape.output.svg.inkscape">
  <defs
     id="defs4" />
  <sodipodi:namedview
     id="base"
     pagecolor="#ffffff"
     bordercolor="#666666"
     borderopacity="1.0"
     gridtolerance="10000"
     guidetolerance="10"
     objecttolerance="10"
     inkscape:pageopacity="0.0"
     inkscape:pageshadow="2"
     inkscape:zoom="0.7"
     inkscape:cx="442.43825"
     inkscape:cy="561.85476"
     inkscape:document-units="px"
     inkscape:current-layer="layer2"
     inkscape:window-width="1280"
     inkscape:window-height="974"
     inkscape:window-x="-8"
     inkscape:window-y="-8" />
  <metadata
     id="metadata7">
    <rdf:RDF>
      <cc:Work
         rdf:about="">
        <dc:format>image/svg+xml</dc:format>
        <dc:type
           rdf:resource="http://purl.org/dc/dcmitype/StillImage" />
      </cc:Work>
    </rdf:RDF>
  </metadata>
  <g
     inkscape:groupmode="layer"
     id="layer2"
     inkscape:label="outline">
    <g
       id="g2344"
       style="fill:#000000"
       transform="matrix(1.4841157,0,0,1.4841157,-175.46619,-284.3913)">
      <path
         id="path2320"
         d="M 245.53125,385.84375 C 244.90145,385.85301 244.23214,385.89286 243.5625,385.9375 C 222.13393,387.36607 229.29911,422.375 232.15625,422.375 C 234.9145,422.375 233.00995,431.51104 232.875,432.15625 C 215.28636,434.6693 210.72742,439.94461 204.28125,445.21875 C 203.27925,446.03857 202.4629,447.24584 201.78125,448.71875 C 193.4442,454.14285 176.95536,466.99107 178.5625,483.0625 C 180.70536,504.49106 190.00893,520.91964 181.4375,538.0625 C 172.86607,555.20534 181.4375,550.21875 176.4375,555.21875 C 171.4375,560.21877 167.84821,562.35268 163.5625,568.78125 C 159.27678,575.20981 163.55803,580.21429 167.84375,584.5 C 172.12945,588.78569 177.7811,584.3694 181.4375,582.375 C 189.29464,578.08928 184.28571,571.64286 190,564.5 C 195.71429,557.35711 205.70536,541.64286 203.5625,529.5 C 202.65362,524.34968 203.68173,516.88765 205.15625,510 C 206.50367,514.48539 207.59505,519.49862 207.84375,525.21875 C 208.43199,538.7481 199.449,570.33654 196.21875,581.1875 C 195.31517,582.81132 194.84176,584.19019 195,585.21875 C 196.42857,594.50449 194.99107,625.22768 198.5625,631.65625 C 202.13393,638.08483 210.00893,650.94643 211.4375,657.375 C 212.86607,663.80357 221.41518,670.21875 222.84375,685.21875 C 222.84374,685.21872 223.55804,698.78125 202.84375,703.78125 C 182.12946,708.78123 197.15625,715.9375 197.15625,715.9375 C 197.15626,715.93752 208.57143,720.92411 215,718.78125 C 221.42857,716.63838 240.7009,703.06697 242.84375,703.78125 C 244.9866,704.49552 238.58036,681.6384 241.4375,673.78125 C 244.29464,665.92409 247.1384,645.20536 244.28125,638.0625 C 241.42411,630.91963 233.5625,618.0625 233.5625,618.0625 C 233.5625,618.06249 239.28125,590.22767 239.28125,586.65625 C 239.28125,583.08483 252.13393,614.49554 253.5625,623.78125 C 254.99107,633.06695 252.87053,664.5 257.15625,669.5 C 261.44197,674.49997 267.84821,684.5 268.5625,689.5 C 269.27677,694.49997 264.29464,701.64286 266.4375,704.5 C 268.58037,707.35711 266.41518,715.20536 282.84375,713.0625 C 299.27231,710.91963 305.7009,710.21875 302.84375,705.21875 C 299.9866,700.21872 294.29017,688.08929 295.71875,682.375 C 297.14732,676.66072 299.99554,658.77678 299.28125,653.0625 C 298.56697,647.3482 290,618.08036 290,605.9375 C 290,593.79466 288.56697,575.93304 289.28125,570.21875 C 289.33089,569.82166 289.1187,569.32491 288.71875,568.75 C 288.905,556.20271 280,535.039 280,520.21875 C 280,510.2009 285.21171,503.6559 289,496.71875 C 294.26468,505.29853 294.28125,515.93751 294.28125,515.9375 C 294.28125,515.9375 290,524.49997 290,534.5 C 290,544.5 296.43751,558.08038 296.4375,565.9375 C 296.4375,573.79464 298.58483,572.375 292.15625,577.375 C 285.72768,582.375 293.56697,593.77677 294.28125,598.0625 C 294.99554,602.34821 307.86608,595.94197 311.4375,591.65625 C 315.00893,587.37053 311.42857,584.49106 310,578.0625 C 308.57143,571.63393 311.43751,559.5134 311.4375,546.65625 C 311.4375,533.7991 317.8616,510.94197 315.71875,486.65625 C 314.18944,469.32407 301.39625,454.57718 294.1875,447.53125 C 293.99115,447.23019 293.79271,446.93762 293.5625,446.65625 C 288.09223,439.97036 279.00797,432.24168 258.375,430.96875 C 257.25658,421.02666 265.71874,414.20609 265.71875,408.0625 C 265.71875,401.83481 265.05492,385.55655 245.53125,385.84375 z "
         style="fill:#000000;fill-rule:evenodd;stroke-width:1px;stroke-linecap:butt;stroke-linejoin:miter;stroke-opacity:1" />
      <path
         sodipodi:nodetypes="cscsssscscssssscssssssssssssssssscscsssssscscscsccccscsssssccscsc"
         id="path2331"
         d="M 477.51785,351.375 C 476.64731,351.38616 475.79017,351.47768 474.9866,351.65625 C 468.55803,353.08482 470.01339,357.36606 459.2991,360.9375 C 449.2991,368.79464 439.98659,368.08483 434.9866,371.65625 C 429.9866,375.22767 427.85714,380.20983 422.14285,383.78125 C 416.42856,387.35268 418.57142,398.06698 422.14285,398.78125 C 425.71428,399.49554 437.8616,418.79911 447.8616,421.65625 C 452.43391,422.96262 457.56552,423.1952 461.83035,423.09375 C 461.02864,426.07619 459.67464,428.87007 456.4241,431.65625 C 453.11557,434.49214 449.59064,437.03846 446.33035,439.25 C 445.43615,438.96666 444.74519,438.78125 444.2991,438.78125 C 437.87054,438.78126 432.13839,431.64733 426.4241,430.21875 C 420.70982,428.79017 400.71874,435.20535 392.8616,433.0625 C 385.00445,430.91963 376.4241,425.94643 366.4241,422.375 C 356.4241,418.80357 342.8616,421.63393 337.8616,418.0625 C 332.8616,414.49106 351.41963,384.51339 340.70535,376.65625 C 323.56248,371.65626 322.8482,383.06696 317.13392,403.06696 C 311.41962,423.06697 303.57143,425.91964 307.14285,433.0625 C 311.3444,441.46561 317.84821,435.20982 330.70535,438.78125 C 343.56248,442.35269 353.55803,455.92857 369.9866,459.5 C 386.41516,463.07143 383.55803,453.79464 389.9866,455.9375 C 396.41516,458.08035 407.14731,473.0759 417.8616,475.21875 C 428.57588,477.3616 444.28125,475.9375 451.4241,480.9375 C 458.56696,485.93749 465.70535,493.08929 475.70535,497.375 C 485.70534,501.66072 495.72767,503.08036 494.2991,505.9375 C 492.87051,508.79466 456.42856,524.49107 457.14285,528.0625 C 457.85714,531.63392 462.14285,540.92857 472.14285,544.5 C 482.14285,548.0714 499.99999,568.08929 507.14285,562.375 C 514.28571,556.66072 503.57142,539.51339 497.14285,536.65625 C 490.71428,533.79911 501.43302,528.7991 507.8616,526.65625 C 514.29017,524.5134 524.28125,521.65179 531.4241,515.9375 C 538.56696,510.22323 547.14731,506.65625 542.8616,501.65625 C 538.57588,496.65626 520.00892,480.21875 513.58035,475.21875 C 511.12631,473.31005 501.35647,467.54901 489.89285,461.15625 C 490.81824,458.91586 492.03878,456.76032 493.58035,455.21875 C 496.97162,451.82748 503.96348,451.38794 511.01785,448.5625 C 510.51801,449.0918 509.96428,449.62748 509.2991,450.21875 C 502.87053,455.93304 514.99553,455.94197 521.4241,456.65625 C 527.85268,457.37053 538.56696,463.79911 546.4241,461.65625 C 554.28125,459.51339 562.15176,454.5 568.58035,454.5 C 575.00892,454.5 577.8616,446.65178 577.8616,440.9375 C 577.8616,435.22321 569.29017,434.50446 562.8616,430.21875 C 556.67755,426.09606 545.87016,429.19581 533.6116,423.71875 C 533.32595,422.67819 532.62946,421.74107 531.4241,420.9375 C 529.12637,419.40567 523.77387,416.5042 517.7366,413.34375 C 517.7777,408.01526 518.61678,398.91563 523.58035,395.9375 C 530.72319,391.65178 534.27232,384.50447 529.9866,375.21875 C 520.70091,365.21874 509.28125,366.65179 501.4241,370.9375 C 493.56696,375.2232 497.8616,380.9375 497.8616,380.9375 L 489.9866,385.9375 L 494.2991,392.375 C 494.29908,392.375 490.28152,395.01941 488.08035,397.78125 C 486.11301,395.84665 484.22502,393.52932 481.4241,393.0625 C 480.57461,392.92092 479.67397,393.12725 478.76785,393.53125 C 478.1906,391.90318 477.2208,390.5103 475.70535,389.5 C 464.99106,382.35714 452.87054,390.20534 449.2991,388.0625 C 445.72767,385.91964 461.41516,374.50892 464.9866,370.9375 C 468.55803,367.36607 477.87054,376.65626 484.2991,376.65625 C 490.72767,376.65625 492.13839,363.06698 491.4241,358.78125 C 490.79911,355.03125 483.6116,351.29688 477.51785,351.375 z M 521.1116,441.96875 C 529.60654,444.65697 539.60454,448.0625 535.70535,448.0625 C 529.73832,448.0625 525.6173,443.75228 520.4866,442.5625 C 520.55696,442.49375 520.63539,442.44496 520.70535,442.375 C 520.84315,442.2372 520.97447,442.10591 521.1116,441.96875 z "
         style="fill:#000000;fill-rule:evenodd;stroke-width:1px;stroke-linecap:butt;stroke-linejoin:miter;stroke-opacity:1" />
    </g>
  </g>
</svg>
