<?xml version="1.0" encoding="UTF-8" standalone="no"?>
<!-- Created with Inkscape (http://www.inkscape.org/) -->
<svg
   xmlns:dc="http://purl.org/dc/elements/1.1/"
   xmlns:cc="http://web.resource.org/cc/"
   xmlns:rdf="http://www.w3.org/1999/02/22-rdf-syntax-ns#"
   xmlns:svg="http://www.w3.org/2000/svg"
   xmlns="http://www.w3.org/2000/svg"
   xmlns:sodipodi="http://sodipodi.sourceforge.net/DTD/sodipodi-0.dtd"
   xmlns:inkscape="http://www.inkscape.org/namespaces/inkscape"
   width="744.09448"
   height="1052.3622"
   id="svg2"
   sodipodi:version="0.32"
   inkscape:version="0.45.1"
   version="1.0"
   sodipodi:docbase="C:\Users\ieb\Documents\Kung Food card game\outlines"
   sodipodi:docname="cannon_punch.svg"
   inkscape:output_extension="org.inkscape.output.svg.inkscape">
  <defs
     id="defs4" />
  <sodipodi:namedview
     id="base"
     pagecolor="#ffffff"
     bordercolor="#666666"
     borderopacity="1.0"
     gridtolerance="10000"
     guidetolerance="10"
     objecttolerance="10"
     inkscape:pageopacity="0.0"
     inkscape:pageshadow="2"
     inkscape:zoom="0.49497475"
     inkscape:cx="561.89531"
     inkscape:cy="456.56628"
     inkscape:document-units="px"
     inkscape:current-layer="layer2"
     inkscape:window-width="1280"
     inkscape:window-height="974"
     inkscape:window-x="-8"
     inkscape:window-y="-8" />
  <metadata
     id="metadata7">
    <rdf:RDF>
      <cc:Work
         rdf:about="">
        <dc:format>image/svg+xml</dc:format>
        <dc:type
           rdf:resource="http://purl.org/dc/dcmitype/StillImage" />
      </cc:Work>
    </rdf:RDF>
  </metadata>
  <g
     inkscape:groupmode="layer"
     id="layer2"
     inkscape:label="outline">
    <path
       style="fill:#000000;fill-rule:evenodd;stroke-width:1px;stroke-linecap:butt;stroke-linejoin:miter;stroke-opacity:1"
       d="M 336.42861,201.5036 C 334.02919,201.51462 331.58671,201.64883 329.12871,201.87228 C 276.69127,212.59813 308.87611,297.22725 310.06785,303.18606 C 311.00648,307.87916 320.0931,308.1181 330.30849,308.01579 C 329.70543,312.35664 328.95541,316.75329 328.17013,321.03026 C 297.01311,315.21071 304.70534,313.38537 292.18678,316.27426 C 276.69391,319.84956 258.80722,366.34219 252.84843,369.91747 C 246.88962,373.49275 239.73345,378.24781 231.39114,371.09726 C 223.04881,363.94668 201.58966,329.37351 202.78143,324.60647 C 203.97319,319.83943 199.23104,306.76134 203.99808,303.18606 C 208.76512,299.61076 211.15051,296.03175 211.15051,288.8812 C 211.15051,281.73062 203.99808,280.51212 203.99808,280.51212 L 196.84565,275.75613 L 182.5408,269.78348 C 182.54078,269.78347 181.35915,265.02842 174.20859,268.6037 C 167.05803,272.17898 158.69905,284.10312 157.5073,293.6372 C 156.31554,303.17129 153.92004,322.23587 158.68708,327.00291 C 163.45413,331.76996 169.41665,336.54166 172.99194,344.88398 C 176.56722,353.22629 196.82262,414.00173 202.78143,422.34404 C 208.74023,430.68637 221.85707,445.00598 231.39114,446.19775 C 240.92521,447.38952 285.01227,413.98694 294.54635,412.79518 C 295.18764,412.71501 296.06999,412.25997 297.09025,411.50479 C 299.24791,422.83308 315.97723,448.1269 314.82385,471.19438 C 314.10726,485.52616 315.09679,495.15176 313.42286,505.44493 C 290.65318,528.88074 257.62028,572.97999 252.84843,579.66059 C 246.88962,588.00291 225.45442,630.91018 221.87915,641.63601 C 218.30387,652.36183 192.07394,739.34044 178.96458,753.64156 C 178.96458,753.64154 184.44824,761.40639 192.56894,767.31966 C 188.22979,784.51778 184.18316,795.89913 181.36101,800.13234 C 176.59399,807.2829 163.45319,835.89542 155.11087,839.4707 C 146.76856,843.04598 137.24645,859.71227 153.93108,863.28755 C 170.61573,866.86281 186.11064,862.10308 208.75408,844.2267 C 231.3975,826.35033 220.6625,809.67933 220.6625,802.52878 C 220.6625,799.11983 225.03015,787.83439 230.46944,775.94681 C 242.39261,777.46966 253.4237,778.27474 256.42464,771.52263 C 261.19168,760.79677 280.27929,695.25246 283.85457,686.91014 C 287.42984,678.5678 336.27196,621.36488 348.18956,598.72144 C 360.10716,576.07804 377.98279,577.27801 392.28391,583.2368 C 406.58504,589.19561 455.44005,629.72946 459.01533,636.88001 C 462.59062,644.0306 472.1404,726.25129 472.1404,736.97714 C 472.1404,742.363 479.34751,745.30421 487.73564,746.63661 C 487.52468,752.066 487.07094,755.96639 486.44526,757.21778 C 484.06174,761.98479 474.52579,779.86869 479.29283,785.82749 C 484.05987,791.78627 510.26397,785.82749 517.41453,785.82749 C 524.56508,785.82748 579.40288,794.17074 581.78639,789.4037 C 584.16988,784.63665 571.0439,775.11082 565.0851,773.91906 C 559.12629,772.72733 536.4984,767.95558 530.53961,756.03799 C 526.89635,748.75149 524.57863,747.67205 523.60839,738.96802 C 532.79362,732.21178 542.53843,722.93946 544.84447,719.09607 C 548.41975,713.13726 541.26918,630.89259 544.84447,621.35851 C 548.41975,611.82443 540.0516,607.05365 540.0516,607.05365 C 540.05159,607.05364 492.41042,518.86214 463.80819,508.13631 C 459.33165,506.45759 453.27191,504.66542 446.36954,502.82729 C 441.55124,492.38047 437.36922,480.94085 434.90353,471.19438 C 439.53004,467.77018 444.51778,464.70464 449.50334,465.25861 C 460.22918,466.45036 505.50984,473.5908 519.81097,473.59082 C 534.11208,473.59082 532.89919,443.78748 532.89917,437.82867 C 532.89917,431.86987 467.36043,367.53114 469.74397,359.18883 C 472.12748,350.84651 442.32322,321.04131 430.40561,316.27426 C 420.28529,312.22614 403.26511,309.05564 377.20482,310.37535 C 376.70765,308.83567 376.18337,307.60808 375.61949,306.76227 C 373.03089,302.87937 372.54231,295.09746 373.4074,285.01004 C 379.34324,273.62354 381.30068,253.48705 380.37549,234.05821 C 379.29545,211.37754 359.62294,201.39708 336.42861,201.5036 z "
       id="path2267" />
  </g>
</svg>
