<?xml version="1.0" encoding="UTF-8" standalone="no"?>
<!-- Created with Inkscape (http://www.inkscape.org/) -->
<svg
   xmlns:dc="http://purl.org/dc/elements/1.1/"
   xmlns:cc="http://web.resource.org/cc/"
   xmlns:rdf="http://www.w3.org/1999/02/22-rdf-syntax-ns#"
   xmlns:svg="http://www.w3.org/2000/svg"
   xmlns="http://www.w3.org/2000/svg"
   xmlns:sodipodi="http://sodipodi.sourceforge.net/DTD/sodipodi-0.dtd"
   xmlns:inkscape="http://www.inkscape.org/namespaces/inkscape"
   width="744.09448"
   height="1052.3622"
   id="svg2"
   sodipodi:version="0.32"
   inkscape:version="0.45.1"
   version="1.0"
   sodipodi:docbase="C:\Users\ieb\Documents\Kung Food card game\outlines"
   sodipodi:docname="chaquan.svg"
   inkscape:output_extension="org.inkscape.output.svg.inkscape">
  <defs
     id="defs4" />
  <sodipodi:namedview
     id="base"
     pagecolor="#ffffff"
     bordercolor="#666666"
     borderopacity="1.0"
     gridtolerance="10000"
     guidetolerance="10"
     objecttolerance="10"
     inkscape:pageopacity="0.0"
     inkscape:pageshadow="2"
     inkscape:zoom="0.98994949"
     inkscape:cx="409.61557"
     inkscape:cy="522.07444"
     inkscape:document-units="px"
     inkscape:current-layer="layer2"
     inkscape:window-width="1280"
     inkscape:window-height="974"
     inkscape:window-x="-8"
     inkscape:window-y="-8" />
  <metadata
     id="metadata7">
    <rdf:RDF>
      <cc:Work
         rdf:about="">
        <dc:format>image/svg+xml</dc:format>
        <dc:type
           rdf:resource="http://purl.org/dc/dcmitype/StillImage" />
      </cc:Work>
    </rdf:RDF>
  </metadata>
  <g
     inkscape:groupmode="layer"
     id="layer2"
     inkscape:label="outline">
    <path
       style="fill:#000000;fill-rule:evenodd;stroke-width:1px;stroke-linecap:butt;stroke-linejoin:miter;stroke-opacity:1"
       d="M 454.40625,217.78125 C 454.08786,217.77977 453.81504,217.84248 453.5625,217.96875 C 449.52188,219.98906 446.47812,243.23048 442.4375,248.28125 C 438.98807,252.59304 420.83774,301.78361 409.9375,321.75 C 401.90003,315.53135 394.16664,310.56877 391.9375,311.90625 C 389.44042,313.40449 362.75839,352.46881 336.28125,392.40625 C 330.79739,384.22172 322.41379,374.32437 314.375,375.0625 C 314.8737,373.27355 315.15625,371.41361 315.15625,369.5625 C 315.15625,359.46097 327.30233,339.26871 328.3125,331.1875 C 329.32265,323.10628 330.32488,292.77965 298,286.71875 C 257.5939,281.66799 256.56331,330.15005 259.59375,346.3125 C 261.87743,358.49211 261.30176,368.36776 260.875,372.5 C 243.33864,374.33514 237.30662,378.66213 231.3125,384.65625 C 223.23127,392.73748 215.16561,396.77189 211.125,400.8125 C 207.08438,404.85312 210.10628,450.29616 218.1875,467.46875 C 226.26872,484.64134 240.42735,500.80393 241.4375,507.875 C 242.44766,514.94608 248.49223,517.99301 250.51253,524.05393 C 255.52668,549.34262 259.19538,560.50615 282.85232,576.41719 C 293.58004,586.2188 293.70052,590.65949 306.0625,593.75 C 310.1031,594.76015 343.44845,632.13832 345.46875,643.25 C 346.96178,651.46161 340.71644,697.72539 332.0625,727.4375 C 331.08792,727.31387 330.42849,727.20974 330.3125,727.09375 C 330.03485,730.28671 329.69413,733.2745 329.3125,736.09375 C 327.04231,742.50303 324.67118,747.51884 322.25,750.3125 C 322.25,750.3125 324.88367,751.1901 326.375,751.6875 C 324.16386,760.29702 321.52171,766.07681 319.21875,769.53125 C 315.17815,775.59217 299.01094,790.74064 301.03125,794.78125 C 303.05156,798.82189 322.24064,807.91799 326.28125,812.96875 C 330.32186,818.01949 334.35548,845.29219 339.40625,847.3125 C 344.45702,849.33281 374.78125,845.28125 374.78125,845.28125 C 374.78124,845.28128 369.71716,836.1875 363.65625,836.1875 C 357.59534,836.18753 347.47891,802.85231 346.46875,795.78125 C 345.89534,791.76739 348.25242,774.74361 351.875,759.65625 C 363.70319,763.07912 374.9591,765.83536 376.78125,764.46875 C 380.82186,761.43831 424.25857,671.54442 417.1875,642.25 C 410.11644,612.9556 345.46875,513.9375 345.46875,513.9375 C 345.46875,513.93751 358.74582,470.84544 367.25,455.21875 C 370.34469,454.78062 373.11309,454.17784 374.78125,453.34375 C 380.84217,450.3133 411.13594,429.0828 413.15625,427.0625 C 415.17656,425.04219 419.2094,427.0625 423.25,427.0625 C 427.29061,427.0625 436.39689,417.97732 440.4375,410.90625 C 444.47811,403.83518 455.5828,393.73906 453.5625,391.71875 C 451.5422,389.69844 441.43751,403.84376 441.4375,403.84375 C 441.4375,403.84375 453.55156,383.64532 451.53125,381.625 C 449.51094,379.6047 433.34375,396.78124 433.34375,396.78125 C 433.34375,396.78125 447.48907,371.52032 445.46875,369.5 C 443.44845,367.4797 427.28125,390.71874 427.28125,390.71875 C 427.28125,390.71875 436.37421,366.47891 433.34375,365.46875 C 430.31329,364.4586 422.98624,384.16129 419.96875,388.6875 C 418.45352,390.96035 415.53036,393.98669 414.65625,386.9375 C 407.99945,385.06565 404.01199,397.08325 400.03125,400.8125 C 400.03125,400.8125 405.07187,407.89688 401.03125,411.9375 C 399.70798,413.26077 396.30057,414.00331 392.03125,414.5625 C 410.10234,383.13253 431.98708,343.14875 431.34375,341.21875 C 431.20021,340.78814 430.33746,339.79183 429.0625,338.46875 C 436.71524,320.95704 442.55146,309.24412 446.5,306.875 C 451.55076,303.84455 459.61564,304.84217 463.65625,298.78125 C 467.69685,292.72033 462.6461,274.53982 463.65625,267.46875 C 464.66639,260.39768 472.76015,243.21716 471.75,237.15625 C 470.80298,231.47414 459.18203,217.80345 454.40625,217.78125 z "
       id="path2342"
       sodipodi:nodetypes="csscsccsscscssssccsscccccsssscsscssccssssscscscssccscscssssc" />
  </g>
</svg>
