<?xml version="1.0" encoding="UTF-8" standalone="no"?>
<!-- Created with Inkscape (http://www.inkscape.org/) -->
<svg
   xmlns:dc="http://purl.org/dc/elements/1.1/"
   xmlns:cc="http://web.resource.org/cc/"
   xmlns:rdf="http://www.w3.org/1999/02/22-rdf-syntax-ns#"
   xmlns:svg="http://www.w3.org/2000/svg"
   xmlns="http://www.w3.org/2000/svg"
   xmlns:sodipodi="http://sodipodi.sourceforge.net/DTD/sodipodi-0.dtd"
   xmlns:inkscape="http://www.inkscape.org/namespaces/inkscape"
   width="744.09448"
   height="1052.3622"
   id="svg2"
   sodipodi:version="0.32"
   inkscape:version="0.45.1"
   version="1.0"
   sodipodi:docbase="C:\Users\ieb\Documents\Kung Food card game\outlines"
   sodipodi:docname="dragon_punch.svg"
   inkscape:output_extension="org.inkscape.output.svg.inkscape">
  <defs
     id="defs4" />
  <sodipodi:namedview
     id="base"
     pagecolor="#ffffff"
     bordercolor="#666666"
     borderopacity="1.0"
     gridtolerance="10000"
     guidetolerance="10"
     objecttolerance="10"
     inkscape:pageopacity="0.0"
     inkscape:pageshadow="2"
     inkscape:zoom="0.35"
     inkscape:cx="280.39434"
     inkscape:cy="762.07137"
     inkscape:document-units="px"
     inkscape:current-layer="layer2"
     inkscape:window-width="1280"
     inkscape:window-height="974"
     inkscape:window-x="-8"
     inkscape:window-y="-8" />
  <metadata
     id="metadata7">
    <rdf:RDF>
      <cc:Work
         rdf:about="">
        <dc:format>image/svg+xml</dc:format>
        <dc:type
           rdf:resource="http://purl.org/dc/dcmitype/StillImage" />
      </cc:Work>
    </rdf:RDF>
  </metadata>
  <g
     inkscape:groupmode="layer"
     id="layer2"
     inkscape:label="outline">
    <path
       style="fill:#000000;fill-rule:evenodd;stroke-width:1px;stroke-linecap:butt;stroke-linejoin:miter;stroke-opacity:1"
       d="M 652.15797,214.23688 C 648.82232,214.36518 642.13961,224.61446 642.13961,224.61446 C 642.13964,224.61447 630.29092,241.94844 624.81703,243.77307 C 619.34315,245.59769 611.12661,245.6091 611.12661,245.6091 C 611.12661,245.60911 608.37827,235.55083 602.90438,235.55083 C 597.43052,235.55082 602.01487,242.84364 600.19024,247.40522 C 598.3656,251.96678 592.89172,261.12415 593.80404,265.68572 C 594.71634,270.2473 597.45329,271.13111 593.80404,273.86805 C 590.15477,276.60501 559.14178,302.1441 543.63243,304.88104 C 528.12305,307.61797 519.89514,325.89279 515.33357,328.62974 C 510.77201,331.36668 485.22148,337.75858 476.09833,342.32016 C 466.97517,346.88173 451.46583,355.97638 437.78112,356.88868 C 424.09638,357.80102 410.43449,376.9539 403.13597,381.51548 C 399.08469,384.04753 389.69333,388.56438 380.26538,392.69133 C 375.87877,386.11361 370.79915,377.23795 370.28693,370.57911 C 369.37461,358.71901 394.90803,314.92221 349.29229,305.79906 C 316.44897,303.97445 296.37804,335.02165 298.20267,348.70636 C 300.02731,362.39109 293.6525,368.74307 293.6525,368.74307 C 293.6525,368.74306 302.78704,375.15778 301.87473,379.71936 C 300.96243,384.28094 309.16184,402.51583 312.81111,403.42814 C 316.46036,404.34045 338.36163,407.066 339.27394,401.59211 C 339.68042,399.15327 339.70903,402.94529 339.63316,407.81865 C 323.10993,413.56667 302.91732,420.4777 296.36663,421.66873 C 286.33116,423.49336 269.93802,439.00842 262.6395,441.74536 C 255.341,444.48229 225.21179,463.6238 220.65022,464.53612 C 216.08863,465.44841 207.89491,460.91536 204.24566,462.74 C 200.59639,464.56464 157.7176,483.72323 127.61122,481.89861 C 121.22502,480.07398 114.84453,469.1205 109.37063,461.82198 C 103.89675,454.52345 80.18226,440.81593 78.357632,445.37751 C 76.533017,449.93907 86.557057,453.62256 89.294005,457.27181 C 92.03094,460.92107 94.762191,462.74 94.762191,462.74 C 94.762191,462.74001 71.937225,460.00305 72.849532,462.74 C 73.761839,465.47695 90.18921,466.38925 92.926157,469.1262 C 95.663105,471.86315 96.598224,473.67637 96.598224,473.67637 C 96.598224,473.67636 76.527308,473.69347 77.439615,476.43042 C 78.351936,479.16737 90.200615,478.25505 94.762191,482.81662 C 99.323766,487.3782 98.394344,494.67101 98.394344,494.67101 C 98.394331,494.67103 104.79195,495.56622 106.61658,498.30317 C 108.44122,501.04011 111.16675,507.43203 117.55295,505.60739 C 123.93914,503.78275 123.97336,499.22688 129.44726,500.1392 C 134.92115,501.05151 206.08169,508.36144 212.46789,508.36144 C 218.85411,508.36144 232.53881,498.29176 238.01271,496.46713 C 243.4866,494.64249 288.17291,481.8815 292.73448,479.14456 C 297.29606,476.40761 317.36128,466.37215 317.36128,466.37215 C 317.36128,466.37215 336.53128,490.08093 338.35592,496.46713 C 340.18055,502.85332 351.11693,522.95276 349.29229,532.98823 C 349.06421,534.24266 349.12764,535.4971 349.45195,536.78004 C 344.94889,551.52926 342.26222,559.45106 330.13368,559.45106 C 314.62434,559.45106 230.71418,572.22346 218.8541,578.60967 C 206.99401,584.99587 181.41498,599.5758 181.41498,607.78663 C 181.41497,615.9975 204.23996,678.05197 203.32764,687.17512 C 202.41532,696.29827 198.76037,703.59108 202.40962,705.41571 C 205.36839,706.8951 217.31624,715.55645 237.29426,718.78682 C 251.7136,742.09427 266.98739,770.00026 264.43562,773.82791 C 260.78635,779.30175 233.42262,798.47752 220.65022,802.12677 C 207.8778,805.77604 190.55523,813.96975 203.32764,818.53133 C 216.10005,823.09285 246.20643,821.26826 254.41726,818.53133 C 262.62809,815.79434 299.13209,803.00487 307.34292,803.00487 C 315.55376,803.00486 303.67656,776.55915 298.20267,772.90989 C 292.94303,769.40343 272.56519,737.27367 268.54674,719.38553 C 284.83301,717.91399 289.81889,713.86234 289.10233,708.12985 C 288.19002,700.83131 253.49925,656.14502 266.27165,653.40807 C 279.04406,650.67115 378.49207,636.9636 394.91373,643.3498 C 398.79863,644.8606 404.11087,643.70237 409.96122,641.07472 C 421.62133,655.63793 428.68457,680.79266 438.69913,690.80727 C 452.38386,704.49198 457.88055,728.22359 461.52981,737.34672 C 463.63447,742.60839 476.94498,743.27645 489.42953,742.93465 C 498.62215,752.71614 511.69599,766.99451 516.25158,773.82791 C 523.55011,784.77564 530.86572,813.06314 531.77804,819.44935 C 532.69032,825.83557 523.5387,845.91788 520.80175,853.21639 C 518.06479,860.51492 525.35763,872.375 551.81475,872.375 C 578.27191,872.375 588.33014,867.79631 587.41783,856.84855 C 586.50551,845.90073 573.71601,834.9644 571.89138,826.75357 C 570.06678,818.54275 539.98887,764.72187 538.16424,757.42335 C 537.3698,754.24561 534.76941,745.66933 532.09735,736.7081 C 539.65693,733.64319 547.04379,729.27933 550.93665,723.6563 C 559.14748,711.79622 544.55042,704.5091 531.77804,693.56132 C 519.00563,682.61354 489.78876,636.05126 489.78876,624.19119 C 489.78876,612.33109 478.85811,574.9433 473.3842,563.08321 C 469.05304,553.69902 460.71534,548.24822 451.55137,527.87927 C 449.97557,518.42601 446.92137,505.56004 446.92137,499.22118 C 446.92137,490.09803 449.6412,432.63932 450.55352,425.3408 C 451.46582,418.04229 452.37245,400.7026 462.40791,398.87797 C 472.44337,397.05334 529.00689,361.46167 532.65614,358.72472 C 536.30544,355.98777 558.20096,346.87033 558.20096,346.87033 C 558.20098,346.87032 606.58785,287.56987 614.79868,283.0083 C 623.00948,278.44671 653.994,230.08835 653.994,218.22825 C 653.99401,215.26323 653.26984,214.19411 652.15797,214.23688 z "
       id="path2807" />
  </g>
</svg>
