<?xml version="1.0" encoding="UTF-8" standalone="no"?>
<!-- Created with Inkscape (http://www.inkscape.org/) -->
<svg
   xmlns:dc="http://purl.org/dc/elements/1.1/"
   xmlns:cc="http://web.resource.org/cc/"
   xmlns:rdf="http://www.w3.org/1999/02/22-rdf-syntax-ns#"
   xmlns:svg="http://www.w3.org/2000/svg"
   xmlns="http://www.w3.org/2000/svg"
   xmlns:sodipodi="http://sodipodi.sourceforge.net/DTD/sodipodi-0.dtd"
   xmlns:inkscape="http://www.inkscape.org/namespaces/inkscape"
   width="744.09448819"
   height="1052.3622047"
   id="svg2"
   sodipodi:version="0.32"
   inkscape:version="0.45.1"
   sodipodi:docbase="C:\Users\ieb\Documents\Kung Food card game\outlines"
   sodipodi:docname="drunken_monkey_kick.svg"
   inkscape:output_extension="org.inkscape.output.svg.inkscape">
  <defs
     id="defs4" />
  <sodipodi:namedview
     id="base"
     pagecolor="#ffffff"
     bordercolor="#666666"
     borderopacity="1.0"
     gridtolerance="10000"
     guidetolerance="10"
     objecttolerance="10"
     inkscape:pageopacity="0.0"
     inkscape:pageshadow="2"
     inkscape:zoom="0.49497475"
     inkscape:cx="592.32903"
     inkscape:cy="578.85561"
     inkscape:document-units="px"
     inkscape:current-layer="layer2"
     inkscape:window-width="1280"
     inkscape:window-height="974"
     inkscape:window-x="-8"
     inkscape:window-y="-8" />
  <metadata
     id="metadata7">
    <rdf:RDF>
      <cc:Work
         rdf:about="">
        <dc:format>image/svg+xml</dc:format>
        <dc:type
           rdf:resource="http://purl.org/dc/dcmitype/StillImage" />
      </cc:Work>
    </rdf:RDF>
  </metadata>
  <g
     inkscape:groupmode="layer"
     id="layer2"
     inkscape:label="outline">
    <path
       style="fill:#000000;fill-rule:evenodd;stroke-width:1px;stroke-linecap:butt;stroke-linejoin:miter;stroke-opacity:1"
       d="M 612.98409,173.51783 C 596.31087,174.28885 595.50229,212.67727 589.19136,219.88975 C 583.31251,226.60846 570.36007,239.78132 559.88255,249.49276 C 557.01634,247.77148 554.36714,246.20808 552.34389,244.85925 C 538.07933,235.34953 527.37439,232.98127 527.37439,232.98127 C 527.37441,232.98126 502.43608,274.57538 481.03925,285.27379 C 459.64242,295.97221 426.36463,315.0028 410.91137,328.07864 C 404.00579,333.92183 393.05438,350.69064 381.89674,369.78027 C 382.15455,356.68494 381.2282,342.05313 379.9845,335.21278 C 377.60708,322.13696 363.33787,295.9722 362.14915,285.27379 C 360.96044,274.57537 363.33693,262.70561 358.58208,257.95076 C 353.82722,253.1959 350.26837,250.81662 339.56996,250.81662 C 328.87154,250.81662 320.55784,246.0627 320.55784,254.38369 C 320.55785,262.7047 337.19252,275.75307 339.56996,290.01763 C 345.51353,313.79188 346.71511,342.34785 341.96026,345.91399 C 338.0311,348.86085 297.57931,328.27791 268.89047,322.37868 C 272.28843,320.34255 276.42251,318.01343 278.96653,317.37743 C 283.72138,316.18872 289.66774,300.75561 289.66774,300.75561 L 303.93602,297.18854 L 294.41158,280.52995 C 294.41158,280.52995 299.16827,273.39303 301.54572,262.6946 C 303.92314,251.99619 296.78529,234.18006 280.14329,224.67036 C 263.50132,215.16066 256.38173,219.90451 234.98491,229.4142 C 213.58808,238.9239 220.71757,284.12279 224.2837,288.87763 C 226.73603,292.14741 229.18703,298.21106 230.86623,304.39623 C 223.03121,301.02572 216.74809,299.12777 214.75925,300.71884 C 208.81569,305.47368 190.96559,326.86697 187.39945,333.99924 C 187.19493,334.40827 187.03709,334.92997 186.88462,335.50697 C 163.78747,365.81477 133.34823,410.07161 130.36309,416.04187 C 126.79694,423.17413 120.83958,435.05679 124.40572,445.7552 C 127.97185,456.45362 167.22252,523.03103 166.0338,528.97459 C 164.84509,534.91816 162.45572,551.53083 167.21057,557.47439 C 171.96542,563.41796 183.84618,572.95621 189.78976,572.95621 C 195.73331,572.95621 212.36895,563.43176 212.36895,563.43176 L 196.9239,539.67581 L 213.58249,538.46227 C 213.58249,538.46228 195.72137,527.77207 190.96652,523.01722 C 186.21167,518.26236 170.79051,481.41023 173.16794,468.33439 C 175.54537,455.25856 185.05058,423.16127 202.88127,413.65156 C 203.32976,413.41237 203.72743,413.09895 204.13159,412.76899 C 234.7758,474.75328 274.33235,516.79274 306.03214,540.92612 C 306.88986,544.01076 308.49066,546.43282 311.03339,547.98671 C 332.43021,561.06255 351.45073,570.56964 362.14915,584.83419 C 372.84757,599.09874 402.57378,635.94732 394.25278,672.79742 C 386.06182,709.0717 372.10141,786.79699 370.5336,788.08368 C 372.91387,789.17807 376.13316,790.20092 379.94773,791.06236 C 379.58123,793.80506 379.23515,795.732 378.80773,796.43136 C 367.77103,814.49027 341.96026,828.52491 341.96026,836.8459 C 347.90383,852.29919 376.4331,858.23917 389.50895,870.1263 C 402.58478,882.01341 415.64885,891.50203 438.2344,883.18105 C 460.81993,874.86003 437.03093,859.43798 428.70995,861.8154 C 420.38896,864.19286 410.8985,848.72015 408.52107,834.4556 C 407.37513,827.5799 409.02258,811.05142 411.53653,794.9604 C 427.04158,795.80043 441.25999,795.20972 444.19177,792.86429 C 450.13534,788.10941 452.49074,772.66159 453.67945,766.71802 C 454.86817,760.77448 460.81173,646.65751 453.67945,624.07197 C 446.54718,601.48639 414.47844,512.30126 414.47844,502.79156 C 414.47844,493.28186 410.90129,496.86723 419.22228,482.60267 C 427.54325,468.33811 510.72886,323.32828 560.6548,298.36531 C 576.20159,290.59191 582.6813,283.36561 583.74882,276.85256 C 596.05331,276.39929 617.72793,282.84201 617.72793,281.70672 C 633.18123,240.10176 616.62135,244.50832 620.11824,227.02389 C 622.49568,215.13676 633.20554,172.58274 612.98409,173.51783 z M 366.67234,396.88265 C 358.95996,411.07981 352.1808,424.18406 347.62345,433.25207 C 338.2902,432.2073 325.01551,429.39192 320.55784,421.96247 C 317.31697,416.561 317.48221,407.91082 317.32173,397.91232 C 333.13984,398.21265 353.89747,398.09299 366.67234,396.88265 z M 237.8165,537.91066 C 236.31988,538.01165 234.56378,538.56139 232.55783,539.67581 C 221.85942,545.61937 208.80188,543.2061 208.80188,543.2061 L 214.72248,566.99883 C 214.72248,566.99883 192.1295,577.71199 186.18591,576.52328 C 180.24235,575.33457 165.99702,561.04147 165.99703,561.04146 L 156.47258,562.255 C 156.47258,562.255 151.71681,571.76843 152.90551,576.52328 C 154.09422,581.27813 171.9544,587.22449 171.9544,587.22449 L 207.58834,572.95621 C 207.58834,572.95621 219.48011,564.61956 225.42369,559.86469 C 231.36725,555.10984 237.32743,551.55284 242.08228,547.98671 C 245.9456,545.08922 244.30189,537.47302 237.8165,537.91066 z "
       id="path2417" />
  </g>
</svg>
