<?xml version="1.0" encoding="UTF-8" standalone="no"?>
<!-- Created with Inkscape (http://www.inkscape.org/) -->
<svg
   xmlns:dc="http://purl.org/dc/elements/1.1/"
   xmlns:cc="http://web.resource.org/cc/"
   xmlns:rdf="http://www.w3.org/1999/02/22-rdf-syntax-ns#"
   xmlns:svg="http://www.w3.org/2000/svg"
   xmlns="http://www.w3.org/2000/svg"
   xmlns:sodipodi="http://sodipodi.sourceforge.net/DTD/sodipodi-0.dtd"
   xmlns:inkscape="http://www.inkscape.org/namespaces/inkscape"
   width="744.09448"
   height="1052.3622"
   id="svg2"
   sodipodi:version="0.32"
   inkscape:version="0.45.1"
   version="1.0"
   sodipodi:docbase="C:\Users\ieb\Documents\Kung Food card game\outlines"
   sodipodi:docname="drunken_fortitude.svg"
   inkscape:output_extension="org.inkscape.output.svg.inkscape">
  <defs
     id="defs4" />
  <sodipodi:namedview
     id="base"
     pagecolor="#ffffff"
     bordercolor="#666666"
     borderopacity="1.0"
     gridtolerance="10000"
     guidetolerance="10"
     objecttolerance="10"
     inkscape:pageopacity="0.0"
     inkscape:pageshadow="2"
     inkscape:zoom="0.49497475"
     inkscape:cx="447.87997"
     inkscape:cy="513.20574"
     inkscape:document-units="px"
     inkscape:current-layer="layer2"
     inkscape:window-width="1280"
     inkscape:window-height="974"
     inkscape:window-x="-8"
     inkscape:window-y="-8" />
  <metadata
     id="metadata7">
    <rdf:RDF>
      <cc:Work
         rdf:about="">
        <dc:format>image/svg+xml</dc:format>
        <dc:type
           rdf:resource="http://purl.org/dc/dcmitype/StillImage" />
      </cc:Work>
    </rdf:RDF>
  </metadata>
  <g
     inkscape:groupmode="layer"
     id="layer2"
     inkscape:label="outline">
    <g
       id="g2457"
       transform="translate(18.182746,-66.670068)"
       style="fill:#000000">
      <path
         id="path2447"
         d="M 413.15239,849.32152 C 403.05087,867.50427 384.86812,890.73778 379.81736,891.74793 C 374.76659,892.75808 363.65492,910.94083 368.70568,918.01189 C 373.75644,925.08296 384.86812,927.10327 384.86812,934.17433 C 384.86812,941.2454 395.9798,969.52967 402.04071,971.54998 C 408.10163,973.57028 435.37575,980.64135 438.4062,973.57028 C 441.43666,966.49922 416.18285,933.16418 417.193,927.10327 C 418.20315,921.04235 413.15239,900.8393 417.193,899.82915 C 421.23361,898.819 456.58895,875.58549 462.64987,869.52457 C 468.71078,863.46366 476.792,841.2403 485.88337,840.23015 C 494.97475,839.22 509.11688,843.26061 509.11688,843.26061 C 509.11688,843.26061 521.23871,814.97633 529.31993,794.77328 C 537.40115,774.57023 543.46207,748.30627 540.43161,738.20474 C 537.40115,728.10322 476.792,632.13872 447.49758,621.02705 C 418.20315,609.91537 289.91378,602.8443 277.79195,610.92552 C 265.67012,619.00674 215.16249,660.423 205.06097,674.56513 C 194.95944,688.70727 132.32998,730.12352 129.29953,742.24535 C 126.26907,754.36718 135.36044,780.63115 141.42136,786.69206 C 147.48227,792.75298 139.40105,804.87481 136.37059,815.98649 C 133.34014,827.09817 130.30968,888.71747 127.27922,896.79869 C 124.24876,904.87991 118.18785,921.04235 121.21831,928.11342 C 124.24876,935.18449 124.24876,957.40784 129.29953,963.46876 C 134.35029,969.52967 150.51273,981.6515 164.65486,978.62105 C 178.797,975.59059 164.65486,960.4383 166.67517,947.30632 C 168.69548,934.17433 150.51273,918.01189 172.73609,883.66671 C 194.95944,849.32152 192.93914,821.03725 202.03051,822.0474 C 211.12188,823.05755 227.28432,821.03725 235.36554,813.96618 C 243.44676,806.89511 273.75134,757.39764 285.87317,753.35703 C 297.995,749.31642 341.43156,710.93062 352.54324,711.94077 C 363.65492,712.95093 424.26407,757.39764 423.25392,767.49916 C 422.24376,777.60069 406.08132,799.82405 410.12193,807.90527 C 414.16254,815.98649 425.27422,819.01694 424.26407,824.06771 C 423.25392,829.11847 415.1727,851.34183 413.15239,849.32152 z "
         style="fill:#000000;fill-rule:evenodd;stroke-width:1px;stroke-linecap:butt;stroke-linejoin:miter;stroke-opacity:1" />
      <path
         id="path2449"
         d="M 349.51278,271.51426 C 305.06606,270.50411 294.96454,325.05235 294.96454,335.15387 C 294.96454,345.2554 303.04576,370.50921 311.12698,382.63104 C 319.2082,394.75287 329.30972,400.81379 341.43156,395.76302 C 353.55339,390.71226 337.39095,412.93562 337.39095,412.93562 L 420.22345,408.89501 C 420.22345,408.89501 412.14223,376.57013 405.07117,359.39753 C 398.0001,342.22494 406.08132,305.85945 403.05086,297.77823 C 400.0204,289.69701 373.75644,268.4838 349.51278,271.51426 z "
         style="fill:#000000;fill-rule:evenodd;stroke-width:1px;stroke-linecap:butt;stroke-linejoin:miter;stroke-opacity:1" />
      <path
         id="path2451"
         d="M 278.8021,627.08796 C 282.84271,588.70216 289.91378,578.60064 291.93409,566.47881 C 293.95439,554.35698 279.81226,505.86966 282.84271,482.63615 C 285.87317,459.40264 266.68027,420.00669 277.79195,412.93562 C 288.90363,405.86455 290.92393,397.78333 309.10668,395.76303 C 327.28942,393.74272 363.65492,401.82394 375.77675,398.79349 C 387.89858,395.76303 430.32498,374.54982 448.50773,374.54982 C 466.69048,374.54982 485.88337,371.51937 489.92398,380.61074 C 493.96459,389.70211 463.66002,460.41279 463.66002,479.60569 C 463.66002,498.79859 441.43666,527.08286 441.43666,552.33667 C 441.43666,577.59049 454.56865,635.16918 447.49758,638.19964 C 440.42651,641.2301 281.83256,629.10827 278.8021,627.08796 z "
         style="fill:#000000;fill-rule:evenodd;stroke-width:1px;stroke-linecap:butt;stroke-linejoin:miter;stroke-opacity:1" />
      <path
         id="path2453"
         d="M 454.56865,385.6615 C 469.72093,378.59043 470.73109,374.54982 479.82246,375.55998 C 488.91383,376.57013 522.24887,388.69196 531.34024,381.62089 C 540.43161,374.54982 542.45192,359.39754 546.49253,353.33662 C 550.53314,347.27571 566.69558,326.0625 567.70573,316.97113 C 568.71588,307.87976 565.68543,298.78838 560.63466,294.74777 C 555.5839,290.70716 529.31993,279.59549 528.30978,274.54472 C 527.29963,269.49396 554.57375,268.48381 554.57375,264.4432 C 554.57375,260.40259 546.49253,253.33152 549.52298,247.2706 C 552.55344,241.20969 549.52298,236.15893 549.52298,236.15893 L 522.24887,219.99649 C 522.24887,219.99649 528.30978,213.93557 532.35039,213.93557 C 536.391,213.93557 544.47222,215.95588 544.47222,215.95588 C 544.47222,215.95588 541.44176,198.78328 546.49253,202.82389 C 551.54329,206.8645 565.68543,238.17923 570.73619,239.18938 C 575.78695,240.19954 599.02046,257.37213 601.04076,267.47365 C 603.06107,277.57518 602.05092,306.8696 602.05092,315.96098 C 602.05092,325.05235 611.14229,386.67166 600.03061,405.86455 C 588.91893,425.05745 586.89863,450.31127 562.65497,456.37218 C 538.41131,462.4331 441.43666,479.60569 431.33514,494.75798 C 421.23361,509.91027 456.58895,387.68181 454.56865,385.6615 z "
         style="fill:#000000;fill-rule:evenodd;stroke-width:1px;stroke-linecap:butt;stroke-linejoin:miter;stroke-opacity:1" />
      <path
         id="path2455"
         d="M 329.30973,409.90516 C 293.95439,401.82394 299.00515,397.78333 289.91378,401.82394 C 280.82241,405.86455 250.51783,418.99654 245.46707,424.0473 C 240.41631,429.09806 201.02036,457.38233 192.93914,456.37218 C 184.85792,455.36203 156.57364,447.28081 160.61425,434.14882 C 164.65486,421.01684 175.76654,411.92547 175.76654,406.87471 C 175.76654,401.82394 173.74624,398.79349 174.75639,392.73257 C 175.76654,386.67166 183.84776,381.62089 179.80715,379.60059 C 175.76654,377.58028 162.63456,387.68181 160.61425,391.72242 C 158.59395,395.76303 156.57364,370.50921 156.57364,370.50921 L 166.67517,371.51937 C 166.67517,371.51937 168.69548,355.35693 164.65486,352.32647 C 160.61425,349.29601 148.49242,359.39754 148.49242,359.39754 C 148.49242,359.39754 139.40105,357.37723 135.36044,361.41784 C 131.31983,365.45845 131.31983,369.49906 131.31983,369.49906 C 131.31983,369.49906 123.23861,370.50921 119.198,372.52952 C 115.15739,374.54982 115.15739,384.65135 115.15739,384.65135 C 115.15739,384.65135 109.09647,384.65135 107.07617,392.73257 C 105.05586,400.81379 109.09647,416.97623 114.14724,425.05745 C 119.198,433.13867 129.29953,442.23005 129.29953,449.30111 C 129.29953,456.37218 131.31983,490.71737 141.42136,500.81889 C 151.52288,510.92042 161.62441,521.02194 169.70563,523.04225 C 177.78685,525.06255 236.3757,525.06255 249.50768,519.00164 C 262.63966,512.94072 305.06607,502.8392 311.12698,505.86966 C 317.1879,508.90011 331.33003,410.91532 329.30973,409.90516 z "
         style="fill:#000000;fill-rule:evenodd;stroke-width:1px;stroke-linecap:butt;stroke-linejoin:miter;stroke-opacity:1" />
    </g>
  </g>
</svg>
