<?xml version="1.0" encoding="UTF-8" standalone="no"?>
<!-- Created with Inkscape (http://www.inkscape.org/) -->
<svg
   xmlns:dc="http://purl.org/dc/elements/1.1/"
   xmlns:cc="http://web.resource.org/cc/"
   xmlns:rdf="http://www.w3.org/1999/02/22-rdf-syntax-ns#"
   xmlns:svg="http://www.w3.org/2000/svg"
   xmlns="http://www.w3.org/2000/svg"
   xmlns:sodipodi="http://sodipodi.sourceforge.net/DTD/sodipodi-0.dtd"
   xmlns:inkscape="http://www.inkscape.org/namespaces/inkscape"
   width="744.09448"
   height="1052.3622"
   id="svg2"
   sodipodi:version="0.32"
   inkscape:version="0.45.1"
   version="1.0"
   sodipodi:docbase="C:\Users\ieb\Documents\Kung Food card game\outlines"
   sodipodi:docname="eight_step_kick.svg"
   inkscape:output_extension="org.inkscape.output.svg.inkscape">
  <defs
     id="defs4" />
  <sodipodi:namedview
     id="base"
     pagecolor="#ffffff"
     bordercolor="#666666"
     borderopacity="1.0"
     gridtolerance="10000"
     guidetolerance="10"
     objecttolerance="10"
     inkscape:pageopacity="0.0"
     inkscape:pageshadow="2"
     inkscape:zoom="0.98994949"
     inkscape:cx="430.91519"
     inkscape:cy="571.35301"
     inkscape:document-units="px"
     inkscape:current-layer="layer2"
     inkscape:window-width="1280"
     inkscape:window-height="974"
     inkscape:window-x="-8"
     inkscape:window-y="-8" />
  <metadata
     id="metadata7">
    <rdf:RDF>
      <cc:Work
         rdf:about="">
        <dc:format>image/svg+xml</dc:format>
        <dc:type
           rdf:resource="http://purl.org/dc/dcmitype/StillImage" />
      </cc:Work>
    </rdf:RDF>
  </metadata>
  <g
     inkscape:groupmode="layer"
     id="layer2"
     inkscape:label="outline">
    <path
       style="fill:#000000;fill-rule:evenodd;stroke-width:1px;stroke-linecap:butt;stroke-linejoin:miter;stroke-opacity:1"
       d="M 198.375,156.3125 C 187.9578,156.35985 166.1699,157.10295 158.59375,162.40625 C 148.49222,169.47732 142.44686,179.60469 138.40625,181.625 C 134.36564,183.6453 82.832013,235.15862 77.78125,244.25 C 72.730487,253.34138 57.582805,298.78521 55.5625,313.9375 C 53.542193,329.08979 45.805448,384.30849 48.5,397.78125 C 52.540608,417.9843 55.542987,440.20161 60.59375,454.34375 C 65.644511,468.48589 87.876584,503.85643 93.9375,552.34375 C 99.998417,600.83107 121.21875,665.46875 121.21875,665.46875 C 121.21875,665.46875 127.21048,664.23694 134.5,662.71875 C 138.17697,670.3194 142.4375,679.76827 142.4375,682.65625 C 142.43751,687.707 148.48128,725.07424 156.5625,730.125 C 164.64372,735.17574 191.9375,733.15467 191.9375,727.09375 C 191.93749,721.03282 181.82186,704.86327 177.78125,699.8125 C 173.74064,694.76171 157.58281,673.53982 155.5625,666.46875 C 155.13065,664.95728 154.14798,662.16312 152.9375,658.90625 C 162.58604,656.97733 171.14036,655.375 172.75,655.375 C 176.79062,655.37498 140.41561,498.80775 136.375,480.625 C 132.33439,462.44226 115.16957,411.93988 126.28125,421.03125 C 137.39293,430.12261 158.60628,498.80393 166.6875,505.875 C 174.76872,512.94606 201.02189,549.31647 205.0625,564.46875 C 209.10311,579.62104 225.27427,633.14452 238.40625,628.09375 C 240.36398,627.34078 242.85261,626.47191 245.5625,625.53125 C 248.31802,629.67356 251.95533,633.68989 256.59375,636.1875 C 256.59376,636.18751 271.74223,636.16878 281.84375,644.25 C 291.94529,652.33121 305.06408,676.5836 311.125,677.59375 C 317.18592,678.60391 316.1875,666.46875 316.1875,666.46875 C 316.18749,666.46877 308.09915,636.17338 288.90625,622.03125 C 285.0922,619.2209 281.46879,616.35847 278.125,613.53125 C 282.04039,611.67945 284.41288,610.0445 283.84375,608.90625 C 281.82344,604.86565 229.30156,512.94527 227.28125,502.84375 C 225.26095,492.74222 184.86327,397.76951 179.8125,392.71875 C 176.95467,389.86091 169.28035,375.45904 163.125,363.40625 C 172.2588,365.79416 180.27465,367.85772 182.84375,368.5 C 190.92497,370.5203 229.30631,388.67814 245.46875,392.71875 C 261.63119,396.75936 302.02902,417.98443 333.34375,438.1875 C 340.02424,442.49749 351.43325,447.6467 365.1875,453.0625 C 385.23494,471.16777 418.60613,503.49184 417.1875,516.96875 C 415.16721,536.16166 388.89372,682.63911 380.8125,696.78125 C 376.11234,705.0065 393.6246,715.97089 410.09375,722.90625 C 407.88083,732.71113 404.81101,744.05744 402.03125,746.28125 C 396.98049,750.32187 391.92814,761.42814 395.96875,765.46875 C 400.00936,769.50934 412.14848,770.54298 422.25,775.59375 C 432.35152,780.64452 469.71954,791.72811 472.75,787.6875 C 475.78045,783.6469 465.68433,776.59217 453.5625,770.53125 C 441.44066,764.47036 438.40545,762.43512 435.375,753.34375 C 433.54146,747.84315 432.81728,737.92837 432.53125,729.59375 C 433.89088,729.66215 434.88757,729.51494 435.375,729.125 C 440.42575,725.08442 473.76173,645.27571 478.8125,624.0625 C 483.23052,605.5068 496.14712,529.75268 493.90625,498.21875 L 497.53125,496.34375 C 497.79288,496.41886 499,496.78125 499,496.78125 C 499,496.78125 498.97498,495.82787 498.96875,495.59375 L 517.46875,486.03125 C 516.96593,486.96241 516.52038,487.85531 516.1875,488.6875 C 512.14689,498.78903 532.34532,515.98052 538.40625,521.03125 C 544.46716,526.08202 553.56249,526.06252 553.5625,526.0625 C 553.5625,526.0625 595.9914,514.957 603.0625,509.90625 C 610.13357,504.85548 644.48049,472.54918 649.53125,461.4375 C 654.58201,450.32583 644.46792,438.18975 641.4375,406.875 C 640.90801,401.40358 639.28513,395.9027 636.96875,390.53125 C 652.86848,388.34218 672.37568,384.03058 677.8125,378.59375 C 686.90385,369.50239 698.00619,339.19449 681.84375,326.0625 C 645.68384,299.41836 620.29595,339.10929 614.09375,357.3125 C 605.44902,347.9576 597.69619,341.49089 596,340.21875 C 591.95939,337.18829 531.34061,324.05313 519.21875,328.09375 C 507.09692,332.13436 484.87499,378.58518 484.875,385.65625 C 484.875,390.59561 476.55219,395.95484 471.5,398.78125 C 469.39232,397.6176 467.09742,396.93382 464.65625,396.78125 C 432.33137,394.76095 315.17577,362.41639 310.125,361.40625 C 305.07424,360.3961 285.8609,350.2906 271.71875,346.25 C 257.57662,342.20939 218.19368,335.1453 202.03125,333.125 C 190.48308,331.68148 178.02277,324.11509 171.78125,319.875 C 181.09018,314.90213 194.27168,312.93751 202.03125,312.9375 C 213.14293,312.9375 260.61643,327.0625 267.6875,327.0625 C 274.75857,327.0625 323.26172,300.81171 328.3125,297.78125 C 333.36326,294.75079 342.42813,296.78126 346.46875,296.78125 C 350.50936,296.78125 365.68749,290.69685 365.6875,286.65625 C 365.6875,282.61564 352.54062,274.54139 348.5,273.53125 C 344.45939,272.5211 334.3734,282.62579 328.3125,285.65625 C 322.25158,288.68671 297.98746,290.69843 289.90625,292.71875 C 281.82503,294.73905 272.74604,298.77965 257.59375,292.71875 C 242.44146,286.65783 224.25936,268.47731 220.21875,261.40625 C 219.47989,260.11324 217.23675,258.1663 214.09375,255.8125 C 218.72024,254.57297 223.30456,252.25794 227.28125,248.28125 C 231.53369,244.02881 235.16373,238.52617 238.09375,232.6875 C 243.39915,237.79308 250.14382,244.05628 252.53125,245.25 C 256.57186,247.2703 255.57424,268.49065 260.625,272.53125 C 265.67576,276.57186 272.75001,275.56251 272.75,275.5625 C 272.75,275.5625 264.65704,264.44686 267.6875,260.40625 C 270.71796,256.36564 287.90624,282.62499 287.90625,282.625 C 287.90625,282.625 290.9383,276.56012 293.96875,267.46875 C 296.99921,258.37738 277.7781,246.26793 265.65625,235.15625 C 261.47633,231.32466 254.1681,221.08166 245.9375,209.28125 C 246.97475,203.2623 246.89133,198.52822 245.46875,196.75 C 241.11139,191.3033 235.71056,188.21722 230.15625,186.71875 C 219.21119,171.38586 208.97386,158.26797 204.0625,157.375 C 203.98333,157.36061 203.89258,157.35651 203.8125,157.34375 L 204.0625,156.34375 C 204.0625,156.34375 201.8474,156.29672 198.375,156.3125 z "
       id="path2297" />
  </g>
</svg>
