<?xml version="1.0" encoding="UTF-8" standalone="no"?>
<!-- Created with Inkscape (http://www.inkscape.org/) -->
<svg
   xmlns:dc="http://purl.org/dc/elements/1.1/"
   xmlns:cc="http://web.resource.org/cc/"
   xmlns:rdf="http://www.w3.org/1999/02/22-rdf-syntax-ns#"
   xmlns:svg="http://www.w3.org/2000/svg"
   xmlns="http://www.w3.org/2000/svg"
   xmlns:sodipodi="http://sodipodi.sourceforge.net/DTD/sodipodi-0.dtd"
   xmlns:inkscape="http://www.inkscape.org/namespaces/inkscape"
   width="744.09448"
   height="1052.3622"
   id="svg2"
   sodipodi:version="0.32"
   inkscape:version="0.45.1"
   version="1.0"
   sodipodi:docbase="C:\Users\ieb\Documents\Kung Food card game\outlines"
   sodipodi:docname="groin_lifter.svg"
   inkscape:output_extension="org.inkscape.output.svg.inkscape">
  <defs
     id="defs4" />
  <sodipodi:namedview
     id="base"
     pagecolor="#ffffff"
     bordercolor="#666666"
     borderopacity="1.0"
     gridtolerance="10000"
     guidetolerance="10"
     objecttolerance="10"
     inkscape:pageopacity="0.0"
     inkscape:pageshadow="2"
     inkscape:zoom="0.85678233"
     inkscape:cx="360"
     inkscape:cy="565.25773"
     inkscape:document-units="px"
     inkscape:current-layer="layer2"
     inkscape:window-width="1280"
     inkscape:window-height="974"
     inkscape:window-x="-8"
     inkscape:window-y="-8" />
  <metadata
     id="metadata7">
    <rdf:RDF>
      <cc:Work
         rdf:about="">
        <dc:format>image/svg+xml</dc:format>
        <dc:type
           rdf:resource="http://purl.org/dc/dcmitype/StillImage" />
      </cc:Work>
    </rdf:RDF>
  </metadata>
  <g
     inkscape:groupmode="layer"
     id="layer2"
     inkscape:label="outline">
    <path
       style="fill:#000000;fill-rule:evenodd;stroke-width:1px;stroke-linecap:butt;stroke-linejoin:miter;stroke-opacity:1"
       d="M 409.125,106.8125 C 408.93266,106.83387 408.71884,106.8958 408.5,106.96875 C 404.99852,108.13591 401.48909,119.81102 402.65625,123.3125 C 403.8234,126.81397 398,134.96875 398,134.96875 C 398.00001,134.96875 400.3408,155.99853 407.34375,159.5 C 414.34668,163.00147 414.34375,157.15184 414.34375,167.65625 C 414.34375,178.16068 402.65625,230.68161 402.65625,244.6875 C 402.65625,258.6934 406.15625,292.53125 406.15625,292.53125 C 406.15625,292.53124 385.16715,315.89594 384,340.40625 C 383.98176,340.78922 383.98402,341.18396 384,341.59375 C 380.16264,341.07331 377.20658,341.32467 375.8125,342.71875 C 369.97671,348.55453 359.49057,355.58284 357.15625,356.75 C 357.15625,356.75 353.22587,360.13572 348,365.25 C 346.73251,362.76513 345.82467,359.95323 345.46875,356.75 C 343.13444,335.74116 332.63088,321.73408 318.625,310.0625 C 304.61911,298.39093 276.60406,293.70256 252.09375,332.21875 C 240.42218,359.06337 260.26888,374.23615 264.9375,382.40625 C 269.60613,390.57636 290.61762,391.74852 308.125,395.25 C 312.57479,396.13996 316.80008,398.16798 320.625,400.6875 C 299.07666,419.05452 294.125,416.15708 294.125,427.9375 C 294.12499,440.77625 316.3016,490.96433 317.46875,501.46875 C 318.63591,511.97316 309.28125,515.46875 309.28125,515.46875 C 309.28126,515.46877 301.13591,517.81899 299.96875,527.15625 C 298.80159,536.49348 291.79423,549.33137 310.46875,554 C 329.14326,558.66862 330.29069,552.81545 332.625,545.8125 C 332.81281,545.24906 333.05297,544.19205 333.28125,542.9375 C 332.80179,547.4703 332.43449,551.97687 332.40625,556.1875 L 327.96875,565.65625 C 327.96875,565.65625 238.08874,620.52831 225.25,627.53125 C 212.41127,634.53417 206.59817,653.19399 196.09375,662.53125 C 185.58934,671.8685 137.72022,730.21875 134.21875,730.21875 C 134.21875,730.21875 137.07748,739.78344 142.1875,752.15625 C 129.58247,772.77695 114.10647,799.07412 112.0625,807.25 C 108.56103,821.25589 33.851713,856.26592 39.6875,867.9375 C 45.523288,879.60908 82.859675,865.61557 94.53125,863.28125 C 106.20283,860.94694 130.7332,862.11556 145.90625,859.78125 C 161.0793,857.44694 150.57342,830.60908 149.40625,818.9375 C 148.84109,813.28593 155.93458,801.35055 163.40625,790.53125 C 170.25062,799.14338 178.10986,805.64997 186.75,807.25 C 218.26326,813.08579 210.08137,802.5967 214.75,795.59375 C 219.41863,788.5908 241.61616,737.22464 262.625,723.21875 C 283.63382,709.21285 359.49853,661.35466 363,660.1875 C 366.50146,659.02038 385.15625,664.875 385.15625,664.875 C 385.15626,664.87502 484.38444,743.05808 486.71875,753.5625 C 489.05307,764.06694 554.39092,836.42659 566.0625,837.59375 C 570.65075,838.05258 582.83207,830.38089 595.90625,820.5625 C 600.79779,829.8682 605.24337,840.81158 605.75,850.4375 C 606.91718,872.6135 583.57166,921.63089 636.09375,907.625 C 688.61583,893.61911 650.10613,855.11998 645.4375,842.28125 C 641.75853,832.16404 635.91467,811.16384 625.03125,796.4375 C 632.94798,789.17633 638.4375,783.33832 638.4375,781.59375 C 638.43752,775.75799 556.74057,676.5342 554.40625,669.53125 C 552.07195,662.52832 536.87795,641.53272 529.875,638.03125 C 522.87207,634.52978 461.03273,570.32635 457.53125,562.15625 C 455.9129,558.38007 452.46243,550.12238 449.3125,542.59375 C 448.45538,527.98699 447.6275,513.03333 449.34375,507.3125 C 452.84521,495.64092 462.18897,445.4543 458.6875,430.28125 C 458.05552,427.54269 457.09853,423.6923 455.90625,419.25 C 464.07161,382.50085 459.875,372.51732 459.875,362.5625 C 459.87501,350.89092 454.03125,325.22317 454.03125,314.71875 C 454.03126,304.21432 450.52034,259.85111 451.6875,242.34375 C 452.85464,224.8364 444.69841,172.33726 443.53125,163 C 442.3641,153.66274 451.6875,150.15625 451.6875,150.15625 C 451.68749,150.15625 448.18602,119.81397 451.6875,116.3125 C 455.18896,112.81103 443.53125,111.625 443.53125,111.625 L 435.34375,108.125 L 426,110.46875 C 426.00001,110.46875 428.35613,106.96875 423.6875,106.96875 C 419.01888,106.96875 412,111.625 412,111.625 C 412.00001,111.625 412.01013,106.49193 409.125,106.8125 z "
       id="path2222" />
  </g>
</svg>
