<?xml version="1.0" encoding="UTF-8" standalone="no"?>
<!-- Created with Inkscape (http://www.inkscape.org/) -->
<svg
   xmlns:dc="http://purl.org/dc/elements/1.1/"
   xmlns:cc="http://web.resource.org/cc/"
   xmlns:rdf="http://www.w3.org/1999/02/22-rdf-syntax-ns#"
   xmlns:svg="http://www.w3.org/2000/svg"
   xmlns="http://www.w3.org/2000/svg"
   xmlns:sodipodi="http://sodipodi.sourceforge.net/DTD/sodipodi-0.dtd"
   xmlns:inkscape="http://www.inkscape.org/namespaces/inkscape"
   width="744.09448"
   height="1052.3622"
   id="svg2"
   sodipodi:version="0.32"
   inkscape:version="0.45.1"
   version="1.0"
   sodipodi:docbase="C:\Users\ieb\Documents\Kung Food card game\outlines"
   sodipodi:docname="Haudoken.svg"
   inkscape:output_extension="org.inkscape.output.svg.inkscape">
  <defs
     id="defs4" />
  <sodipodi:namedview
     id="base"
     pagecolor="#ffffff"
     bordercolor="#666666"
     borderopacity="1.0"
     gridtolerance="10000"
     guidetolerance="10"
     objecttolerance="10"
     inkscape:pageopacity="0.0"
     inkscape:pageshadow="2"
     inkscape:zoom="0.35"
     inkscape:cx="648.93877"
     inkscape:cy="547.22705"
     inkscape:document-units="px"
     inkscape:current-layer="layer2"
     inkscape:window-width="1280"
     inkscape:window-height="974"
     inkscape:window-x="-8"
     inkscape:window-y="-8" />
  <metadata
     id="metadata7">
    <rdf:RDF>
      <cc:Work
         rdf:about="">
        <dc:format>image/svg+xml</dc:format>
        <dc:type
           rdf:resource="http://purl.org/dc/dcmitype/StillImage" />
      </cc:Work>
    </rdf:RDF>
  </metadata>
  <g
     inkscape:groupmode="layer"
     id="layer2"
     inkscape:label="outline">
    <path
       style="fill:#000000;fill-rule:evenodd;stroke-width:1px;stroke-linecap:butt;stroke-linejoin:miter;stroke-opacity:1"
       d="M 409.80983,290.13283 C 395.30363,290.41399 354.39227,294.09999 347.84851,294.91796 C 340.3699,295.85278 312.33104,311.75064 322.6141,322.03371 C 348.78918,336.99089 343.17439,313.63781 347.84851,311.76817 C 352.52262,309.89852 375.89909,312.69131 381.50803,316.4306 C 385.41324,319.03405 397.89868,331.61431 406.08806,342.48298 C 402.03539,342.6269 397.39622,342.82036 391.81446,342.60568 C 367.50903,341.67085 370.30182,376.25934 370.30182,381.8683 C 370.30182,387.47724 360.02461,402.41692 364.69872,405.22137 C 369.37284,408.02585 361.89426,424.86436 371.24249,426.73401 C 380.59073,428.60367 399.25799,422.98305 405.80177,424.85268 C 409.60603,425.93961 407.10096,434.6165 403.96133,442.97074 C 397.75066,445.76419 390.41805,448.39324 384.20733,451.31405 C 381.22613,451.32546 377.70629,451.85833 373.08292,452.90909 C 352.51678,457.5832 333.84952,471.58805 325.4361,469.7184 C 317.0227,467.84874 277.76007,455.70772 273.08595,451.96843 C 268.41184,448.22913 221.64725,435.14744 210.42936,426.73401 C 199.21146,418.32059 201.0928,409.90133 199.22315,406.16204 C 197.3535,402.42275 176.7932,386.53073 167.44497,399.61827 C 153.4226,418.31475 177.71051,435.14744 184.25428,433.27778 C 190.79805,431.40812 192.66186,435.13576 196.40115,437.94022 C 200.14044,440.74471 231.95369,476.29723 240.3671,481.90617 C 248.78053,487.51512 262.77951,494.99371 262.77951,494.99371 C 262.7795,494.99371 294.56353,519.29329 321.67343,520.22812 C 327.81567,520.43993 335.55926,520.7376 345.3946,521.08699 C 337.74055,528.02833 332.81155,534.65141 331.97987,537.97809 C 330.11024,545.45668 301.13651,657.6356 293.65792,668.85348 C 286.17934,680.0714 273.06257,690.34276 262.77951,693.14722 C 252.49644,695.95167 205.76692,713.7192 205.76692,720.26297 C 205.76692,726.8067 212.30485,730.53434 217.91379,731.46917 C 223.52275,732.40398 262.77367,721.18611 274.92638,724.9254 C 287.07909,728.66468 314.189,735.21432 320.73277,732.40984 C 327.27652,729.60535 316.99348,706.26397 320.73277,691.30679 C 324.47206,676.3496 376.82223,629.58501 379.62669,622.10643 C 380.00092,621.10849 380.43506,618.10178 380.85365,613.80402 C 385.86898,612.70497 391.20682,612.92763 396.4769,615.56266 C 398.61201,616.63021 401.45364,618.18815 404.65661,619.9388 C 395.07919,631.76202 352.11004,663.64392 343.18608,671.67548 C 333.83783,680.0889 336.63061,696.9099 341.30474,703.45366 C 345.97887,709.99743 462.84357,715.61222 474.06146,717.48187 C 485.27936,719.35151 482.49242,696.8865 483.42723,686.60345 C 483.73425,683.22616 487.29887,678.27335 492.13863,672.86154 C 496.23543,675.70348 499.19315,677.92657 500.23654,679.11902 C 506.78031,686.59759 514.26475,689.43714 514.26475,697.85056 C 514.26475,706.26397 499.29587,712.77268 499.29587,718.38163 C 499.29587,723.99056 531.09743,724.0081 534.83672,721.20363 C 538.57603,718.39912 535.75986,686.62098 539.49916,676.33792 C 543.23845,666.05488 553.52152,652.96148 546.04293,649.22217 C 538.56433,645.4829 525.48263,651.08598 520.80852,648.2815 C 520.58316,648.14628 520.00456,647.60959 519.25437,646.85006 C 520.17143,646.00604 521.17252,645.1364 521.74918,644.55974 C 528.29295,638.01597 550.70535,607.13754 550.70536,594.05002 C 550.70536,580.96248 539.51086,567.91 534.83672,560.4314 C 530.1626,552.95282 531.0682,537.0491 517.04585,519.28745 C 507.20013,506.81619 503.3374,493.3078 498.35521,474.46263 C 498.73624,469.67162 498.437,464.89237 497.41454,460.39353 C 492.7404,439.82738 473.13247,351.03078 468.45836,344.48701 C 463.78424,337.94324 420.77064,291.19036 414.22687,290.25553 C 413.4089,290.13867 411.88215,290.09266 409.80983,290.13283 z "
       id="path2447" />
  </g>
</svg>
