<?xml version="1.0" encoding="UTF-8" standalone="no"?>
<!-- Created with Inkscape (http://www.inkscape.org/) -->
<svg
   xmlns:dc="http://purl.org/dc/elements/1.1/"
   xmlns:cc="http://web.resource.org/cc/"
   xmlns:rdf="http://www.w3.org/1999/02/22-rdf-syntax-ns#"
   xmlns:svg="http://www.w3.org/2000/svg"
   xmlns="http://www.w3.org/2000/svg"
   xmlns:sodipodi="http://sodipodi.sourceforge.net/DTD/sodipodi-0.dtd"
   xmlns:inkscape="http://www.inkscape.org/namespaces/inkscape"
   width="744.09448"
   height="1052.3622"
   id="svg2"
   sodipodi:version="0.32"
   inkscape:version="0.45.1"
   version="1.0"
   sodipodi:docbase="C:\Users\ieb\Documents\Kung Food card game\outlines"
   sodipodi:docname="insane_flying_kick.svg"
   inkscape:output_extension="org.inkscape.output.svg.inkscape">
  <defs
     id="defs4" />
  <sodipodi:namedview
     id="base"
     pagecolor="#ffffff"
     bordercolor="#666666"
     borderopacity="1.0"
     gridtolerance="10000"
     guidetolerance="10"
     objecttolerance="10"
     inkscape:pageopacity="0.0"
     inkscape:pageshadow="2"
     inkscape:zoom="0.61141526"
     inkscape:cx="60.234539"
     inkscape:cy="467.79992"
     inkscape:document-units="px"
     inkscape:current-layer="layer2"
     inkscape:window-width="1280"
     inkscape:window-height="974"
     inkscape:window-x="-8"
     inkscape:window-y="-8" />
  <metadata
     id="metadata7">
    <rdf:RDF>
      <cc:Work
         rdf:about="">
        <dc:format>image/svg+xml</dc:format>
        <dc:type
           rdf:resource="http://purl.org/dc/dcmitype/StillImage" />
      </cc:Work>
    </rdf:RDF>
  </metadata>
  <g
     inkscape:groupmode="layer"
     id="layer2"
     inkscape:label="outline">
    <g
       id="g10069"
       style="fill:#000000">
      <path
         transform="translate(-13.131983,-41.416254)"
         d="M 281.83257 676.58545 A 46.972092 9.0913725 0 1 1  187.88838,676.58545 A 46.972092 9.0913725 0 1 1  281.83257 676.58545 z"
         sodipodi:ry="9.0913725"
         sodipodi:rx="46.972092"
         sodipodi:cy="676.58545"
         sodipodi:cx="234.86047"
         id="path2272"
         style="fill:#000000;fill-opacity:1;stroke:none;stroke-width:2.20000005;stroke-miterlimit:4;stroke-dasharray:none;stroke-opacity:1"
         sodipodi:type="arc" />
      <path
         id="path2274"
         d="M 415.1875,622.03125 C 401.15697,622.03125 388.69283,624.06366 380.75,627.1875 C 339.6336,627.78737 308.09375,631.11924 308.09375,635.15625 C 308.09375,639.19326 339.6336,642.55637 380.75,643.15625 C 388.69283,646.28009 401.15698,648.31252 415.1875,648.3125 C 432.37321,648.3125 447.20801,645.28764 454.25,640.90625 C 470.01981,639.44076 479.81251,637.40524 479.8125,635.15625 C 479.8125,632.90726 470.01981,630.90299 454.25,629.4375 C 447.20801,625.05611 432.37322,622.03123 415.1875,622.03125 z "
         style="fill:#000000;fill-opacity:1;stroke:none;stroke-width:2.20000005;stroke-miterlimit:4;stroke-dasharray:none;stroke-opacity:1" />
      <path
         id="path2278"
         d="M 235.65625,348 C 235.34479,348.07481 235.12691,348.47648 235,349.125 C 233.61048,348.82882 231.92098,348.51103 230.3125,348.28125 C 226.77697,347.77617 223.74922,350.79726 220.71875,352.3125 C 217.68829,353.82773 203.03474,359.40197 196.46875,362.9375 C 189.90276,366.47303 180.81679,374.53712 177.28125,377.0625 C 173.74572,379.58788 158.09375,408.90624 158.09375,408.90625 C 158.07007,408.91809 158.06969,408.94078 158.09375,408.96875 C 158.06306,408.96486 157.59375,408.90625 157.59375,408.90625 C 157.59375,408.90624 153.55314,427.58439 157.59375,431.625 C 161.63436,435.66561 215.65197,462.44417 219.1875,468 C 222.72305,473.55585 222.22033,476.07424 228.28125,481.125 C 234.34216,486.17577 259.09375,499.81837 259.09375,502.34375 C 259.09375,504.86914 262.125,519.5 262.125,519.5 L 269.21875,519 L 272.25,521.53125 C 272.25,521.53123 312.65545,513.45781 309.625,511.4375 C 306.59454,509.41721 301.53125,509.90625 301.53125,509.90625 C 301.53126,509.90624 302.53554,503.33867 299,503.84375 C 295.46446,504.34881 278.81678,500.32186 275.28125,496.28125 C 271.74571,492.24063 248.5,460.90625 248.5,460.90625 C 248.5,460.90624 245.97382,452.82773 245.46875,451.3125 C 244.96367,449.79728 209.59216,417.98905 203.53125,415.96875 C 206.41896,407.30563 236.06018,386.49477 238.875,384.53125 L 241.4375,389.1875 L 248.5,389.1875 L 246.96875,385.65625 L 252.53125,388.6875 C 252.53124,388.6875 251.51681,384.13515 256.0625,383.125 C 260.60819,382.11486 266.1875,380.625 266.1875,380.625 L 266.125,379.53125 C 277.79553,379.86141 289.36559,380.06137 291.9375,379.59375 C 297.49334,378.58359 308.60041,375.05742 314.15625,375.5625 C 319.71209,376.06758 325.78125,379.10898 325.78125,377.59375 L 328.8125,372.53125 L 334.875,372.53125 L 331.84375,363.9375 L 322.75,362.4375 L 316.1875,369 C 316.18749,369 287.38515,362.42148 286.375,360.90625 C 285.88165,360.16623 275.37953,358.8198 264.125,356.875 C 263.3449,354.81314 261.43398,351.78055 256.59375,350.8125 C 252.72978,350.0397 250.18348,351.65156 247.875,353.53125 C 242.55882,352.13641 238.36098,350.53741 236.875,348.78125 C 236.35414,348.16569 235.96334,347.92624 235.65625,348 z "
         style="fill:#000000;fill-rule:evenodd;stroke:none;stroke-width:1px;stroke-linecap:butt;stroke-linejoin:miter;stroke-opacity:1" />
      <g
         id="g10062"
         style="fill:#000000">
        <path
           style="fill:#000000;fill-rule:evenodd;stroke:none;stroke-width:1px;stroke-linecap:butt;stroke-linejoin:miter;stroke-opacity:1"
           d="M 271.73103,434.14882 C 271.73103,434.14882 275.77165,403.33917 280.82241,403.84425 C 285.87317,404.34932 285.36809,416.47115 285.36809,416.47115 C 285.36809,416.47115 289.91378,421.01684 294.45947,422.53207 C 299.00515,424.0473 318.19805,416.97623 327.7945,417.48131 C 337.39095,417.98638 343.45187,421.01684 347.99755,421.01684 C 352.54324,421.01684 366.1803,415.96608 381.83766,413.4407 C 397.49503,410.91532 441.43666,412.93562 441.43666,412.93562 L 420.72854,436.16913 C 420.72854,436.16913 388.90873,435.66405 382.84781,436.16913 C 376.7869,436.67421 352.03816,431.62344 345.97725,432.12852 C 339.91633,432.6336 329.30973,435.66405 323.75389,435.66405 C 318.19805,435.66405 303.04576,431.11837 296.47977,431.62344 C 289.91378,432.12852 286.88332,436.16913 286.88332,436.16913 L 271.73103,434.14882 z "
           id="path6166" />
        <path
           style="fill:#000000;fill-rule:evenodd;stroke:none;stroke-width:1px;stroke-linecap:butt;stroke-linejoin:miter;stroke-opacity:1"
           d="M 415.67777,448.29096 L 419.71838,463.94832 C 419.71838,463.94832 426.78945,463.94832 428.30468,461.42294 C 429.81991,458.89756 433.35544,454.35188 437.90113,453.8468 C 442.44682,453.34172 470.73109,452.83665 477.29708,450.81634 C 483.86307,448.79604 498.51028,440.20974 498.51028,437.68436 C 498.51028,435.15898 496.08771,422.73084 492.95444,421.01684 C 480.42339,414.16195 457.31053,415.60512 457.31053,415.60512 C 457.31053,415.60512 440.93159,448.29096 435.88082,448.29096 C 430.83006,448.29096 424.26407,445.76558 421.73869,446.27066 C 419.21331,446.77573 415.1727,448.29096 415.67777,448.29096 z "
           id="path7137"
           sodipodi:nodetypes="ccssssscssc" />
        <path
           style="fill:#000000;fill-rule:evenodd;stroke:none;stroke-width:1px;stroke-linecap:butt;stroke-linejoin:miter;stroke-opacity:1"
           d="M 417.193,434.6539 L 442.95189,446.27066 L 460.12448,423.03715 C 460.12448,423.03715 457.09403,364.95338 456.08387,358.38738 C 455.07372,351.82139 453.55849,344.75032 450.52804,343.2351 C 447.49758,341.71987 435.37575,343.2351 433.86052,345.2554 C 432.34529,347.27571 422.24376,350.30616 419.21331,349.29601 C 416.18285,348.28586 396.48487,368.99399 396.48487,368.99399 C 396.48487,368.99399 391.43411,370.50921 390.42396,374.04475 C 389.41381,377.58028 381.33259,399.29856 380.32243,401.82394 C 379.31228,404.34932 368.2006,425.05745 366.1803,427.07776 C 364.15999,429.09806 360.11938,441.21989 360.11938,441.21989 L 356.58385,452.83665 C 356.58385,452.83665 354.05847,458.39249 356.07877,460.41279 C 358.09908,462.4331 363.65492,464.4534 363.65492,464.4534 L 365.17015,455.8671 C 365.17015,455.8671 363.65492,444.25035 365.17015,441.72497 C 366.68537,439.19959 378.8072,426.57268 381.33259,424.0473 C 383.85797,421.52192 388.40365,407.88486 391.43411,405.35948 C 394.46457,402.8341 405.07117,394.2478 405.07117,394.2478 L 411.13209,399.80364 C 411.13209,399.80364 403.05087,408.89501 403.55594,412.93562 C 404.06102,416.97623 417.193,435.15898 417.193,434.6539 z "
           id="path8108" />
        <path
           style="fill:#000000;fill-rule:evenodd;stroke:#000000;stroke-width:1px;stroke-linecap:butt;stroke-linejoin:miter;stroke-opacity:1"
           d="M 396.48487,366.97368 L 396.48487,366.97368 z "
           id="path9079" />
        <path
           style="fill:#000000;fill-rule:evenodd;stroke:none;stroke-width:1px;stroke-linecap:butt;stroke-linejoin:miter;stroke-opacity:1"
           d="M 393.95949,363.94322 L 387.89858,362.93307 C 387.89858,362.93307 390.92904,358.89246 387.3935,357.37723 C 383.85797,355.862 379.81736,346.26555 379.81736,346.26555 C 379.81736,346.26555 380.32243,329.59804 396.98995,331.11326 C 413.65747,332.62849 417.69808,353.8417 417.69808,353.8417 L 399.01026,371.51937 L 393.95949,363.94322 z "
           id="path9081" />
      </g>
    </g>
  </g>
</svg>
