<?xml version="1.0" encoding="UTF-8" standalone="no"?>
<!-- Created with Inkscape (http://www.inkscape.org/) -->
<svg
   xmlns:dc="http://purl.org/dc/elements/1.1/"
   xmlns:cc="http://web.resource.org/cc/"
   xmlns:rdf="http://www.w3.org/1999/02/22-rdf-syntax-ns#"
   xmlns:svg="http://www.w3.org/2000/svg"
   xmlns="http://www.w3.org/2000/svg"
   xmlns:sodipodi="http://sodipodi.sourceforge.net/DTD/sodipodi-0.dtd"
   xmlns:inkscape="http://www.inkscape.org/namespaces/inkscape"
   width="744.09448"
   height="1052.3622"
   id="svg2"
   sodipodi:version="0.32"
   inkscape:version="0.45.1"
   version="1.0"
   sodipodi:docbase="C:\Users\ieb\Documents\Kung Food card game\outlines"
   sodipodi:docname="iron_palm.svg"
   inkscape:output_extension="org.inkscape.output.svg.inkscape">
  <defs
     id="defs4" />
  <sodipodi:namedview
     id="base"
     pagecolor="#ffffff"
     bordercolor="#666666"
     borderopacity="1.0"
     gridtolerance="10000"
     guidetolerance="10"
     objecttolerance="10"
     inkscape:pageopacity="0.0"
     inkscape:pageshadow="2"
     inkscape:zoom="0.7"
     inkscape:cx="629.86322"
     inkscape:cy="459.3746"
     inkscape:document-units="px"
     inkscape:current-layer="layer2"
     inkscape:window-width="1280"
     inkscape:window-height="974"
     inkscape:window-x="-8"
     inkscape:window-y="-8" />
  <metadata
     id="metadata7">
    <rdf:RDF>
      <cc:Work
         rdf:about="">
        <dc:format>image/svg+xml</dc:format>
        <dc:type
           rdf:resource="http://purl.org/dc/dcmitype/StillImage" />
      </cc:Work>
    </rdf:RDF>
  </metadata>
  <g
     inkscape:groupmode="layer"
     id="layer2"
     inkscape:label="outline">
    <path
       style="fill:#000000;fill-rule:evenodd;stroke-width:1px;stroke-linecap:butt;stroke-linejoin:miter;stroke-opacity:1"
       d="M 571.57149,213.61641 C 567.67371,213.86254 541.96353,232.75945 537.1778,235.94997 C 532.07298,239.35318 508.27394,258.11211 499.73186,263.1597 C 481.0142,274.22013 447.32108,280.98219 439.31957,286.12604 C 427.40833,293.78326 391.69059,292.11357 382.33176,291.26276 C 372.97292,290.41197 349.99596,292.10292 339.78632,295.50614 C 331.18785,298.37229 327.38936,315.73814 315.74052,336.89768 C 315.02345,336.05764 300.60191,319.15592 299.77202,312.51687 C 298.92121,305.71045 281.07564,279.32494 261.50718,281.02655 C 241.93872,282.72816 229.18732,287.82765 221.5301,298.03728 C 199.40925,329.51695 220.67398,358.44956 220.67398,358.44956 C 220.67398,358.44958 228.30462,361.00198 228.30462,370.3608 C 228.30461,379.71965 233.43603,387.39812 238.54083,385.69651 C 243.64567,383.99491 252.98321,399.30404 258.93882,396.75163 C 264.89443,394.1992 269.15378,383.12284 277.66179,382.27203 C 283.68648,381.66957 293.88836,385.74699 300.59092,388.48821 C 291.66912,397.57148 278.4701,412.71321 272.93452,419.60631 C 266.31559,427.84844 255.27414,452.57018 250.86152,456.23335 C 246.44888,459.89653 228.79986,473.64527 223.65179,480.05582 C 218.50373,486.4664 171.43081,536.82029 165.54731,536.82029 C 159.6638,536.82029 138.33874,527.6854 135.397,531.34857 C 132.45523,535.01176 112.59756,545.08312 114.06844,549.66209 C 115.53933,554.24109 133.94531,545.97705 133.94531,545.97705 C 133.94531,545.97705 94.218614,595.46007 96.424932,600.95484 C 97.740016,604.23001 107.90461,594.17308 115.92957,585.50746 C 121.26374,579.29225 125.86801,574.37789 125.86801,574.3779 C 125.86801,574.3779 121.3681,579.63475 115.92957,585.50746 C 107.40164,595.44393 96.942892,608.75137 100.10997,611.00494 C 102.80955,612.92586 112.38242,604.30013 120.88018,595.63201 C 127.76273,587.68302 135.397,579.88683 135.397,579.88684 C 135.397,579.88684 128.58757,587.7701 120.88018,595.63201 C 114.6297,602.85099 109.02055,610.19207 110.42063,611.93551 C 113.36237,615.59866 137.63035,589.04361 137.63035,589.04361 C 137.63035,589.04358 120.70192,610.99726 124.3791,612.82885 C 128.05629,614.66039 149.55313,586.4191 153.96576,584.58753 C 158.37839,582.75597 175.85797,571.64645 175.85797,566.1517 C 175.85797,560.65693 183.19867,555.15624 186.87586,554.24047 C 190.55305,553.32471 249.38831,526.77846 256.74269,520.3679 C 264.09708,513.95739 271.45347,499.28511 275.13066,498.36934 C 278.53973,497.52035 322.61658,451.46501 334.94738,438.85039 C 354.85777,452.1001 376.85551,455.93105 382.33176,461.40729 C 385.34226,464.4178 387.83724,469.60018 389.70184,474.4352 C 382.08228,477.97996 375.06246,481.07439 370.42053,483.51752 C 354.25528,492.02555 306.59971,529.46613 303.1965,537.97419 C 299.79328,546.48222 304.8981,559.26552 297.24088,571.17675 C 289.58365,583.08799 240.21584,691.13459 240.21585,695.38859 C 240.21585,697.49289 247.73132,701.24418 255.92379,704.6198 C 253.90265,708.01048 252.00646,710.84494 250.45207,712.39932 C 243.64567,719.20577 228.32057,743.03352 224.91736,748.98914 C 221.51416,754.94477 213.86757,772.80097 208.76275,777.05499 C 203.65794,781.30895 176.42162,788.97154 183.22804,795.77796 C 190.03447,802.5844 207.0452,801.72294 218.10562,800.02133 C 229.16606,798.31969 235.97248,795.78859 241.92809,791.53458 C 247.88371,787.28056 252.97789,769.39775 258.0827,765.14375 C 263.18751,760.8897 283.63336,753.24315 286.18577,748.98914 C 288.73819,744.73514 281.91048,727.69249 282.76129,720.88607 C 282.93523,719.4945 284.19203,716.97575 285.99966,713.88822 C 298.47521,716.93067 317.43633,721.43675 316.81997,718.35494 C 315.96917,714.10092 326.16285,696.24471 326.16285,690.28909 C 326.16285,687.29549 342.0526,659.55635 358.95596,631.21682 C 368.83626,643.92756 386.81397,667.68552 387.43126,673.24114 C 387.96532,678.04763 398.89488,681.83313 410.32316,683.36569 C 410.627,686.18098 410.27772,688.69674 408.68536,690.28909 C 402.72975,696.24471 384.02273,705.58758 380.61952,705.58758 C 377.2163,705.58755 354.23933,710.70835 361.89655,714.11156 C 369.55377,717.51478 383.16129,720.06718 390.81851,720.06718 C 398.47575,720.06718 418.91626,714.93046 424.02108,714.93046 C 429.1259,714.93044 451.21485,717.50945 454.61806,713.25544 C 458.02127,709.00144 458.88271,697.93035 456.3303,693.67635 C 454.62934,690.84137 447.27607,686.10581 442.29738,680.49955 C 447.13142,679.06763 450.07885,677.46346 452.08692,674.95338 C 455.49013,670.69933 440.15443,629.87149 436.75121,623.06507 C 433.73351,617.0297 405.9856,588.92951 394.98745,572.55399 C 396.09255,570.85918 397.02845,569.45091 397.63025,568.60839 C 406.13828,556.69716 472.49555,527.78583 480.15277,523.53182 C 487.81,519.27781 510.77101,491.18536 502.26299,449.49606 C 497.78598,427.55867 487.441,417.18588 474.15993,412.75735 C 465.37539,405.4626 456.62808,398.57553 447.84355,394.18327 C 434.23072,387.37687 423.15432,364.41049 415.4971,359.30568 C 413.58964,358.03404 409.82508,355.78873 405.26088,353.08951 C 411.39238,345.70611 423.77793,341.2822 429.12057,338.9077 C 436.77779,335.50449 461.45639,315.91476 471.66601,311.66075 C 481.87564,307.40674 509.09602,289.55051 518.45483,289.55052 C 527.81365,289.55052 549.0837,296.36758 554.18853,297.21838 C 559.29335,298.06919 570.33253,296.35162 574.58652,294.65002 C 578.84053,292.94842 574.59715,286.13668 570.34314,287.83828 C 566.08913,289.53989 554.17258,285.28057 551.62017,281.02655 C 549.06777,276.77253 596.73394,241.91622 596.73397,237.66221 C 596.73397,233.4082 567.7748,256.34795 567.77478,256.34796 C 567.77478,256.34796 598.43555,230.82388 596.73397,226.56987 C 595.03236,222.31586 564.38752,244.43671 564.38752,244.43672 C 564.38752,244.43672 587.35387,222.34777 587.35387,219.79536 C 587.35387,217.24295 553.33241,235.09384 553.33241,235.09385 C 553.33241,235.09385 572.90616,216.39215 572.05538,213.83974 C 572.00221,213.68022 571.83134,213.59999 571.57149,213.61641 z "
       id="path2387"
       sodipodi:nodetypes="cssssscssccsssscsssssscscccscccscsssssscscsssscssssssssscsscscssssssscsscssscsscsssssssscscscsc" />
  </g>
</svg>
