<?xml version="1.0" encoding="UTF-8" standalone="no"?>
<!-- Created with Inkscape (http://www.inkscape.org/) -->
<svg
   xmlns:dc="http://purl.org/dc/elements/1.1/"
   xmlns:cc="http://web.resource.org/cc/"
   xmlns:rdf="http://www.w3.org/1999/02/22-rdf-syntax-ns#"
   xmlns:svg="http://www.w3.org/2000/svg"
   xmlns="http://www.w3.org/2000/svg"
   xmlns:sodipodi="http://sodipodi.sourceforge.net/DTD/sodipodi-0.dtd"
   xmlns:inkscape="http://www.inkscape.org/namespaces/inkscape"
   width="744.09448"
   height="1052.3622"
   id="svg2"
   sodipodi:version="0.32"
   inkscape:version="0.45.1"
   version="1.0"
   sodipodi:docbase="C:\Users\ieb\Documents\Kung Food card game\outlines"
   sodipodi:docname="kamikaze_headbutt.svg"
   inkscape:output_extension="org.inkscape.output.svg.inkscape">
  <defs
     id="defs4" />
  <sodipodi:namedview
     id="base"
     pagecolor="#ffffff"
     bordercolor="#666666"
     borderopacity="1.0"
     gridtolerance="10000"
     guidetolerance="10"
     objecttolerance="10"
     inkscape:pageopacity="0.0"
     inkscape:pageshadow="2"
     inkscape:zoom="0.98994949"
     inkscape:cx="528.40679"
     inkscape:cy="453.4327"
     inkscape:document-units="px"
     inkscape:current-layer="layer2"
     inkscape:window-width="1280"
     inkscape:window-height="974"
     inkscape:window-x="-8"
     inkscape:window-y="-8" />
  <metadata
     id="metadata7">
    <rdf:RDF>
      <cc:Work
         rdf:about="">
        <dc:format>image/svg+xml</dc:format>
        <dc:type
           rdf:resource="http://purl.org/dc/dcmitype/StillImage" />
      </cc:Work>
    </rdf:RDF>
  </metadata>
  <g
     inkscape:groupmode="layer"
     id="layer2"
     inkscape:label="outline">
    <path
       style="fill:#000000;fill-rule:evenodd;stroke-width:1px;stroke-linecap:butt;stroke-linejoin:miter;stroke-opacity:1"
       d="M 360.96875,412.78125 C 353.81482,412.87793 341.4375,415.96875 341.4375,415.96875 C 341.43751,415.96874 350.51253,433.12579 358.59375,436.15625 C 366.67496,439.18671 386.89688,441.20939 390.9375,445.25 C 392.88923,447.20173 398.61133,455.31734 405.03125,463.71875 C 391.23682,458.15862 377.0593,453.16461 366.6875,451.3125 C 338.40324,446.26175 284.8601,446.27031 267.6875,444.25 C 250.5149,442.22971 226.26634,444.25857 209.09375,437.1875 C 191.92115,430.11642 195.98128,450.3125 204.0625,450.3125 C 212.14372,450.31249 225.25936,451.33439 221.21875,455.375 C 217.17815,459.41561 217.1875,462.4375 217.1875,462.4375 C 217.1875,462.43749 234.36722,457.38594 244.46875,459.40625 C 254.57027,461.42654 263.65942,455.36485 275.78125,456.375 C 287.90309,457.38514 323.26173,465.45939 328.3125,469.5 C 333.36325,473.54062 357.59771,494.7711 372.75,495.78125 C 375.73994,495.98058 379.64295,496.49079 383.96875,497.1875 C 370.45798,505.67565 357.14523,516.88075 349.5,528.09375 C 337.88032,545.13595 347.06051,572.80652 351.96875,584.8125 C 329.7621,601.20292 338.61406,609.41969 304.0625,632.125 C 268.70717,655.3585 245.46637,680.63753 236.375,688.71875 C 227.28362,696.79996 212.11866,726.07503 187.875,734.15625 C 163.63134,742.23748 136.38119,763.45082 120.21875,774.5625 C 104.05631,785.67416 88.90625,824.0625 88.90625,824.0625 C 88.906249,824.06252 135.34692,799.83122 147.46875,791.75 C 159.59058,783.66875 163.63911,772.53982 177.78125,765.46875 C 191.92338,758.39766 253.55631,742.25777 269.71875,732.15625 C 285.8812,722.05469 354.56408,682.6453 360.625,680.625 C 366.12323,678.79227 403.28982,648.35001 410.4375,642.46875 C 419.06578,638.14785 443.61401,628.09417 472.75,636.1875 C 509.11548,646.28904 483.87342,644.26173 477.8125,649.3125 C 471.75159,654.36324 453.54997,678.59454 445.46875,681.625 C 437.38754,684.65543 415.1875,677.59375 415.1875,677.59375 C 415.1875,677.59376 404.04997,703.85628 395.96875,711.9375 C 387.88753,720.0187 367.6875,733.14689 367.6875,737.1875 C 367.6875,741.22812 385.86564,738.2078 389.90625,736.1875 C 393.94686,734.16718 442.46176,698.81171 455.59375,695.78125 C 468.72573,692.75081 532.3485,672.55933 550.53125,660.4375 C 568.71399,648.31569 583.875,636.1875 583.875,636.1875 C 583.87501,636.18751 561.65452,601.82028 515.1875,591.71875 C 486.99066,585.58901 472.18741,580.60621 457.90625,578.0625 C 450.80424,570.54189 442.04761,559.43219 446.5,554.34375 C 453.57106,546.26253 463.67275,554.36327 486.90625,549.3125 C 499.55816,546.56208 503.22311,538.1191 503.9375,531 C 521.69027,534.76094 551.12449,544.37745 558.625,539.21875 C 566.88933,533.53474 564.68748,520.00001 564.6875,520 L 572.75,511.9375 L 562.65625,500.8125 C 562.65625,500.8125 565.69764,489.70623 564.6875,481.625 C 563.67735,473.54378 550.52569,460.42735 529.3125,461.4375 C 508.0993,462.44766 505.06251,484.65782 505.0625,490.71875 C 505.0625,494.16512 498.23005,498.26062 492.3125,501.15625 C 488.73005,495.62538 485.09068,490.55994 482.84375,488.6875 C 481.99143,487.97724 480.45682,487.34041 478.40625,486.75 C 464.44236,473.87553 431.1967,443.80809 423.25,442.21875 C 413.14848,440.19845 396.98826,439.18671 391.9375,436.15625 C 386.88674,433.12579 369.71716,413.94765 363.65625,412.9375 C 362.89864,412.81123 361.99074,412.76744 360.96875,412.78125 z "
       id="path2387" />
  </g>
</svg>
