<?xml version="1.0" encoding="UTF-8" standalone="no"?>
<!-- Created with Inkscape (http://www.inkscape.org/) -->
<svg
   xmlns:dc="http://purl.org/dc/elements/1.1/"
   xmlns:cc="http://web.resource.org/cc/"
   xmlns:rdf="http://www.w3.org/1999/02/22-rdf-syntax-ns#"
   xmlns:svg="http://www.w3.org/2000/svg"
   xmlns="http://www.w3.org/2000/svg"
   xmlns:sodipodi="http://sodipodi.sourceforge.net/DTD/sodipodi-0.dtd"
   xmlns:inkscape="http://www.inkscape.org/namespaces/inkscape"
   width="744.09448"
   height="1052.3622"
   id="svg2"
   sodipodi:version="0.32"
   inkscape:version="0.45.1"
   version="1.0"
   sodipodi:docbase="C:\Users\ieb\Documents\Kung Food card game\outlines"
   sodipodi:docname="kick_in_the_teeth.svg"
   inkscape:output_extension="org.inkscape.output.svg.inkscape">
  <defs
     id="defs4" />
  <sodipodi:namedview
     id="base"
     pagecolor="#ffffff"
     bordercolor="#666666"
     borderopacity="1.0"
     gridtolerance="10000"
     guidetolerance="10"
     objecttolerance="10"
     inkscape:pageopacity="0.0"
     inkscape:pageshadow="2"
     inkscape:zoom="0.7"
     inkscape:cx="248.42829"
     inkscape:cy="596.15224"
     inkscape:document-units="px"
     inkscape:current-layer="layer2"
     inkscape:window-width="1280"
     inkscape:window-height="974"
     inkscape:window-x="-8"
     inkscape:window-y="-8" />
  <metadata
     id="metadata7">
    <rdf:RDF>
      <cc:Work
         rdf:about="">
        <dc:format>image/svg+xml</dc:format>
        <dc:type
           rdf:resource="http://purl.org/dc/dcmitype/StillImage" />
      </cc:Work>
    </rdf:RDF>
  </metadata>
  <g
     inkscape:groupmode="layer"
     id="layer2"
     inkscape:label="outline">
    <path
       style="fill:#000000;fill-rule:evenodd;stroke-width:1px;stroke-linecap:butt;stroke-linejoin:miter;stroke-opacity:1"
       d="M 502.71875,250.25 C 491.81613,250.12444 476.6875,251.46429 473.5625,259.5 C 468.56249,272.35715 467.86607,288.79911 471.4375,291.65625 C 475.00894,294.5134 465,309.5 465,309.5 L 470.0625,315.84375 C 462.33505,317.9052 452.72627,320.96414 443.5625,325.21875 C 423.5625,334.50447 387.14286,338.08929 370,347.375 C 356.75552,354.5491 331.25798,367.57364 317.96875,374.34375 C 309.2441,369.02552 291.20953,358.44089 284.28125,357.375 C 274.99554,355.94643 237.12947,325.9375 227.84375,320.9375 C 218.55803,315.93749 217.87053,305.20535 202.15625,308.0625 C 186.44197,310.91963 170.72768,323.08482 167.15625,321.65625 C 165.66622,321.06024 162.92985,318.57228 160.25,315.90625 C 173.48004,314.96977 167.14311,296.59697 168.5625,289.5 C 169.99107,282.35714 153.58036,255.20981 146.4375,253.78125 C 139.29464,252.35268 125.7009,251.64286 112.84375,264.5 C 85.700896,287.35714 110.01339,333.80357 117.15625,332.375 C 122.0319,331.39987 128.81593,334.04054 132.6875,335.84375 C 132.34797,338.95907 130.22159,344.30966 122.15625,352.375 C 107.87053,366.66072 102.84375,372.36161 102.84375,380.21875 C 102.84375,380.46429 102.89376,380.73936 102.9375,381.03125 C 100.03575,390.94256 95.972282,408.0057 96.4375,425.21875 C 97.151783,451.64732 97.866073,468.06697 101.4375,473.78125 C 105.00893,479.49555 115.71429,489.51339 135,491.65625 C 154.28571,493.79911 169.2991,490.22321 177.15625,490.9375 C 185.0134,491.65178 192.12947,500.94196 202.84375,501.65625 C 213.55803,502.37054 216.41518,502.34821 217.84375,493.0625 C 219.27231,483.77677 213.57589,474.5 205.71875,474.5 C 197.8616,474.5 194.28125,477.37053 184.28125,476.65625 C 174.28125,475.94197 142.84821,464.49107 138.5625,463.0625 C 134.27678,461.63392 129.28125,460.21875 129.28125,460.21875 C 129.28125,460.21874 140.47486,443.73714 142.53125,428.9375 C 144.06854,429.9378 145.62306,430.85315 147.15625,431.65625 C 162.15626,439.5134 174.10586,434.69691 188.5625,445.21875 C 196.20611,450.78192 200.69428,454.60014 203.34375,457.21875 C 200.34922,464.92887 213.24238,475.41081 230.3125,485.4375 C 231.91881,501.1111 234.21689,534.1307 227.84375,553.78125 C 219.27232,580.20982 226.41964,614.49997 228.5625,619.5 C 230.70536,624.5 255.71875,710.93752 255.71875,710.9375 C 255.71875,710.9375 278.89266,712.36568 294.99107,711.63393 C 310.70535,710.91964 336.42859,718.07592 333.57143,710.93304 C 327.55712,695.89731 291.41517,620.94643 287.84375,612.375 C 284.27232,603.80357 290,591.64283 295,569.5 C 299.51718,549.49536 299.35173,513.04235 299.28125,505.875 C 302.39648,494.66498 307.56144,477.82972 312.15625,470.9375 C 319.2991,460.22321 350.70983,438.78571 369.28125,429.5 C 387.85268,420.21428 412.85714,403.06698 430,388.78125 C 439.34045,380.99754 458.91168,369.29669 474.9375,360.15625 C 473.59295,363.55765 472.35333,367.6127 471.4375,372.375 C 467.86608,390.94643 464.29464,403.78125 461.4375,413.78125 C 458.58037,423.78126 464.27678,475.21875 458.5625,485.21875 C 452.8482,495.21874 444.99554,526.6384 439.28125,533.78125 C 433.56697,540.92409 426.43303,547.35714 425.71875,554.5 C 425.00446,561.64283 424.29464,566.65179 426.4375,570.9375 C 428.58037,575.22323 442.86607,590.20982 446.4375,588.78125 C 450.00894,587.35266 447.84375,585.21875 447.84375,585.21875 L 452.84375,585.9375 C 452.84374,585.93752 441.42857,574.50447 445,570.21875 C 448.57143,565.93306 455.00446,558.78571 455.71875,554.5 C 456.43303,550.21425 455.00446,545.23214 455.71875,542.375 C 456.43303,539.51786 475.7009,527.35268 477.84375,523.78125 C 479.9866,520.2098 509.2991,529.49554 507.15625,548.78125 C 506.96245,550.52543 507.75059,552.01679 509.3125,553.28125 C 506.43928,568.62682 494.91934,627.66234 485,643.78125 C 473.57143,662.35266 469.27678,703.08929 473.5625,712.375 C 477.8482,721.66072 599.28125,719.5 599.28125,719.5 C 599.28125,719.49997 610.70536,661.64732 608.5625,640.21875 C 606.46631,619.25665 637.84158,621.47879 621.15625,546.03125 C 621.3025,545.75754 621.42037,545.49288 621.4375,545.21875 C 622.15177,533.7902 607.84822,393.77678 593.5625,363.0625 C 590.03736,355.48341 569.94265,342.66755 558.84375,336 L 559.28125,335.9375 C 559.28125,335.93749 540.72321,323.79911 546.4375,316.65625 C 552.15176,309.5134 553.5625,271.64286 548.5625,264.5 C 543.56252,257.35715 522.85268,250.9375 514.28125,250.9375 C 514.28125,250.9375 509.26032,250.32533 502.71875,250.25 z "
       id="path2642"
       sodipodi:nodetypes="cssccsscsssscsscscsscsssssssssccssccsscsssscssscsssssssccssssscsscscssccsscc" />
  </g>
</svg>
