<?xml version="1.0" encoding="UTF-8" standalone="no"?>
<!-- Created with Inkscape (http://www.inkscape.org/) -->
<svg
   xmlns:dc="http://purl.org/dc/elements/1.1/"
   xmlns:cc="http://web.resource.org/cc/"
   xmlns:rdf="http://www.w3.org/1999/02/22-rdf-syntax-ns#"
   xmlns:svg="http://www.w3.org/2000/svg"
   xmlns="http://www.w3.org/2000/svg"
   xmlns:sodipodi="http://sodipodi.sourceforge.net/DTD/sodipodi-0.dtd"
   xmlns:inkscape="http://www.inkscape.org/namespaces/inkscape"
   width="744.09448"
   height="1052.3622"
   id="svg2"
   sodipodi:version="0.32"
   inkscape:version="0.45.1"
   version="1.0"
   sodipodi:docbase="C:\Users\ieb\Documents\Kung Food card game\outlines"
   sodipodi:docname="knee_int_kidneys.svg"
   inkscape:output_extension="org.inkscape.output.svg.inkscape">
  <defs
     id="defs4" />
  <sodipodi:namedview
     id="base"
     pagecolor="#ffffff"
     bordercolor="#666666"
     borderopacity="1.0"
     gridtolerance="10000"
     guidetolerance="10"
     objecttolerance="10"
     inkscape:pageopacity="0.0"
     inkscape:pageshadow="2"
     inkscape:zoom="0.49497475"
     inkscape:cx="390.15315"
     inkscape:cy="485.48609"
     inkscape:document-units="px"
     inkscape:current-layer="layer2"
     inkscape:window-width="1280"
     inkscape:window-height="974"
     inkscape:window-x="-8"
     inkscape:window-y="-8" />
  <metadata
     id="metadata7">
    <rdf:RDF>
      <cc:Work
         rdf:about="">
        <dc:format>image/svg+xml</dc:format>
        <dc:type
           rdf:resource="http://purl.org/dc/dcmitype/StillImage" />
      </cc:Work>
    </rdf:RDF>
  </metadata>
  <g
     inkscape:groupmode="layer"
     id="layer2"
     inkscape:label="outline">
    <path
       style="fill:#000000;fill-rule:evenodd;stroke-width:1px;stroke-linecap:butt;stroke-linejoin:miter;stroke-opacity:1"
       d="M 130.28125 222.03125 C 130.28125 222.03126 120.1875 236.16799 120.1875 241.21875 C 120.1875 246.26951 127.26174 265.4586 132.3125 266.46875 C 137.36326 267.4789 146.44146 271.51333 161.59375 282.625 C 171.52129 289.90519 178.39606 290.2546 181.96875 289.625 C 182.55929 290.10935 183.16967 290.47322 183.8125 290.6875 C 192.90387 293.71796 258.57503 347.24063 266.65625 351.28125 C 274.73747 355.32186 298.99224 361.40706 309.09375 364.4375 C 319.19528 367.46796 341.40626 392.71874 341.40625 392.71875 C 341.40625 392.71875 339.37578 370.47652 342.40625 360.375 C 345.43671 350.27348 365.65626 335.12499 365.65625 335.125 C 365.65625 335.125 326.24762 332.09295 317.15625 329.0625 C 308.06488 326.03204 286.85151 310.90386 276.75 301.8125 C 266.64848 292.72112 218.16481 279.58281 211.09375 277.5625 C 204.02268 275.54219 182.81092 261.40546 176.75 258.375 C 176.40907 258.20454 176.12165 258.14574 175.84375 258.1875 C 172.55661 255.6783 168.38379 251.70507 165.65625 246.25 C 160.60549 236.14848 158.57186 225.0414 154.53125 224.03125 C 150.49063 223.0211 130.28125 222.03125 130.28125 222.03125 z M 227.5625 265.125 C 220.21522 265.31835 207.09375 271.49999 207.09375 271.5 L 233.34375 281.625 C 233.34375 281.625 236.37343 267.48906 230.3125 265.46875 C 229.55489 265.21621 228.61211 265.09738 227.5625 265.125 z M 144.46875 280.0625 C 136.49802 280.32885 125.76364 282.63675 118.1875 287.6875 C 106.06567 295.76872 103.02031 305.86723 101 315.96875 C 102.01016 316.9789 95.967956 349.28362 92.9375 358.375 C 89.907043 367.46638 106.06171 393.73524 103.03125 416.96875 C 100.00079 440.20226 117.17814 488.71098 121.21875 498.8125 C 125.25936 508.91402 173.73129 516.98286 181.8125 531.125 C 189.89372 545.26713 192.93751 575.56249 192.9375 575.5625 C 192.9375 575.5625 193.23614 575.47283 193.25 575.46875 C 193.99076 587.64454 196.36854 610.9011 202.03125 631.125 C 209.10232 656.37881 231.3336 676.5852 232.34375 683.65625 C 233.3539 690.72732 260.60392 771.53282 259.59375 777.59375 C 258.5836 783.65467 249.51951 785.67971 244.46875 795.78125 C 239.41798 805.88277 237.375 851.34372 237.375 851.34375 L 314.15625 850.34375 C 314.15625 850.34375 316.18749 811.94606 316.1875 804.875 C 316.1875 797.80393 323.26093 785.68594 325.28125 779.625 C 327.30155 773.56408 330.31329 704.86086 333.34375 690.71875 C 336.37421 676.57662 347.48049 645.25698 352.53125 632.125 C 357.58201 618.99302 358.59072 602.8515 386.875 592.75 C 399.95192 588.07968 414.29397 587.30506 425.96875 587.8125 C 427.61573 601.75197 427.3326 612.21906 423.25 613.96875 C 409.10786 620.02966 409.11324 668.49464 404.0625 687.6875 C 399.01174 706.8804 389.91641 771.53282 388.90625 777.59375 C 387.8961 783.65467 373.77109 801.84533 374.78125 807.90625 C 375.79141 813.96716 358.59374 851.34372 358.59375 851.34375 L 428.3125 852.34375 C 428.3125 852.34375 434.35549 839.2164 439.40625 830.125 C 444.45701 821.03363 450.53124 799.81093 450.53125 793.75 C 450.53125 787.68909 456.59533 781.64136 462.65625 764.46875 C 468.71716 747.29615 482.84376 727.09373 482.84375 727.09375 C 482.84375 727.09375 501.04219 734.17817 503.0625 738.21875 C 505.0828 742.25936 512.13516 801.84691 511.125 813.96875 C 510.11485 826.09058 519.21878 851.34372 519.21875 851.34375 L 575.78125 851.34375 C 575.78125 851.34375 574.79139 830.12264 573.78125 821.03125 C 572.77109 811.93988 579.81248 785.69528 579.8125 775.59375 C 579.8125 765.49222 572.75002 741.22653 572.75 731.125 C 572.75 721.02348 587.9078 673.56713 593.96875 651.34375 C 600.02966 629.1204 596.98904 609.91708 594.96875 571.53125 C 593.00481 534.21645 597.71864 524.58119 593.34375 512.9375 C 593.66096 512.62075 593.86805 512.28995 593.96875 511.9375 C 598.00936 497.79537 606.10709 494.76872 617.21875 486.6875 C 628.33042 478.60628 646.48988 456.38198 647.5 443.25 C 648.51015 430.11801 578.80935 409.91639 566.6875 408.90625 C 554.56567 407.8961 512.14371 385.65546 504.0625 382.625 C 495.99864 379.60105 468.86671 366.5562 468.75 366.5 C 468.76463 366.94283 465.34354 372.45766 460.15625 380.625 C 448.39856 366.52206 432.53109 348.79904 424.25 345.25 C 410.10786 339.18909 386.88515 333.13515 385.875 332.125 C 361.63134 333.13516 343.4375 360.39927 343.4375 373.53125 C 343.4375 386.66324 344.46954 408.90704 347.5 411.9375 C 350.53044 414.96795 361.625 422.03125 361.625 422.03125 C 361.625 422.03126 356.59454 442.2297 359.625 444.25 C 362.65544 446.27032 378.8125 442.24064 378.8125 446.28125 C 378.81251 450.32186 391.92894 457.39531 399 455.375 C 405.29351 453.57686 411.60762 440.57077 420.75 442.71875 C 413.93739 453.76865 409.125 462.03603 409.125 463.4375 C 409.125 466.97451 408.28138 485.02317 407.6875 497.8125 C 407.45695 497.80974 406.09375 497.78125 406.09375 497.78125 C 406.09375 497.78125 406.31133 498.54156 406.34375 498.65625 C 389.54242 502.8018 360.00737 510.35703 353.5625 513.9375 C 344.48126 518.98263 296.09958 534.1293 287.9375 533.15625 C 287.92937 533.15205 287.91438 533.16046 287.90625 533.15625 C 275.55425 526.76227 267.85727 514.45811 263.65625 511.9375 C 258.60549 508.90704 259.60152 458.38199 249.5 445.25 C 239.39847 432.11802 227.27967 431.12341 221.21875 425.0625 C 215.15783 419.00159 223.2492 353.33122 220.21875 345.25 C 217.1883 337.16878 229.29061 328.07265 225.25 327.0625 C 221.20939 326.05234 191.93511 297.78046 182.84375 294.75 C 173.75238 291.71955 158.60311 284.65547 154.5625 281.625 C 153.04727 280.48858 149.25119 279.90269 144.46875 280.0625 z "
       id="path2867" />
  </g>
</svg>
