<?xml version="1.0" encoding="UTF-8" standalone="no"?>
<!-- Created with Inkscape (http://www.inkscape.org/) -->
<svg
   xmlns:dc="http://purl.org/dc/elements/1.1/"
   xmlns:cc="http://web.resource.org/cc/"
   xmlns:rdf="http://www.w3.org/1999/02/22-rdf-syntax-ns#"
   xmlns:svg="http://www.w3.org/2000/svg"
   xmlns="http://www.w3.org/2000/svg"
   xmlns:sodipodi="http://sodipodi.sourceforge.net/DTD/sodipodi-0.dtd"
   xmlns:inkscape="http://www.inkscape.org/namespaces/inkscape"
   width="744.09448"
   height="1052.3622"
   id="svg2"
   sodipodi:version="0.32"
   inkscape:version="0.45.1"
   version="1.0"
   sodipodi:docbase="C:\Users\ieb\Documents\Kung Food card game\outlines"
   sodipodi:docname="lightening_fast.svg"
   inkscape:output_extension="org.inkscape.output.svg.inkscape">
  <defs
     id="defs4" />
  <sodipodi:namedview
     id="base"
     pagecolor="#ffffff"
     bordercolor="#666666"
     borderopacity="1.0"
     gridtolerance="10000"
     guidetolerance="10"
     objecttolerance="10"
     inkscape:pageopacity="0.0"
     inkscape:pageshadow="2"
     inkscape:zoom="0.49497475"
     inkscape:cx="250.04749"
     inkscape:cy="469.14348"
     inkscape:document-units="px"
     inkscape:current-layer="layer2"
     inkscape:window-width="1280"
     inkscape:window-height="974"
     inkscape:window-x="-8"
     inkscape:window-y="-8" />
  <metadata
     id="metadata7">
    <rdf:RDF>
      <cc:Work
         rdf:about="">
        <dc:format>image/svg+xml</dc:format>
        <dc:type
           rdf:resource="http://purl.org/dc/dcmitype/StillImage" />
      </cc:Work>
    </rdf:RDF>
  </metadata>
  <g
     inkscape:groupmode="layer"
     id="layer2"
     inkscape:label="outline">
    <path
       style="fill:#000000;fill-rule:evenodd;stroke-width:1px;stroke-linecap:butt;stroke-linejoin:miter;stroke-opacity:1"
       d="M 482.96875,310.21875 C 476.83286,310.13983 470.61278,312.04346 468.71875,313.9375 C 465.68829,316.96796 468.70861,324.03283 469.71875,330.09375 C 470.72891,336.15467 474.78046,350.31486 471.75,359.40625 C 470.11842,364.30098 467.44762,367.83243 460.90625,374.84375 C 460.40268,373.94635 459.625,372.53125 459.625,372.53125 C 459.62499,372.53126 433.36326,356.36564 428.3125,360.40625 C 423.26173,364.44687 403.06632,390.70083 377.8125,401.8125 C 368.65202,405.84311 352.70446,421.08338 335.53125,439.34375 C 336.24492,434.01261 337.0097,428.23486 337.40625,425.0625 C 338.4164,416.98128 334.35231,415.95781 327.28125,413.9375 C 320.21019,411.9172 312.12499,417.99999 312.125,418 C 312.125,418 304.06251,426.06409 304.0625,432.125 C 304.0625,438.18592 307.09376,440.21874 307.09375,440.21875 L 308.09375,448.28125 C 308.09375,448.28125 302.04998,448.28126 293.96875,448.28125 C 285.88753,448.28125 288.91639,436.18433 287.90625,424.0625 C 286.89609,411.94067 279.80933,393.7484 267.6875,387.6875 C 259.58839,383.63794 253.2651,385.47236 241.84375,393.75 C 242.69912,387.1024 243.15648,381.11018 242.4375,378.59375 C 240.4172,371.52269 235.36089,363.44608 221.21875,356.375 C 207.07661,349.30393 200.01556,342.21414 179.8125,364.4375 C 172.74144,369.48826 169.71018,390.71258 176.78125,406.875 C 179.10255,412.18083 179.88262,418.03473 179.90625,423.5 C 167.08051,433.94139 150.89427,448.19219 148.5,455.375 C 144.45939,467.49683 148.4789,484.66021 147.46875,499.8125 C 146.4586,514.96478 138.39689,549.29299 142.4375,554.34375 C 146.47812,559.3945 183.84533,570.51015 189.90625,569.5 C 195.96716,568.48983 205.07266,548.30076 204.0625,543.25 C 203.94819,542.67844 203.71926,540.38145 203.46875,537.0625 C 204.35851,537.75722 205.2279,538.46761 206.0625,539.21875 C 213.40186,545.82416 213.82611,569.42456 213.5,581.875 C 202.77695,602.72723 171.60158,649.49737 165.65625,659.40625 C 159.59533,669.50778 128.30234,745.28838 129.3125,772.5625 C 133.09348,775.80334 137.0056,778.13542 140.84375,779.875 C 136.73194,792.51896 131.24092,807.5435 127.28125,810.9375 C 120.21018,816.99841 102.01952,833.15625 96.96875,833.15625 C 91.917984,833.15627 69.710183,839.20939 76.78125,843.25 C 83.85232,847.2906 113.13912,844.28204 127.28125,847.3125 C 141.42339,850.34296 150.51174,853.36326 155.5625,848.3125 C 160.61326,843.26177 151.51094,827.09217 153.53125,821.03125 C 154.93425,816.82226 161.70414,798.01505 168.75,784.875 C 176.0491,785.62288 188.71736,788.00636 193.9375,783.65625 C 199.9984,778.60547 223.2446,704.86629 242.4375,671.53125 C 261.6304,638.19622 288.91036,583.64119 344.46875,526.0625 C 376.64944,492.71162 411.81753,455.39669 436.75,429.8125 C 432.65354,435.39456 429.89098,439.25461 429.3125,440.21875 C 426.28204,445.26951 433.34534,470.50239 439.40625,479.59375 C 443.9191,486.36303 454.03062,494.83442 463.90625,511.21875 C 453.55336,529.46826 453.36057,557.64876 445.46875,568.5 C 439.49798,576.70983 441.78371,596.49766 437.28125,608.71875 C 432.65324,608.84194 428.83533,609.51857 426.28125,610.9375 C 408.09852,621.03901 371.74842,640.23048 365.6875,645.28125 C 359.62658,650.33203 324.24842,680.63991 318.1875,697.8125 C 306.06566,724.07646 279.8125,752.34534 279.8125,758.40625 C 279.8125,761.00758 282.59824,764.56223 286.34375,767.90625 C 278.64635,775.90582 270.95128,783.83538 265.65625,789.71875 C 256.5649,799.82027 230.30076,814.96875 225.25,814.96875 C 220.19923,814.96876 203.04299,826.09533 208.09375,832.15625 C 213.14452,838.21716 248.49223,828.1039 258.59375,827.09375 C 268.69527,826.08362 291.92735,829.11326 292.9375,824.0625 C 293.94765,819.01175 280.82503,804.88357 288.90625,797.8125 C 293.11621,794.12881 304.4472,786.60656 314.34375,779.53125 C 321.03754,780.11395 328.22549,780.21332 332.34375,779.625 C 339.41483,778.61487 355.56567,740.23668 367.6875,729.125 C 379.80933,718.01335 410.11801,694.78046 423.25,691.75 C 436.38199,688.71954 440.4375,686.6875 440.4375,686.6875 C 440.4375,686.68751 440.43592,701.82741 434.375,719 C 428.31408,736.1726 429.30552,749.32662 442.4375,763.46875 C 455.56949,777.61088 470.7297,799.82424 472.75,804.875 C 474.33498,808.83747 490.81483,811.53126 500.78125,812.03125 C 506.9696,818.18812 511.81175,823.68224 512.15625,826.09375 C 513.1664,833.16482 501.04932,877.61168 530.34375,866.5 C 559.63818,855.38836 557.60312,853.36326 553.5625,848.3125 C 549.52188,843.26177 550.51952,816.98906 545.46875,814.96875 C 540.73853,813.07667 536.92291,814.72938 528.15625,802.5 C 528.61655,801.95761 529.02234,801.42407 529.3125,800.84375 C 532.34294,794.7828 504.05235,737.18592 505.0625,731.125 C 506.04534,725.22804 527.1084,697.34345 531.96875,670.71875 C 532.94672,671.08477 533.80284,671.38821 534.375,671.53125 C 538.41561,672.54141 538.41796,671.52033 543.46875,669.5 C 548.51951,667.47969 545.49061,671.53125 549.53125,671.53125 C 553.57186,671.53125 560.64607,662.44684 561.65625,658.40625 C 562.6664,654.36564 592.97034,664.45861 599.03125,665.46875 C 605.09216,666.4789 612.15622,645.27889 612.15625,636.1875 C 612.15625,627.09613 607.10308,613.94609 603.0625,606.875 C 599.02189,599.80393 612.1453,579.60072 610.125,566.46875 C 609.0754,559.64638 606.38587,555.57126 601.78125,552.21875 C 600.05543,539.21005 589.61724,507.792 580.75,498.15625 C 580.39661,491.67552 579.20798,481.71262 581.84375,475.5625 C 584.87417,468.49142 605.07646,423.02888 578.8125,413.9375 C 545.47749,398.78522 538.42656,419.01174 536.40625,424.0625 C 534.38596,429.11326 526.30235,446.26253 527.3125,454.34375 C 527.77142,458.01509 528.01476,463.32857 528.625,468.0625 C 518.50485,462.54 510.25612,458.40625 508.09375,458.40625 C 507.81553,458.40625 507.54397,458.42273 507.25,458.5 C 499.19578,441.39063 478.81249,436.684 478.8125,431.125 C 478.8125,425.06408 512.15704,393.7281 515.1875,389.6875 C 518.21796,385.64689 523.26177,389.6867 528.3125,386.65625 C 533.36326,383.62579 537.40707,380.61248 540.4375,372.53125 C 543.46796,364.45003 555.57346,362.43592 557.59375,356.375 C 559.61405,350.31408 556.58203,335.15547 551.53125,332.125 C 546.48049,329.09454 535.38439,335.16719 531.34375,337.1875 C 527.30314,339.20781 528.32186,335.1461 524.28125,336.15625 C 520.31624,337.1475 518.27828,348.85838 506.75,350.25 C 506.69445,346.57974 506.20539,343.07598 505.0625,340.21875 C 501.02189,330.11722 500.03982,317.98827 492.96875,312.9375 C 490.3171,311.04346 486.65028,310.2661 482.96875,310.21875 z M 561.34375,595.4375 C 572.10314,611.4905 565.0746,635.54335 561.65625,632.125 C 557.61564,628.08439 554.56093,632.13439 548.5,628.09375 C 542.43909,624.05314 542.45705,629.09454 537.40625,632.125 C 534.47954,633.88103 532.53549,635.3105 529.875,636.78125 C 529.22438,635.0395 528.52906,633.55633 527.90625,632.34375 C 529.04012,629.17108 530.19809,626.04122 531.34375,623.0625 C 534.58721,614.62954 549.4854,604.52792 561.34375,595.4375 z "
       id="path2267" />
  </g>
</svg>
