<?xml version="1.0" encoding="UTF-8" standalone="no"?>
<!-- Created with Inkscape (http://www.inkscape.org/) -->
<svg
   xmlns:dc="http://purl.org/dc/elements/1.1/"
   xmlns:cc="http://web.resource.org/cc/"
   xmlns:rdf="http://www.w3.org/1999/02/22-rdf-syntax-ns#"
   xmlns:svg="http://www.w3.org/2000/svg"
   xmlns="http://www.w3.org/2000/svg"
   xmlns:sodipodi="http://sodipodi.sourceforge.net/DTD/sodipodi-0.dtd"
   xmlns:inkscape="http://www.inkscape.org/namespaces/inkscape"
   width="744.09448"
   height="1052.3622"
   id="svg2"
   sodipodi:version="0.32"
   inkscape:version="0.45.1"
   version="1.0"
   sodipodi:docbase="C:\Users\ieb\Documents\Kung Food card game\outlines"
   sodipodi:docname="low_sweep.svg"
   inkscape:output_extension="org.inkscape.output.svg.inkscape">
  <defs
     id="defs4" />
  <sodipodi:namedview
     id="base"
     pagecolor="#ffffff"
     bordercolor="#666666"
     borderopacity="1.0"
     gridtolerance="10000"
     guidetolerance="10"
     objecttolerance="10"
     inkscape:pageopacity="0.0"
     inkscape:pageshadow="2"
     inkscape:zoom="0.7"
     inkscape:cx="442.43825"
     inkscape:cy="561.85476"
     inkscape:document-units="px"
     inkscape:current-layer="layer2"
     inkscape:window-width="1280"
     inkscape:window-height="974"
     inkscape:window-x="-8"
     inkscape:window-y="-8" />
  <metadata
     id="metadata7">
    <rdf:RDF>
      <cc:Work
         rdf:about="">
        <dc:format>image/svg+xml</dc:format>
        <dc:type
           rdf:resource="http://purl.org/dc/dcmitype/StillImage" />
      </cc:Work>
    </rdf:RDF>
  </metadata>
  <g
     inkscape:groupmode="layer"
     id="layer2"
     inkscape:label="outline">
    <path
       style="fill:#000000;fill-rule:evenodd;stroke-width:1px;stroke-linecap:butt;stroke-linejoin:miter;stroke-opacity:1"
       d="M 462.50595,237.0907 C 460.60044,237.11514 458.72425,237.31546 456.96532,237.70633 C 442.8939,240.8333 446.07952,250.20447 422.62713,258.02196 C 400.73824,275.22037 380.35419,273.66668 369.40976,281.48412 C 358.46531,289.30156 353.80417,300.20695 341.29622,308.02439 C 328.78827,315.84185 333.47876,339.29426 341.29622,340.85772 C 349.11369,342.42122 375.70281,384.67459 397.59171,390.92856 C 407.59999,393.78806 418.83251,394.29715 428.16775,394.0751 C 426.41289,400.60332 423.44914,406.71881 416.33407,412.81746 C 409.09206,419.02491 401.37639,424.59851 394.23997,429.43933 C 392.28266,428.81913 390.77023,428.41329 389.79379,428.41329 C 375.72238,428.41332 363.17535,412.79793 350.6674,409.67092 C 338.15948,406.54392 294.40121,420.58604 277.20281,415.89559 C 260.00438,411.20508 241.22295,400.31929 219.33406,392.50183 C 197.44516,384.68436 167.75835,390.87971 156.81391,383.06224 C 145.86947,375.24476 186.49094,309.62697 163.03857,292.42855 C 125.51473,281.48413 123.95124,306.46089 111.44332,350.23867 C 98.935356,394.01647 81.756542,400.26064 89.573983,415.89559 C 98.770701,434.28905 113.00682,420.59583 141.14967,428.41329 C 169.29251,436.23077 191.17165,465.94687 227.13197,473.76433 C 263.09227,481.5818 256.83832,461.27593 270.90976,465.96641 C 284.98115,470.65688 308.47264,503.48047 331.92504,508.17094 C 355.3774,512.8614 389.75472,509.7442 405.38962,520.68864 C 421.02455,531.63307 436.64969,547.28757 458.53859,556.66851 C 480.42746,566.04947 502.36523,569.15691 499.23824,575.41087 C 496.11122,581.66487 416.34383,616.02257 417.90733,623.84004 C 419.47084,631.65748 428.85178,652.00243 450.74068,659.8199 C 472.62956,667.6373 511.71687,711.45423 527.35179,698.9463 C 542.98672,686.43836 519.53432,648.90476 505.4629,642.65081 C 491.39147,636.39684 514.85361,625.45238 528.92505,620.76191 C 542.99648,616.07145 564.86584,609.8077 580.50075,597.29975 C 596.13568,584.79186 614.91711,576.98414 605.53616,566.03969 C 596.1552,555.09526 555.51418,519.11538 541.44276,508.17094 C 536.07114,503.99301 514.68605,491.38273 489.59345,477.38968 C 491.61903,472.48571 494.29066,467.76747 497.66498,464.39315 C 505.08809,456.97004 520.39249,456.00794 535.83373,449.82336 C 534.73963,450.98194 533.52758,452.15448 532.07158,453.44871 C 518.00015,465.95665 544.54043,465.97621 558.61185,467.53968 C 572.68331,469.10315 596.13568,483.17461 613.33409,478.48413 C 630.53252,473.79365 647.76018,462.81989 661.83165,462.81989 C 675.90309,462.81989 682.14728,445.64101 682.14728,433.13309 C 682.14728,420.62514 663.38538,419.05187 649.31395,409.67092 C 635.77775,400.64681 612.12156,407.43182 585.28894,395.44315 C 584.66369,393.16548 583.13914,391.11422 580.50075,389.3553 C 575.47127,386.00229 563.75524,379.65129 550.54034,372.73342 C 550.63029,361.06995 552.46695,341.15187 563.33165,334.63307 C 578.96654,325.25211 586.73519,309.60744 577.35422,289.28203 C 557.02888,267.39312 532.03251,270.52991 514.83408,279.91085 C 497.63566,289.29177 507.03616,301.79973 507.03616,301.79973 L 489.79867,312.74418 L 499.23824,326.83516 C 499.23821,326.83516 490.4442,332.62348 485.62609,338.66884 C 481.3198,334.43422 477.18719,329.36183 471.0563,328.34002 C 469.19685,328.03012 467.22546,328.48174 465.24206,329.36606 C 463.97853,325.80239 461.85574,322.75354 458.53859,320.54211 C 435.08619,304.90717 408.55572,322.08601 400.73824,317.39557 C 392.92077,312.70509 427.25894,287.72829 435.07643,279.91085 C 442.8939,272.09338 463.27795,292.42858 477.34936,292.42855 C 491.42078,292.42855 494.50869,262.68316 492.94518,253.30217 C 491.57715,245.09383 475.84449,236.9197 462.50595,237.0907 z M 557.92784,435.39037 C 576.52231,441.27459 598.40683,448.72891 589.87193,448.72891 C 576.81077,448.72891 567.79031,439.29433 556.55977,436.69002 C 556.71379,436.53954 556.88547,436.43274 557.0386,436.2796 C 557.34023,435.97798 557.62767,435.6906 557.92784,435.39037 z "
       id="path2331"
       sodipodi:nodetypes="cscsssscscssssscssssssssssssssssscscsssssscscscsccccscsssssccscsc" />
  </g>
</svg>
