<?xml version="1.0" encoding="UTF-8" standalone="no"?>
<!-- Created with Inkscape (http://www.inkscape.org/) -->
<svg
   xmlns:dc="http://purl.org/dc/elements/1.1/"
   xmlns:cc="http://web.resource.org/cc/"
   xmlns:rdf="http://www.w3.org/1999/02/22-rdf-syntax-ns#"
   xmlns:svg="http://www.w3.org/2000/svg"
   xmlns="http://www.w3.org/2000/svg"
   xmlns:sodipodi="http://sodipodi.sourceforge.net/DTD/sodipodi-0.dtd"
   xmlns:inkscape="http://www.inkscape.org/namespaces/inkscape"
   width="744.09448"
   height="1052.3622"
   id="svg2"
   sodipodi:version="0.32"
   inkscape:version="0.45.1"
   version="1.0"
   sodipodi:docbase="C:\Users\ieb\Documents\Kung Food card game\outlines"
   sodipodi:docname="low_block.svg"
   inkscape:output_extension="org.inkscape.output.svg.inkscape">
  <defs
     id="defs4" />
  <sodipodi:namedview
     id="base"
     pagecolor="#ffffff"
     bordercolor="#666666"
     borderopacity="1.0"
     gridtolerance="10000"
     guidetolerance="10"
     objecttolerance="10"
     inkscape:pageopacity="0.0"
     inkscape:pageshadow="2"
     inkscape:zoom="0.49497475"
     inkscape:cx="393.30528"
     inkscape:cy="493.07227"
     inkscape:document-units="px"
     inkscape:current-layer="layer2"
     inkscape:window-width="1280"
     inkscape:window-height="974"
     inkscape:window-x="-8"
     inkscape:window-y="-8" />
  <metadata
     id="metadata7">
    <rdf:RDF>
      <cc:Work
         rdf:about="">
        <dc:format>image/svg+xml</dc:format>
        <dc:type
           rdf:resource="http://purl.org/dc/dcmitype/StillImage" />
      </cc:Work>
    </rdf:RDF>
  </metadata>
  <g
     inkscape:groupmode="layer"
     id="layer2"
     inkscape:label="outline">
    <path
       style="fill:#000000;fill-rule:evenodd;stroke-width:1px;stroke-linecap:butt;stroke-linejoin:miter;stroke-opacity:1"
       d="M 453.82527,290.20604 C 442.457,289.85147 436.01745,295.47369 427.66418,299.92874 C 415.51397,306.40885 417.11518,332.3219 419.54522,335.56195 C 421.97525,338.802 413.88201,356.61112 413.882,356.6111 L 421.14897,356.6111 L 422.00096,366.3338 C 422.00096,366.3338 426.02786,364.72191 429.26793,365.53193 C 431.08261,365.9856 433.11133,370.74181 434.58033,374.8537 C 429.84879,377.00711 426.86231,378.51224 426.86231,378.51224 C 426.86231,378.51224 426.68832,379.68326 426.66184,379.91552 C 418.32543,383.57005 404.76408,390.29231 395.23846,398.75952 C 380.6582,411.71974 366.90225,441.67852 353.94203,449.77865 C 340.98184,457.8788 331.27719,461.9258 317.50696,470.02593 C 303.73671,478.12605 277.00987,509.71989 267.2897,514.57997 C 257.56953,519.44002 258.34191,521.04507 251.05178,521.04507 C 243.76165,521.04507 239.71592,526.7434 235.66585,533.2235 C 231.61577,539.70363 236.46899,545.38565 241.32908,547.00569 C 246.18916,548.62571 259.9983,548.60002 262.42834,544.54995 C 264.85839,540.49989 259.99957,532.42035 267.2897,527.56028 C 274.57981,522.7002 328.00837,507.28731 335.2985,504.85727 C 342.5886,502.42724 357.15894,490.28951 361.209,488.66947 C 365.0557,487.13082 390.83534,473.89476 405.21175,476.03998 C 404.60252,480.23324 403.83657,484.39943 402.55555,488.66947 C 399.30952,499.48958 387.09932,509.4675 379.30125,514.98091 C 371.31611,516.26366 364.76266,517.7491 361.209,519.44132 C 344.19874,527.54148 323.15135,550.23072 315.05122,553.47078 C 306.95108,556.71081 288.34318,562.36031 272.95292,570.46045 C 257.56268,578.56058 183.84485,623.9516 183.84485,622.33158 C 183.84485,622.33158 186.0364,624.45019 188.35538,626.69176 C 180.58467,631.47268 170.10792,637.92121 166.80506,640.12312 C 161.94497,643.36317 146.55523,649.84709 136.83508,654.70718 C 127.11491,659.56726 114.99218,682.27279 114.18218,687.13289 C 113.37216,691.99298 119.04606,700.09691 128.76623,701.71695 C 138.4864,703.33699 148.18034,687.09783 156.28048,680.61768 C 164.38061,674.13757 161.12934,662.02991 177.32963,651.49969 C 180.56721,648.80171 194.48977,644.32735 203.49072,641.62663 C 212.0798,650.25983 220.27992,658.83889 220.27992,660.3704 C 220.27994,663.61048 231.60764,677.3845 236.46772,674.95446 C 241.32781,672.52445 316.68193,613.40133 323.97205,609.35127 C 331.26216,605.3012 383.1165,589.93715 407.4169,581.83702 C 431.71729,573.73686 434.91994,561.53962 455.9803,561.53962 C 477.04065,561.53962 505.41578,568.03041 518.376,570.46045 C 531.33621,572.8905 549.17355,571.27987 551.60359,574.51993 C 554.03363,577.75996 551.57663,593.14158 544.2865,605.29179 C 536.99639,617.442 519.16974,649.83894 519.97974,655.50905 C 520.16074,656.77601 524.02619,657.87209 529.75256,658.71654 C 529.74078,658.73663 529.71399,658.74643 529.70245,658.76666 C 523.22234,670.10685 515.14408,670.93007 517.57413,677.41019 C 520.00417,683.8903 549.12598,682.23892 561.27617,685.47903 C 573.42639,688.71908 597.75322,691.14096 598.56324,686.2809 C 599.37326,681.42083 583.19234,674.1432 576.71222,670.0931 C 573.50378,668.08783 574.42228,664.29008 576.21105,660.9718 C 586.6127,660.78258 594.52923,660.06065 595.30564,658.76666 C 597.73569,654.71657 610.70098,575.3437 614.75104,563.19349 C 618.80109,551.04327 619.63682,539.71176 617.20678,532.42163 C 614.77672,525.1315 592.8868,515.38058 574.25648,510.52049 C 567.67885,508.80458 551.66944,507.99005 533.76193,507.66382 C 530.18044,499.67367 527.52955,489.32052 528.0987,481.35238 C 528.90871,470.01219 541.84833,452.99989 545.08837,441.6597 C 548.32842,430.3195 555.63051,433.58144 558.87056,429.53138 C 562.11062,425.48129 568.60829,414.16044 562.12816,407.68035 C 555.64806,401.20024 558.05419,382.57475 534.5638,362.32444 C 530.51373,358.27436 524.02343,360.68687 495.67299,359.06684 C 490.61779,358.77797 485.16487,359.2139 479.63554,360.11929 C 477.75568,357.00505 475.82066,352.88666 475.42571,348.54226 C 474.61569,339.63211 497.3205,315.31775 473.02009,295.06739 C 465.1731,291.77672 458.99266,290.36722 453.82527,290.20604 z "
       id="path2715" />
  </g>
</svg>
