<?xml version="1.0" encoding="UTF-8" standalone="no"?>
<!-- Created with Inkscape (http://www.inkscape.org/) -->
<svg
   xmlns:dc="http://purl.org/dc/elements/1.1/"
   xmlns:cc="http://web.resource.org/cc/"
   xmlns:rdf="http://www.w3.org/1999/02/22-rdf-syntax-ns#"
   xmlns:svg="http://www.w3.org/2000/svg"
   xmlns="http://www.w3.org/2000/svg"
   xmlns:sodipodi="http://sodipodi.sourceforge.net/DTD/sodipodi-0.dtd"
   xmlns:inkscape="http://www.inkscape.org/namespaces/inkscape"
   width="744.09448"
   height="1052.3622"
   id="svg2"
   sodipodi:version="0.32"
   inkscape:version="0.45.1"
   version="1.0"
   sodipodi:docbase="C:\Users\ieb\Documents\Kung Food card game\outlines"
   sodipodi:docname="lunge_punch.svg"
   inkscape:output_extension="org.inkscape.output.svg.inkscape">
  <defs
     id="defs4" />
  <sodipodi:namedview
     id="base"
     pagecolor="#ffffff"
     bordercolor="#666666"
     borderopacity="1.0"
     gridtolerance="10000"
     guidetolerance="10"
     objecttolerance="10"
     inkscape:pageopacity="0.0"
     inkscape:pageshadow="2"
     inkscape:zoom="0.48848921"
     inkscape:cx="130.32303"
     inkscape:cy="346.05878"
     inkscape:document-units="px"
     inkscape:current-layer="layer2"
     inkscape:window-width="1280"
     inkscape:window-height="974"
     inkscape:window-x="-8"
     inkscape:window-y="-8" />
  <metadata
     id="metadata7">
    <rdf:RDF>
      <cc:Work
         rdf:about="">
        <dc:format>image/svg+xml</dc:format>
        <dc:type
           rdf:resource="http://purl.org/dc/dcmitype/StillImage" />
      </cc:Work>
    </rdf:RDF>
  </metadata>
  <g
     inkscape:groupmode="layer"
     id="layer2"
     inkscape:label="outline"
     sodipodi:insensitive="true">
    <path
       style="fill:#000000;fill-rule:evenodd;stroke:none;stroke-width:1px;stroke-linecap:butt;stroke-linejoin:miter;stroke-opacity:1"
       d="M 392.71875,407.21875 C 381.44855,407.30371 367.27784,409.06609 359.28125,411.625 C 346.48669,415.71925 327.53535,426.97234 326,429.53125 C 324.46465,432.09017 321.40984,435.14396 323.96875,439.75 C 326.52765,444.35604 339.29612,459.70646 345.4375,464.3125 C 351.57888,468.91855 371.04252,480.68699 374.625,484.78125 C 378.20747,488.87551 382.30431,494.53484 385.375,497.09375 C 388.4457,499.65267 394.06608,506.28125 396.625,506.28125 C 399.18392,506.28126 413.52356,495.54713 412.5,493.5 C 411.47644,491.45289 400.21875,475.0625 400.21875,475.0625 C 400.21874,475.0625 389.97694,476.08606 386.90625,475.0625 C 383.83554,474.03894 367.95747,452.5666 364.375,451.03125 C 360.79251,449.49592 357.75,439.75 357.75,439.75 L 377.25,449.125 L 371.5625,451.03125 C 371.5625,451.03125 382.8002,464.33147 387.40625,468.9375 C 392.01229,473.54353 398.16752,469.95698 401.75,470.46875 C 405.33247,470.98053 417.60144,491.97233 418.625,494.53125 C 419.64857,497.09016 401.25051,511.39447 397.15625,511.90625 C 393.06199,512.41803 385.89497,505.28175 382.3125,501.1875 C 378.73002,497.09325 377.18492,487.86782 366.4375,482.75 C 355.69007,477.63218 332.15624,457.15626 332.15625,457.15625 L 309.65625,466.9375 L 309.625,466.875 C 309.625,466.875 294.79454,469.94416 282,479.15625 C 269.20545,488.36832 239.50461,560.03794 233.875,569.25 C 228.2454,578.46208 196.51279,607.09631 187.8125,617.84375 C 179.1122,628.59117 147.90625,676.71875 147.90625,676.71875 L 150.0625,678.0625 C 146.3574,681.35089 138.1875,686.90859 138.1875,686.4375 C 138.1875,686.43748 141.23822,698.20647 141.75,702.8125 C 142.26178,707.41853 144.82737,725.84734 150.96875,728.40625 C 157.11014,730.96515 182.70748,729.41444 179.125,726.34375 C 175.54254,723.27303 162.74181,702.30532 165.8125,697.1875 C 166.64457,695.80072 167.82966,693.03867 169.09375,689.78125 L 182.1875,697.6875 C 182.1875,697.6875 221.59324,657.28177 225.6875,653.1875 C 229.78175,649.09324 263.5538,605.583 270.71875,597.90625 C 275.69858,592.57071 306.22299,567.27391 324.78125,552 C 345.71759,561.42223 382.68046,578.42426 382.3125,581 C 381.80072,584.58248 371.5625,660.34375 371.5625,660.34375 C 371.5625,660.34375 372.72615,660.5972 374.46875,660.9375 C 372.95625,665.03025 372.2016,668.37297 373.09375,669.5625 C 376.16443,673.65679 390.4954,671.08966 396.125,672.625 C 401.75461,674.16033 429.89447,674.65266 430.40625,672.09375 C 430.91803,669.53482 422.71875,666.46875 422.71875,666.46875 C 422.71875,666.46876 408.88038,666.47117 405.46875,661.6875 C 410.74002,661.02312 415.0625,660.34375 415.0625,660.34375 C 415.06249,660.34374 422.72285,567.18801 421.1875,563.09375 C 419.93848,559.76303 397.70245,534.76824 380.90625,525.28125 C 389.68112,521.48031 402.04009,516.48768 406.875,515 C 413.32602,513.01507 437.97831,492.78348 440.875,489.6875 C 445.14343,489.18812 461.25838,487.34374 465.71875,487.34375 C 470.83657,487.34375 500.52307,476.59376 503.59375,476.59375 C 506.66444,476.59375 514.34271,478.66804 522.53125,478.15625 C 530.71976,477.64447 563.46415,467.40625 569.09375,467.40625 C 574.72335,467.40625 588.53481,473.54302 591.09375,473.03125 C 593.65266,472.51947 597.23822,462.28943 597.75,459.21875 C 598.26179,456.14805 588.03127,451.53124 588.03125,451.53125 C 587.00768,452.55481 577.30124,455.625 573.71875,455.625 C 570.13627,455.625 565.00821,453.57427 561.9375,453.0625 C 558.86681,452.55072 545.05891,458.18751 542.5,458.1875 C 539.94109,458.1875 518.94979,456.125 514.34375,456.125 C 509.73771,456.125 501.5589,460.21874 499,460.21875 C 496.44109,460.21875 486.1875,457.65626 486.1875,457.65625 C 486.1875,457.65625 479.62778,472.22349 470.84375,469.96875 C 469.23525,469.55587 468.80375,477.1204 444.75,482.75 C 442.59809,483.25364 440.07238,482.20939 438,481 C 435.42744,476.47439 432.04959,471.40251 430.40625,468.9375 C 428.95258,466.757 430.71435,459.86165 432.96875,453 C 433.8047,456.55438 434.4862,460.32267 434,461.78125 C 432.97644,464.85194 441.17161,478.15214 443.21875,479.6875 C 445.26588,481.22284 451.90625,476.09375 451.90625,476.09375 L 448.84375,469.96875 L 453.4375,474.5625 L 460.09375,474.0625 L 467.25,466.375 L 471.34375,465.875 L 476.46875,465.875 C 476.46875,465.875 479.04251,462.78586 482.625,457.15625 C 486.20747,451.52665 485.67212,442.32529 483.625,433.625 C 481.57787,424.9247 473.91855,422.85963 469.3125,420.8125 C 465.51346,419.12404 445.50498,431.54091 438.3125,436.125 C 437.12171,434.71088 432.09171,433.17223 429.46875,432.46875 C 423.02322,424.16608 412.64903,411.44951 407.875,409.0625 C 405.18814,407.71906 399.48087,407.16777 392.71875,407.21875 z "
       id="path2522" />
  </g>
</svg>
