<?xml version="1.0" encoding="UTF-8" standalone="no"?>
<!-- Created with Inkscape (http://www.inkscape.org/) -->
<svg
   xmlns:dc="http://purl.org/dc/elements/1.1/"
   xmlns:cc="http://web.resource.org/cc/"
   xmlns:rdf="http://www.w3.org/1999/02/22-rdf-syntax-ns#"
   xmlns:svg="http://www.w3.org/2000/svg"
   xmlns="http://www.w3.org/2000/svg"
   xmlns:sodipodi="http://sodipodi.sourceforge.net/DTD/sodipodi-0.dtd"
   xmlns:inkscape="http://www.inkscape.org/namespaces/inkscape"
   width="744.09448"
   height="1052.3622"
   id="svg2"
   sodipodi:version="0.32"
   inkscape:version="0.45.1"
   version="1.0"
   sodipodi:docbase="C:\Users\ieb\Documents\Kung Food card game\outlines"
   sodipodi:docname="overhear_throw.svg"
   inkscape:output_extension="org.inkscape.output.svg.inkscape">
  <defs
     id="defs4" />
  <sodipodi:namedview
     id="base"
     pagecolor="#ffffff"
     bordercolor="#666666"
     borderopacity="1.0"
     gridtolerance="10000"
     guidetolerance="10"
     objecttolerance="10"
     inkscape:pageopacity="0.0"
     inkscape:pageshadow="2"
     inkscape:zoom="0.7"
     inkscape:cx="362.8658"
     inkscape:cy="523.27339"
     inkscape:document-units="px"
     inkscape:current-layer="layer2"
     showguides="true"
     inkscape:guide-bbox="true"
     inkscape:window-width="1280"
     inkscape:window-height="974"
     inkscape:window-x="-8"
     inkscape:window-y="-8" />
  <metadata
     id="metadata7">
    <rdf:RDF>
      <cc:Work
         rdf:about="">
        <dc:format>image/svg+xml</dc:format>
        <dc:type
           rdf:resource="http://purl.org/dc/dcmitype/StillImage" />
      </cc:Work>
    </rdf:RDF>
  </metadata>
  <g
     inkscape:groupmode="layer"
     id="layer2"
     inkscape:label="outline">
    <path
       style="fill:#000000;fill-rule:evenodd;stroke-width:1px;stroke-linecap:butt;stroke-linejoin:miter;stroke-opacity:1"
       d="M 493.28475,221.29464 C 493.28475,221.29464 475.48596,229.26954 471.92176,232.83377 C 468.35752,236.39798 464.81562,249.78604 456.79614,255.13237 C 448.77665,260.47869 403.28844,286.30811 399.72421,290.76334 C 396.16,295.21862 392.58461,314.84403 391.69359,325.53667 C 390.98615,334.02606 390.86599,347.69398 390.83596,354.07264 C 390.83596,354.07266 358.78032,356.74578 356.99823,354.07264 C 355.21614,351.3995 340.91475,320.17922 337.35051,317.50606 C 333.78631,314.8329 328.48454,314.84405 319.57401,319.2993 C 310.66351,323.75456 301.71954,327.32992 295.48217,327.32992 C 289.2448,327.32989 250.89614,315.71282 240.20349,315.71282 C 229.51084,315.71284 225.96894,324.65676 218.8405,327.32992 C 211.71208,330.00305 203.67034,329.07863 190.30453,334.42492 C 176.93872,339.77127 155.56461,360.26547 148.43619,359.3744 C 141.30775,358.48338 116.3583,361.20105 111.01198,360.31001 C 105.66565,359.41896 90.517753,342.44441 86.0625,353.13703 C 86.0625,353.13706 107.47005,370.98037 108.3611,375.43563 C 109.25214,379.89088 119.92251,392.3879 123.48672,391.49685 C 127.05092,390.60581 133.33285,378.08651 136.89706,378.08651 C 140.46129,378.08653 154.68471,370.9915 162.70417,370.9915 C 170.72366,370.99148 187.66478,368.28493 195.68426,365.61177 C 203.70375,362.93863 227.79556,345.99747 232.25084,345.10642 C 236.70612,344.21532 241.13909,341.60905 247.37646,349.62851 C 253.61383,357.648 283.04084,376.30442 288.38717,378.08651 C 293.73349,379.86865 305.29488,395.94098 309.75016,395.94098 C 314.20541,395.94095 323.98473,402.13379 331.11314,407.48011 C 338.24158,412.82639 360.5179,401.29843 368.53736,403.97159 C 375.60525,406.32757 406.91739,434.9076 418.51428,447.16537 L 415.47356,448.80268 C 416.21167,447.73482 417.02866,446.5345 417.11087,446.46367 C 414.15449,449.30911 402.08548,448.61332 397.07332,450.28406 C 391.727,452.06618 372.10159,444.06897 362.29999,447.63318 C 352.49841,451.19738 324.87578,526.93689 318.63841,534.95635 C 312.40104,542.97581 299.06869,552.76623 292.83129,558.11258 C 286.59392,563.4589 273.23929,583.02867 269.67506,590.15706 C 266.11085,597.2855 256.27584,653.44408 251.82059,662.35461 C 247.36534,671.26514 222.38243,677.52479 215.25401,684.65321 C 208.1256,691.78162 202.82381,706.04961 197.47751,711.39593 C 192.13118,716.74225 181.44971,731.87903 180.55864,734.55216 C 179.6676,737.2253 169.85487,734.56332 166.29066,736.34541 C 162.72643,738.12752 163.57294,760.39271 165.35506,765.73901 C 167.13717,771.08531 157.38013,791.54605 172.52803,797.78349 C 194.80435,808.47612 185.02507,786.24436 182.35189,780.00699 C 179.67873,773.76962 198.3463,743.47382 200.12839,736.34541 C 201.91051,729.21699 225.10012,715.81785 228.66435,712.25357 C 232.22856,708.68936 246.46314,695.34586 250.02734,690.89058 C 253.59158,686.4353 267.83723,682.88225 273.18358,680.20908 C 278.5299,677.53592 295.4933,647.21784 303.51279,632.96101 C 306.94249,626.86376 312.27195,615.65802 317.31297,604.89285 C 321.25543,614.64288 328.16516,628.86972 338.28612,640.05602 C 355.21614,658.76815 373.00377,673.96056 370.3306,678.41584 C 367.65744,682.87112 356.94254,695.31242 354.26938,704.22295 C 351.59619,713.13341 349.80297,744.32033 346.23877,754.12191 C 342.67453,763.92341 340.05708,780.84235 342.73025,783.51551 C 345.40343,786.18862 357.88927,781.78911 363.2356,786.24436 C 368.58192,790.69964 387.27172,799.55446 390.83596,795.99025 C 394.40016,792.42599 383.70752,782.669 378.36122,778.21375 C 373.01489,773.75849 359.67139,764.83681 363.2356,757.7084 C 366.79983,750.58003 375.69921,714.0134 380.15446,708.66708 C 384.60976,703.32073 396.17113,688.19516 395.28008,681.06672 C 394.38904,673.93836 385.45622,629.35224 379.21886,619.55067 C 372.98146,609.74907 354.25825,589.2883 358.7135,581.26881 C 363.16876,573.24933 368.53736,551.87521 374.77473,545.63784 C 381.0121,539.40045 393.48684,520.67724 399.72421,518.89512 C 400.08423,518.79225 400.39051,518.52008 400.65981,518.11545 C 404.77151,526.03177 409.49819,534.43163 411.34131,535.81398 C 414.90551,538.48715 433.56191,552.73287 433.56193,552.73285 C 433.56193,552.73285 445.17904,557.17695 451.4164,557.17697 C 457.65377,557.17697 484.39649,549.22433 484.39649,549.22433 C 484.39649,549.22433 493.27357,542.97583 497.72887,541.19372 C 502.18412,539.4116 529.85135,570.58729 529.85132,570.58732 L 532.5022,586.64854 L 539.59721,574.17381 L 545.83458,584.8553 L 544.11931,568.79407 L 556.59404,578.61793 L 549.42107,567.93644 C 549.42107,567.93644 567.24213,567.89188 561.89581,567.00083 C 556.54951,566.10979 547.6278,545.61556 541.39046,548.28872 C 535.15309,550.96189 524.47159,545.63782 524.47159,545.63784 L 516.44098,534.95635 C 516.44098,534.95635 517.37661,524.23029 511.13922,517.10188 C 504.90185,509.97346 495.07799,510.00689 495.07799,510.00687 C 495.07799,510.00687 482.63668,501.10749 475.50824,493.08801 C 470.79838,487.78944 468.39175,479.39506 467.3217,474.29793 C 468.18402,473.52871 469.27087,472.58265 469.27087,472.58265 C 469.27087,472.58265 474.59489,457.41247 471.92176,450.28406 C 469.24859,443.15564 461.24029,436.95168 461.24026,436.95168 C 461.24026,436.95168 463.0001,437.77586 476.36588,438.66696 C 489.73167,439.558 498.60876,419.96603 502.173,403.03599 C 505.7372,386.106 487.94957,376.31555 482.60325,373.64238 C 477.25693,370.96922 452.27402,370.94692 452.27404,376.29327 C 452.27404,380.79078 447.26838,389.67033 438.23996,390.79515 C 432.54993,385.6464 425.67164,379.29152 421.39906,374.18815 C 422.85023,365.43842 425.60931,348.89916 425.60929,343.39114 C 425.60929,336.26273 421.98937,308.59553 422.88044,305.03132 C 423.77149,301.46711 454.98061,273.8556 457.65377,269.40035 C 460.32694,264.9451 479.89666,263.12952 483.46089,264.02062 C 487.0251,264.91167 501.31536,255.15462 501.31536,252.48149 C 501.31536,249.80832 488.82949,254.28588 487.04738,249.8306 C 485.26529,245.37535 495.9356,231.1185 495.93563,231.1185 L 481.74561,240.00675 L 497.72887,222.15228 L 480.81001,232.83377 L 493.28475,221.29464 z M 412.12098,471.80298 C 414.68277,471.69161 417.58983,472.59378 419.37192,474.3759 C 420.64599,475.64997 422.33282,477.73539 424.51775,479.91156 C 420.87113,484.77696 416.3823,486.19718 412.82268,486.4608 C 410.655,484.06745 406.21541,478.64241 406.89718,475.23354 C 407.3427,473.00592 409.55919,471.91436 412.12098,471.80298 z M 448.06382,487.1625 L 460.30466,509.07126 L 483.46089,528.71898 C 483.46089,528.71898 482.60325,532.27203 476.36588,533.1631 C 470.12851,534.05415 459.44702,531.36983 459.44702,531.36986 C 459.44702,531.36986 445.16791,534.00956 443.38579,532.2275 C 441.6037,530.44538 434.45298,521.60169 433.56193,518.03748 C 432.95546,515.61155 426.38123,507.15532 422.10077,501.89829 C 425.39318,499.95066 428.71585,498.08738 431.84666,496.59653 C 437.82246,493.75091 442.37002,490.745 445.88074,487.94218 C 446.59861,487.73033 447.32733,487.45444 448.06382,487.1625 z "
       id="path2477" />
  </g>
</svg>
