<?xml version="1.0" encoding="UTF-8" standalone="no"?>
<!-- Created with Inkscape (http://www.inkscape.org/) -->
<svg
   xmlns:dc="http://purl.org/dc/elements/1.1/"
   xmlns:cc="http://web.resource.org/cc/"
   xmlns:rdf="http://www.w3.org/1999/02/22-rdf-syntax-ns#"
   xmlns:svg="http://www.w3.org/2000/svg"
   xmlns="http://www.w3.org/2000/svg"
   xmlns:sodipodi="http://sodipodi.sourceforge.net/DTD/sodipodi-0.dtd"
   xmlns:inkscape="http://www.inkscape.org/namespaces/inkscape"
   width="744.09448"
   height="1052.3622"
   id="svg2"
   sodipodi:version="0.32"
   inkscape:version="0.45.1"
   version="1.0"
   sodipodi:docbase="C:\Users\ieb\Documents\Kung Food card game\outlines"
   sodipodi:docname="overhead_punch.svg"
   inkscape:output_extension="org.inkscape.output.svg.inkscape">
  <defs
     id="defs4" />
  <sodipodi:namedview
     id="base"
     pagecolor="#ffffff"
     bordercolor="#666666"
     borderopacity="1.0"
     gridtolerance="10000"
     guidetolerance="10"
     objecttolerance="10"
     inkscape:pageopacity="0.0"
     inkscape:pageshadow="2"
     inkscape:zoom="0.61171171"
     inkscape:cx="395.59898"
     inkscape:cy="486.78082"
     inkscape:document-units="px"
     inkscape:current-layer="layer2"
     inkscape:window-width="1280"
     inkscape:window-height="974"
     inkscape:window-x="-8"
     inkscape:window-y="-8" />
  <metadata
     id="metadata7">
    <rdf:RDF>
      <cc:Work
         rdf:about="">
        <dc:format>image/svg+xml</dc:format>
        <dc:type
           rdf:resource="http://purl.org/dc/dcmitype/StillImage" />
      </cc:Work>
    </rdf:RDF>
  </metadata>
  <g
     inkscape:groupmode="layer"
     id="layer2"
     inkscape:label="outline">
    <path
       style="fill:#000000;fill-rule:evenodd;stroke-width:1px;stroke-linecap:butt;stroke-linejoin:miter;stroke-opacity:1"
       d="M 99.654727,256.63263 C 90.637757,256.63263 85.604067,258.83665 84.284522,261.47576 C 81.645406,266.75398 74.58037,285.22792 71.941275,289.62643 C 69.302158,294.02495 82.501983,300.18715 82.501983,300.18714 C 82.501983,300.18714 87.784457,309.8629 93.062687,311.6223 C 98.340907,313.38171 96.594137,303.71858 96.594137,303.71859 L 114.18411,307.2164 C 114.18411,307.2164 130.03042,299.30005 129.15071,295.78124 C 128.27101,292.26242 139.67778,296.65569 139.67779,296.65569 C 139.67779,296.65569 131.78573,285.23843 146.74068,287.87753 C 153.31582,289.03784 178.58363,299.5284 205.59813,311.31961 L 200.38504,315.15375 C 173.11422,340.66516 190.71995,378.48862 215.35165,389.04507 C 230.45496,395.51792 247.52528,400.99059 261.93311,401.22015 C 251.48084,408.71153 251.40604,404.52546 251.40604,414.53875 C 251.40604,422.42176 252.52182,428.65404 255.03838,433.84399 C 242.66432,444.00076 233.31061,460.21199 227.66126,459.40494 C 221.50332,458.52522 221.49694,452.38618 211.8202,450.62677 C 202.14347,448.86737 192.45819,449.73132 190.69879,453.25013 C 188.93937,456.76893 171.3778,456.78895 174.01691,461.18748 C 176.65603,465.58599 181.92062,469.96565 181.92062,469.96565 C 181.92062,469.96565 176.62451,473.47609 179.26363,476.99491 C 181.90272,480.51372 188.94988,478.77745 188.94988,478.77745 C 188.94988,478.77744 183.68741,482.29314 186.32652,484.93226 C 188.96565,487.57135 196.88723,487.55562 196.88723,487.55562 C 196.88722,487.55562 201.26688,495.49296 205.66539,495.49296 C 210.06392,495.49296 212.69466,491.96152 212.69466,491.96152 C 212.69467,491.96153 229.41755,485.80671 233.81607,485.80671 C 238.21458,485.80672 276.04003,475.26175 284.83707,472.62264 C 285.89748,472.30451 286.34148,471.42369 286.28328,470.16744 C 294.81377,467.99 308.58184,461.52818 308.58184,468.21674 C 308.58183,472.23702 309.96633,481.63443 311.3061,489.97718 C 275.52531,510.71034 237.19834,556.5516 233.81607,565.85284 C 230.29725,575.52956 220.62462,667.012 216.2261,674.04964 C 211.8276,681.08727 202.13608,700.45879 207.4143,704.85731 C 208.94417,706.13219 215.65997,709.56741 224.43251,713.73637 C 224.48981,720.13584 224.29031,725.04202 223.25536,726.85318 C 219.73655,733.0111 200.37552,748.83854 190.69879,750.59795 C 181.02204,752.35736 154.63292,765.55305 167.82847,778.74863 C 181.02403,791.94419 211.82346,766.44641 233.81607,770.84491 C 255.80867,775.24343 261.97411,768.19104 266.37265,762.03311 C 270.77116,755.87518 260.19996,742.69001 257.56085,732.13353 C 257.3382,731.24293 257.25066,729.93887 257.22452,728.36665 C 270.5608,733.92929 281.90242,738.10062 283.96261,737.41388 C 289.24083,735.65448 293.63425,644.15204 312.98774,621.27973 C 332.34122,598.40745 364.90548,535.07994 406.25157,551.79431 C 447.59766,568.50868 465.18793,616.00463 480.14289,615.12493 C 495.09786,614.24521 533.78413,670.56233 539.94206,668.80292 C 542.03967,668.20359 548.77851,666.55671 556.72484,664.22885 C 561.11739,671.78739 564.34518,678.61605 564.59492,682.86144 C 565.47465,697.81643 532.91408,726.83317 577.77899,718.91583 C 622.64391,710.99852 592.72771,694.30071 590.0886,676.70663 C 589.17182,670.5947 587.83289,661.68602 586.28809,652.52463 C 590.05866,650.13341 592.54791,647.59443 592.74559,645.02451 C 593.6253,633.58838 592.73608,611.59972 583.05934,599.28387 C 573.38258,586.96802 532.92854,566.74617 530.28944,557.94912 C 527.65033,549.15209 485.42309,443.59539 457.27257,438.31716 C 453.21532,437.55642 447.32377,438.08356 440.28799,439.49431 C 432.63723,430.54961 422.98859,418.22262 418.56119,408.38394 C 410.64385,390.78986 407.12177,368.82321 396.56532,347.71032 C 392.40302,339.38571 382.76106,333.11851 372.61874,328.57325 C 369.7301,320.43032 345.21407,304.45423 332.36025,299.31269 C 319.1647,294.03446 290.9845,291.40897 286.58598,291.40897 C 282.18746,291.40897 269.02111,281.72584 247.90822,275.56791 C 226.79532,269.40998 184.54795,265.88691 138.80334,265.0072 C 121.64911,258.84928 108.67169,256.63263 99.654727,256.63263 z "
       id="path2362" />
  </g>
</svg>
