<?xml version="1.0" encoding="UTF-8" standalone="no"?>
<!-- Created with Inkscape (http://www.inkscape.org/) -->
<svg
   xmlns:dc="http://purl.org/dc/elements/1.1/"
   xmlns:cc="http://web.resource.org/cc/"
   xmlns:rdf="http://www.w3.org/1999/02/22-rdf-syntax-ns#"
   xmlns:svg="http://www.w3.org/2000/svg"
   xmlns="http://www.w3.org/2000/svg"
   xmlns:sodipodi="http://sodipodi.sourceforge.net/DTD/sodipodi-0.dtd"
   xmlns:inkscape="http://www.inkscape.org/namespaces/inkscape"
   width="744.09448"
   height="1052.3622"
   id="svg2"
   sodipodi:version="0.32"
   inkscape:version="0.45.1"
   version="1.0"
   sodipodi:docbase="C:\Users\ieb\Documents\Kung Food card game\outlines"
   sodipodi:docname="perfect_prediction.svg"
   inkscape:output_extension="org.inkscape.output.svg.inkscape">
  <defs
     id="defs4" />
  <sodipodi:namedview
     id="base"
     pagecolor="#ffffff"
     bordercolor="#666666"
     borderopacity="1.0"
     gridtolerance="10000"
     guidetolerance="10"
     objecttolerance="10"
     inkscape:pageopacity="0.0"
     inkscape:pageshadow="2"
     inkscape:zoom="1.4"
     inkscape:cx="454.70753"
     inkscape:cy="502.21634"
     inkscape:document-units="px"
     inkscape:current-layer="layer2"
     inkscape:window-width="1280"
     inkscape:window-height="974"
     inkscape:window-x="-8"
     inkscape:window-y="-8" />
  <metadata
     id="metadata7">
    <rdf:RDF>
      <cc:Work
         rdf:about="">
        <dc:format>image/svg+xml</dc:format>
        <dc:type
           rdf:resource="http://purl.org/dc/dcmitype/StillImage" />
      </cc:Work>
    </rdf:RDF>
  </metadata>
  <g
     inkscape:groupmode="layer"
     id="layer2"
     inkscape:label="outline">
    <path
       style="fill:#000000;fill-rule:evenodd;stroke-width:1px;stroke-linecap:butt;stroke-linejoin:miter;stroke-opacity:1"
       d="M 536.0625 316.375 C 529.27679 316.64286 521.08482 319.16071 512.15625 327.375 C 500.72766 353.80357 517.86607 370.92411 521.4375 373.78125 C 525.00891 376.63841 530.71875 387.375 530.71875 387.375 C 530.71875 387.375 534.2991 384.50447 537.15625 385.21875 C 540.01337 385.93303 549.28125 391.65625 549.28125 391.65625 C 549.28125 391.65626 553.57143 384.51339 560 386.65625 C 560.90723 386.95866 562.25274 386.92872 563.875 386.6875 C 559.87885 389.98424 556.53417 393.3091 554.28125 395.9375 C 545.70983 405.93749 528.5625 430.94643 523.5625 432.375 C 518.56252 433.80357 471.41518 428.78571 467.84375 424.5 C 464.27231 420.21428 464.28125 415.9375 464.28125 415.9375 C 464.28125 415.93749 442.87053 414.51786 442.15625 417.375 C 441.44197 420.23214 432.84821 433.08929 438.5625 437.375 C 444.27677 441.66072 454.2991 438.0625 457.15625 438.0625 C 460.0134 438.06249 493.5625 458.07143 498.5625 459.5 C 503.56249 460.92857 515.70536 465.92411 523.5625 463.78125 C 526.15661 463.07377 534.93569 458.13601 545.71875 451.71875 C 545.94558 463.39526 542.16937 482.33979 542.15625 487.34375 C 534.97413 489.01533 524.37831 491.75077 511.4375 495.9375 C 487.1518 503.79463 466.41518 515.92411 457.84375 518.78125 C 449.27231 521.63838 438.55804 529.49107 432.84375 533.0625 C 427.46377 536.42498 405.01469 565.74452 395.25 575.125 C 399.16036 560.24471 403.21596 545.83477 403.5625 543.0625 C 404.27678 537.34821 397.85714 510.23214 395 502.375 C 392.14286 494.51786 382.84374 469.51786 377.84375 462.375 C 372.84375 455.23214 345.71875 429.5 345.71875 429.5 L 355.71875 416.65625 L 361.4375 404.5 L 365.71875 401.65625 L 367.15625 393.78125 C 367.15625 393.78125 376.42857 375.20983 350 353.78125 C 325.71429 341.6384 310.00446 364.50892 305.71875 375.9375 C 301.43303 387.36607 304.28125 403.78126 304.28125 403.78125 C 304.28125 403.78125 304.20513 404.06602 304.1875 404.125 C 301.96953 406.02358 299.53141 407.58747 297.15625 408.0625 C 290.0134 409.49106 269.2991 404.50893 262.15625 405.9375 C 255.0134 407.36606 245.71429 409.51339 240 416.65625 C 234.28571 423.79911 230.72768 438.79018 227.15625 445.21875 C 223.58483 451.64732 212.15179 468.08482 211.4375 476.65625 C 210.72322 485.22768 207.14732 506.64733 210.71875 510.21875 C 214.29017 513.79017 235.71429 514.51786 235 517.375 C 234.28571 520.23214 232.84375 532.375 227.84375 537.375 C 222.84374 542.375 204.28125 566.66072 194.28125 587.375 C 184.28125 608.08929 151.43303 673.78125 150.71875 683.78125 C 150.38667 688.43026 152.10559 709.80855 154.28125 731.65625 L 199.125 731.65625 C 196.87865 713.36624 194.8342 697.41175 195.71875 695.9375 C 197.8616 692.36609 235.75299 630.26022 247.15625 629.5 C 275.0563 627.63997 276.8561 655.97609 329.875 731.65625 L 412.8125 731.65625 C 412.92456 731.1279 412.94058 730.63833 412.84375 730.21875 C 410.70089 720.933 347.15179 650.20536 336.4375 628.0625 C 334.28288 623.60961 332.34289 618.00339 330.65625 611.84375 C 329.20813 582.77184 327.01527 520.19766 332.84375 507.375 C 336.22817 499.92928 342.81276 494.58029 348.8125 491 C 356.39333 502.95199 362.34128 512.79029 363.5625 514.5 C 367.13393 519.5 375.70089 530.93752 377.84375 535.9375 C 379.98661 540.9375 371.80094 568.79221 371.4375 573.0625 C 369.7249 593.1856 368.75685 600.94778 367.96875 606.125 C 366.65106 607.22734 365.63041 607.75325 365 607.375 C 361.42857 605.23215 348.56697 598.78125 344.28125 598.78125 C 339.99554 598.78123 332.12947 606.65179 332.84375 610.9375 C 333.55803 615.22324 339.29464 628.7991 346.4375 631.65625 C 349.85663 633.0239 357.01694 633.54895 363.8125 633.75 C 362.67905 642.37668 361.97071 650.53956 363.5625 650.9375 C 366.41964 651.65179 370 638.78123 370 638.78125 C 370 638.78125 374.99106 663.06249 378.5625 663.0625 C 382.13393 663.0625 378.56249 645.21872 378.5625 645.21875 C 378.5625 645.21875 384.27231 664.49106 387.84375 663.0625 C 391.41518 661.63393 384.28125 638.06249 384.28125 638.0625 C 384.28125 638.0625 394.29911 656.64729 397.15625 655.21875 C 400.01339 653.79017 390.71875 634.49997 390.71875 634.5 C 390.71875 634.5 399.9866 643.80357 402.84375 642.375 C 405.7009 640.94643 396.41963 631.66072 393.5625 627.375 C 392.49107 625.76786 391.61998 624.03962 390.875 622.15625 C 407.14595 604.91999 436.36688 573.90692 450.71875 568.78125 C 463.10137 564.35888 502.54256 562.13355 531.84375 559.71875 C 529.81847 573.84102 528.03959 587.10398 527.15625 595.9375 C 524.2991 624.50893 530.71875 663.78568 535.71875 674.5 C 538.63544 680.75006 539.86294 708.73911 541.21875 731.65625 L 589.5 731.65625 C 586.10647 702.7459 574.58347 666.3964 570.71875 650.9375 C 565.71875 630.9375 585.70983 587.36163 589.28125 575.21875 C 592.85268 563.0759 597.84823 558.78123 608.5625 543.78125 C 619.27678 528.78125 615.71875 493.79911 615.71875 486.65625 C 615.71875 479.51339 625.7232 447.3482 626.4375 433.0625 C 627.15179 418.77678 612.13395 380.21874 603.5625 375.21875 C 603.20703 375.0114 602.85483 374.81804 602.46875 374.65625 C 599.26443 373.12391 595.79474 372.60468 592.21875 372.875 C 589.28048 369.50598 579.43007 358.21132 575.71875 354.5 C 571.43303 350.21428 557.86607 320.20982 551.4375 318.78125 C 548.22321 318.06697 542.84821 316.10714 536.0625 316.375 z "
       id="path2492" />
  </g>
</svg>
