<?xml version="1.0" encoding="UTF-8" standalone="no"?>
<!-- Created with Inkscape (http://www.inkscape.org/) -->
<svg
   xmlns:dc="http://purl.org/dc/elements/1.1/"
   xmlns:cc="http://web.resource.org/cc/"
   xmlns:rdf="http://www.w3.org/1999/02/22-rdf-syntax-ns#"
   xmlns:svg="http://www.w3.org/2000/svg"
   xmlns="http://www.w3.org/2000/svg"
   xmlns:sodipodi="http://sodipodi.sourceforge.net/DTD/sodipodi-0.dtd"
   xmlns:inkscape="http://www.inkscape.org/namespaces/inkscape"
   width="744.09448"
   height="1052.3622"
   id="svg2"
   sodipodi:version="0.32"
   inkscape:version="0.45.1"
   version="1.0"
   sodipodi:docbase="C:\Users\ieb\Documents\Kung Food card game\outlines"
   sodipodi:docname="perfect_coordination.svg"
   inkscape:output_extension="org.inkscape.output.svg.inkscape">
  <defs
     id="defs4" />
  <sodipodi:namedview
     id="base"
     pagecolor="#ffffff"
     bordercolor="#666666"
     borderopacity="1.0"
     gridtolerance="10000"
     guidetolerance="10"
     objecttolerance="10"
     inkscape:pageopacity="0.0"
     inkscape:pageshadow="2"
     inkscape:zoom="0.7"
     inkscape:cx="350.45081"
     inkscape:cy="563.09533"
     inkscape:document-units="px"
     inkscape:current-layer="layer2"
     inkscape:window-width="1280"
     inkscape:window-height="974"
     inkscape:window-x="-8"
     inkscape:window-y="-8" />
  <metadata
     id="metadata7">
    <rdf:RDF>
      <cc:Work
         rdf:about="">
        <dc:format>image/svg+xml</dc:format>
        <dc:type
           rdf:resource="http://purl.org/dc/dcmitype/StillImage" />
      </cc:Work>
    </rdf:RDF>
  </metadata>
  <g
     inkscape:groupmode="layer"
     id="layer2"
     inkscape:label="outline">
    <path
       style="fill:#000000;fill-rule:evenodd;stroke-width:1px;stroke-linecap:butt;stroke-linejoin:miter;stroke-opacity:1"
       d="M 559.5625,285.53125 C 558.34485,285.51893 557.05804,285.56696 555.71875,285.65625 C 532.14732,287.08483 515.70983,297.0759 514.28125,309.21875 C 512.85268,321.3616 516.42857,327.77678 515,332.0625 C 513.57143,336.3482 510.71875,345.65625 510.71875,345.65625 C 510.71875,345.65626 522.85268,346.34821 524.28125,352.0625 C 525.44822,356.73035 535.68432,359.02513 539,365.15625 C 536.99391,365.55787 535.26267,366.08194 533.75,366.6875 C 524.74551,363.27608 518.13542,361.13541 509.28125,361.65625 C 497.1384,362.37054 481.41518,360.9375 472.84375,360.9375 C 464.27231,360.93749 446.41964,366.64733 443.5625,365.21875 C 440.70535,363.79017 427.13393,359.49107 418.5625,358.0625 C 409.99106,356.63392 365.00446,360.92857 360.71875,359.5 C 356.43303,358.07143 349.28125,354.5 349.28125,354.5 L 339.28125,356.65625 L 322.15625,353.0625 L 313.5625,355.21875 L 304.28125,354.5 C 304.28125,354.5 297.84821,364.51786 298.5625,367.375 C 299.27677,370.23214 306.43303,372.36161 305.71875,375.21875 C 305.00446,378.07589 303.58036,388.78125 306.4375,388.78125 C 309.29465,388.78126 322.84375,389.51339 327.84375,386.65625 C 332.84374,383.79911 333.56697,376.65625 339.28125,376.65625 C 344.99554,376.65626 399.2991,393.78125 412.15625,393.78125 C 425.0134,393.78126 432.87053,393.06697 437.15625,393.78125 C 441.44197,394.49555 476.42857,410.22767 485,411.65625 C 489.15006,412.34793 504.35996,419.21124 519.34375,423.78125 C 520.01461,427.3502 520.97335,431.3806 522,435.5 C 519.69656,436.33159 500.24969,443.23374 487.84375,442.375 C 486.25036,442.26471 487.86607,428.0759 486.4375,425.21875 C 485.00894,422.3616 477.13393,413.08482 473.5625,411.65625 C 469.99106,410.22768 455.7009,412.37053 452.84375,411.65625 C 449.9866,410.94197 449.28125,415.21875 449.28125,415.21875 C 449.28125,415.21874 452.12947,420.21875 462.84375,420.21875 C 473.55803,420.21874 476.42411,431.64733 474.28125,435.21875 C 472.1384,438.79017 459.29017,453.80357 460.71875,457.375 C 462.14732,460.94643 467.14286,467.36607 475,465.9375 C 482.85714,464.50892 479.29464,463.06697 486.4375,463.78125 C 493.05058,464.44257 519.20804,467.55094 527.59375,466.875 C 527.80424,479.23529 527.19468,498.78308 526.78125,509.8125 C 524.01255,519.27357 519.8178,525.92033 513.5625,526.65625 C 501.41966,528.08483 440.01339,545.21428 432.15625,549.5 C 424.29911,553.78568 378.55804,574.50447 372.84375,580.21875 C 371.17115,581.89136 369.63322,583.9326 368.1875,586.25 C 352.00704,580.20555 329.32665,573.23087 324.28125,570.9375 C 316.42411,567.36607 260.71429,541.65626 255,536.65625 C 249.85622,532.15544 251.07956,529.78358 251.375,508.03125 C 252.65055,500.71682 253.94266,492.45389 254.28125,487.375 C 254.99554,476.66072 266.41964,454.50447 268.5625,440.21875 C 268.83146,438.42569 269.11488,436.32575 269.40625,434 C 275.11919,436.16453 280.79215,437.82873 285,438.0625 C 297.85714,438.77678 326.43751,433.06249 331.4375,433.0625 C 336.4375,433.0625 352.1384,439.50892 364.28125,440.9375 C 376.42411,442.36607 425.70983,435.94643 429.28125,437.375 C 432.85268,438.80357 436.43751,439.5 436.4375,439.5 C 436.4375,439.5 439.27677,449.5134 443.5625,451.65625 C 447.84821,453.7991 450.71429,454.51786 455,452.375 C 459.28571,450.23214 466.42857,440.94643 470,437.375 C 473.57143,433.80357 470.0134,429.50892 467.15625,425.9375 C 464.29911,422.36607 455.72323,424.51786 451.4375,422.375 C 448.24312,420.77781 445,415.93749 445,415.9375 C 445,415.9375 427.86608,415.21874 421.4375,415.21875 C 415.00893,415.21875 370.00894,402.37054 361.4375,401.65625 C 352.86607,400.94196 334.99554,401.64732 329.28125,400.21875 C 323.56697,398.79018 302.8616,394.5 295.71875,394.5 C 294.75171,394.5 293.74591,394.42241 292.6875,394.28125 C 294.17972,392.78079 295.36582,391.52571 295.71875,390.9375 C 297.8616,387.36607 302.84374,388.06249 302.84375,388.0625 C 302.84375,388.0625 302.15626,383.07143 302.15625,379.5 C 302.15625,375.92857 300.0134,372.36606 297.15625,370.9375 C 294.2991,369.50893 298.58037,356.66072 301.4375,352.375 C 304.29464,348.08929 309.99554,355.23214 314.28125,352.375 C 318.56697,349.51786 324.99106,352.35269 323.5625,348.78125 C 322.13393,345.20982 316.43751,342.3616 311.4375,340.21875 C 306.4375,338.0759 291.43751,345.21874 291.4375,345.21875 C 291.4375,345.21875 279.9866,372.375 277.84375,377.375 C 276.44305,380.64332 273.20259,384.22704 268.9375,387.90625 C 268.61105,387.37699 268.24554,386.96875 267.84375,386.65625 C 261.51952,381.73742 236.54769,383.02044 228.9375,380.34375 C 234.82595,371.60525 248.21375,378.375 254.84375,378.375 C 261.98661,378.375 261.99554,365.51786 266.28125,363.375 C 270.56697,361.23214 277,361.21874 277,361.21875 C 277,361.21875 273.43751,351.93749 278.4375,341.9375 C 291.59276,315.62694 276.29911,300.50446 259.15625,291.21875 C 202.01339,279.0759 214.8616,339.07143 212.71875,345.5 C 211.15148,350.20181 200.46781,362.48925 194.8125,368.78125 C 174.00624,364.82447 157.09812,362.20316 148.5625,365.9375 C 137.13393,370.93749 122.85714,396.63393 125,403.0625 C 127.14286,409.49106 136.43303,437.34821 135.71875,443.0625 C 135.00446,448.77677 151.43303,465.21428 150.71875,484.5 C 150.64926,486.37616 150.56883,488.68412 150.5,490.75 C 150.32166,492.47096 149.41455,501.40097 148.1875,512.84375 C 147.54724,513.59021 147.19637,514.37616 147.15625,515.21875 C 146.72611,524.25156 144.98963,535.61027 142.28125,545.25 C 128.94552,559.66786 70.430765,591.82945 62.15625,596.65625 C 53.584821,601.65625 45,605.9375 45,605.9375 L 45,698.0625 C 45,698.06249 114.27232,667.37053 132.84375,661.65625 C 139.02368,659.75473 150.32675,655.88701 162.65625,651.53125 C 170.33757,649.83234 175.61873,647.49607 181.09375,644.9375 C 190.11868,641.64661 198.62372,638.43567 205.5,635.75 C 209.12222,634.81335 213.13795,633.89908 217.84375,633.0625 C 249.98661,627.34821 315.70535,650.21872 333.5625,660.21875 C 334.4992,660.7433 335.46582,661.52518 336.4375,662.5 C 329.80761,679.22298 324.01873,695.13143 322.84375,703.0625 C 319.9866,722.3482 309.27678,747.375 308.5625,752.375 C 308.27237,754.40586 316.51609,759.10582 326.78125,763.78125 C 325.23506,774.22787 322.8364,784.39388 319.28125,786.65625 C 311.42411,791.65626 292.12947,803.77678 282.84375,803.0625 C 273.55803,802.3482 249.28125,807.34821 264.28125,818.0625 C 279.28125,828.77677 280,824.50446 290,825.21875 C 300,825.933 314.29464,815.94643 321.4375,817.375 C 328.58037,818.80357 345,820.92857 350,814.5 C 355,808.0714 347.85268,799.5 349.28125,794.5 C 349.89727,792.34393 351.34199,783.26804 352.75,773.65625 C 358.68492,775.36188 363.33667,776.14282 365,775.21875 C 369.1555,772.91012 372.13169,766.42931 375.25,761.9375 C 376.89541,767.82292 378.18317,772.51682 378.5625,773.78125 C 379.37184,776.47903 382.02514,777.63735 386.15625,778.125 C 385.8646,781.3298 385.49049,784.13905 385,785.9375 C 382.85714,793.79466 374.27678,811.64732 378.5625,815.21875 C 382.8482,818.79014 401.44196,813.78125 407.15625,813.78125 C 412.87054,813.78123 449.99107,825.21875 453.5625,825.21875 C 457.13392,825.21872 464.29017,820.93303 460.71875,815.21875 C 457.14732,809.50443 437.15179,807.3616 431.4375,800.21875 C 427.66403,795.50188 420.77225,788.58784 415.5,778.6875 C 416.0501,778.71824 416.59729,778.74399 417.15625,778.78125 C 438.58482,780.20983 457.14732,770.20535 455.71875,763.0625 C 454.29017,755.91964 421.42411,710.22324 414.28125,700.9375 C 412.77063,698.97369 410.68271,693.17388 408.3125,685.40625 C 415.15603,666.44583 421.5027,650.66441 425,648.78125 C 434.28571,643.78123 492.87053,603.7991 557.15625,611.65625 C 566.16918,612.75783 574.24298,612.01352 581.4375,609.875 C 588.07128,610.6617 594.15997,611.67548 599.28125,613.0625 C 633.56697,622.34821 665.71875,640.21872 665.71875,640.21875 L 666.4375,543.78125 C 666.4375,543.78125 665.71875,543.80357 655.71875,542.375 C 648.02619,541.27606 639.0605,533.79875 627.53125,518.71875 C 621.70211,506.48686 627.24666,485.27003 628.5625,477.375 C 628.63926,476.91446 628.40731,476.5141 627.9375,476.15625 C 628.01945,475.14832 628.21046,473.15147 628.34375,471.65625 C 640.15518,473.427 648.23257,473.69474 649.28125,469.5 C 651.42411,460.92857 655.7009,409.51786 652.84375,402.375 C 650.17248,395.69675 635.01722,367.7984 627.21875,366.53125 C 623.07339,363.54698 618.7233,361.19838 616.4375,360.21875 C 612.25569,358.42655 601.51492,361.64969 577.65625,364 C 577.15156,359.89355 575.1764,342.91384 576.4375,338.5 C 577.82141,333.65625 597.30969,285.91304 559.5625,285.53125 z "
       id="path2717" />
  </g>
</svg>
