<?xml version="1.0" encoding="UTF-8" standalone="no"?>
<!-- Created with Inkscape (http://www.inkscape.org/) -->
<svg
   xmlns:dc="http://purl.org/dc/elements/1.1/"
   xmlns:cc="http://web.resource.org/cc/"
   xmlns:rdf="http://www.w3.org/1999/02/22-rdf-syntax-ns#"
   xmlns:svg="http://www.w3.org/2000/svg"
   xmlns="http://www.w3.org/2000/svg"
   xmlns:sodipodi="http://sodipodi.sourceforge.net/DTD/sodipodi-0.dtd"
   xmlns:inkscape="http://www.inkscape.org/namespaces/inkscape"
   width="744.09448"
   height="1052.3622"
   id="svg2"
   sodipodi:version="0.32"
   inkscape:version="0.45.1"
   version="1.0"
   sodipodi:docbase="C:\Users\ieb\Documents\Kung Food card game\outlines"
   sodipodi:docname="short_punch.svg"
   inkscape:output_extension="org.inkscape.output.svg.inkscape">
  <defs
     id="defs4" />
  <sodipodi:namedview
     id="base"
     pagecolor="#ffffff"
     bordercolor="#666666"
     borderopacity="1.0"
     gridtolerance="10000"
     guidetolerance="10"
     objecttolerance="10"
     inkscape:pageopacity="0.0"
     inkscape:pageshadow="2"
     inkscape:zoom="0.49497475"
     inkscape:cx="776.49107"
     inkscape:cy="292.03371"
     inkscape:document-units="px"
     inkscape:current-layer="layer2"
     inkscape:window-width="1280"
     inkscape:window-height="974"
     inkscape:window-x="-8"
     inkscape:window-y="-8" />
  <metadata
     id="metadata7">
    <rdf:RDF>
      <cc:Work
         rdf:about="">
        <dc:format>image/svg+xml</dc:format>
        <dc:type
           rdf:resource="http://purl.org/dc/dcmitype/StillImage" />
      </cc:Work>
    </rdf:RDF>
  </metadata>
  <g
     inkscape:groupmode="layer"
     id="layer2"
     inkscape:label="outline">
    <path
       style="fill:#000000;fill-rule:evenodd;stroke-width:1px;stroke-linecap:butt;stroke-linejoin:miter;stroke-opacity:1"
       d="M 324.70909,132.12703 C 310.18696,132.12703 298.30919,137.38643 287.74763,154.54895 C 277.18609,171.71146 285.08071,204.70423 290.36148,212.62541 C 294.90542,219.44132 295.54155,243.65574 295.63002,250.6079 C 288.11477,251.09633 281.6817,252.38959 277.16971,254.89625 C 259.92896,261.79256 250.59152,280.51487 245.80352,299.29084 C 232.00499,318.24008 218.89175,352.47942 217.74549,359.53189 C 216.42527,367.65449 212.47903,383.8982 220.40018,387.50824 C 224.2382,389.25742 236.13589,390.82224 248.13148,391.42901 C 250.90944,415.61905 252.5771,440.30789 248.13148,455.55 C 238.89014,487.23462 219.08205,532.11848 228.32341,549.28099 C 229.77213,551.97147 231.52318,554.8104 233.46942,557.69431 C 232.76152,585.13472 228.64324,621.95753 219.09325,635.08875 C 208.53172,649.61086 164.95084,697.17076 163.63065,709.0525 C 165.09668,713.81709 169.11479,719.15772 174.45362,724.40887 C 172.35088,731.74351 170.81501,739.55374 170.24695,744.6662 C 168.92676,756.54793 154.41168,781.62969 145.17034,789.55088 C 135.92898,797.47205 135.91469,810.70776 142.51565,814.66834 C 150.5205,819.47125 160.97805,818.61568 168.89919,815.97526 C 176.82035,813.33488 221.70916,813.31951 229.63033,809.35896 C 237.55148,805.39838 250.77188,796.17941 248.13148,790.89865 C 245.4911,785.61788 221.71932,781.62763 216.43856,781.62765 C 211.15779,781.62765 199.26982,788.24294 192.66888,784.28235 C 188.68397,781.89141 198.16464,761.72535 206.3099,746.09565 C 212.40308,748.79004 217.87775,750.3237 221.7071,749.97558 C 236.22924,748.65534 250.78825,732.77927 258.7094,724.85812 C 264.46882,719.09872 294.48941,668.96355 310.53713,641.86842 C 336.68011,669.19663 365.08984,699.92012 364.32524,703.74312 C 363.00505,710.34406 347.15962,742.05441 352.44039,749.97558 C 353.70936,751.87902 357.44849,755.5367 362.40569,760.10424 C 355.93182,771.31006 353.65011,814.55317 352.44039,827.86011 C 351.12019,842.38222 328.65537,880.64147 322.0544,883.28187 C 315.45342,885.92227 318.10814,900.46383 324.70909,905.74464 C 331.31005,911.02541 348.45536,908.39934 362.97747,908.39933 C 377.49958,908.39933 418.41458,914.97478 425.01554,914.97479 C 431.6165,914.97479 440.86202,908.36966 440.862,899.12833 C 440.862,889.88699 431.65631,891.20509 421.09477,891.2051 C 410.53323,891.2051 390.71893,880.67817 377.51701,867.47626 C 368.09949,858.05874 388.82544,817.81497 401.53174,795.47289 C 405.47375,799.30633 408.36976,802.41008 409.20992,804.09042 C 413.17049,812.01161 442.2108,818.61358 446.17138,808.05203 C 450.13195,797.49052 459.37642,691.8562 458.05623,683.93505 C 456.73604,676.01385 389.40994,563.82966 368.28685,546.66714 C 347.16376,529.50465 360.35242,462.16319 369.59378,450.28146 C 378.83512,438.39972 402.60689,396.16247 401.2867,380.32016 C 401.06637,377.67631 400.90264,372.02669 400.75576,365.41305 C 408.42003,363.33592 415.7854,357.85741 415.78539,357.85739 C 415.78539,357.85739 439.81249,364.99845 446.17138,361.81901 C 456.73293,356.53824 464.64911,349.9433 479.17123,332.78078 C 490.77012,319.07297 505.57013,282.62547 512.17107,274.70432 C 518.77204,266.78317 534.98344,261.44231 543.86399,253.54848 C 555.74572,242.98694 535.93872,232.43141 528.01753,224.51025 C 516.20936,212.70209 501.62073,231.12865 502.94091,239.04979 C 504.2611,246.97095 501.61761,250.93671 491.05607,258.85786 C 480.49453,266.77901 464.62859,268.09114 452.74685,279.97286 C 440.86511,291.8546 432.95202,311.63509 431.63185,298.43317 C 430.59985,288.11317 405.59714,275.52729 394.62955,270.45682 C 393.25286,264.87754 391.54381,261.47171 389.40185,261.47171 C 384.79546,261.47171 370.42199,258.50708 353.21638,255.63139 C 356.97387,246.65962 371.56112,245.27799 377.51701,241.70448 C 384.11798,237.7439 376.1968,236.41955 377.51701,225.85802 C 378.83721,215.29646 381.47964,212.63764 385.44024,207.35687 C 389.40082,202.0761 380.1431,191.50937 374.86232,187.5488 C 369.58154,183.58821 381.46432,177.00862 378.82393,165.12687 C 376.18354,153.24514 361.67451,132.12703 324.70909,132.12703 z "
       id="path2745" />
  </g>
</svg>
