<?xml version="1.0" encoding="UTF-8" standalone="no"?>
<!-- Created with Inkscape (http://www.inkscape.org/) -->
<svg
   xmlns:dc="http://purl.org/dc/elements/1.1/"
   xmlns:cc="http://web.resource.org/cc/"
   xmlns:rdf="http://www.w3.org/1999/02/22-rdf-syntax-ns#"
   xmlns:svg="http://www.w3.org/2000/svg"
   xmlns="http://www.w3.org/2000/svg"
   xmlns:sodipodi="http://sodipodi.sourceforge.net/DTD/sodipodi-0.dtd"
   xmlns:inkscape="http://www.inkscape.org/namespaces/inkscape"
   width="744.09448"
   height="1052.3622"
   id="svg2"
   sodipodi:version="0.32"
   inkscape:version="0.45.1"
   version="1.0"
   sodipodi:docbase="C:\Users\ieb\Documents\Kung Food card game\outlines"
   sodipodi:docname="sonic_boom.svg"
   inkscape:output_extension="org.inkscape.output.svg.inkscape">
  <defs
     id="defs4" />
  <sodipodi:namedview
     id="base"
     pagecolor="#ffffff"
     bordercolor="#666666"
     borderopacity="1.0"
     gridtolerance="10000"
     guidetolerance="10"
     objecttolerance="10"
     inkscape:pageopacity="0.0"
     inkscape:pageshadow="2"
     inkscape:zoom="0.98994949"
     inkscape:cx="412.08634"
     inkscape:cy="488.03829"
     inkscape:document-units="px"
     inkscape:current-layer="layer2"
     inkscape:window-width="1280"
     inkscape:window-height="974"
     inkscape:window-x="-8"
     inkscape:window-y="-8" />
  <metadata
     id="metadata7">
    <rdf:RDF>
      <cc:Work
         rdf:about="">
        <dc:format>image/svg+xml</dc:format>
        <dc:type
           rdf:resource="http://purl.org/dc/dcmitype/StillImage" />
      </cc:Work>
    </rdf:RDF>
  </metadata>
  <g
     inkscape:groupmode="layer"
     id="layer2"
     inkscape:label="outline">
    <path
       style="fill:#000000;fill-rule:evenodd;stroke-width:1px;stroke-linecap:butt;stroke-linejoin:miter;stroke-opacity:1"
       d="M 154.8125,400.28125 C 154.81249,400.28125 95.501599,436.48041 109.40625,508.34375 C 103.82696,564.74833 142.65625,601.25 142.65625,601.25 C 142.65625,601.25001 121.57128,577.32301 115.96875,540.125 C 131.41215,586.83512 172.34375,606.5625 172.34375,606.5625 C 172.34375,606.5625 141.26679,587.82653 125.34375,549.3125 C 151.48979,590.82557 195.8125,600.1875 195.8125,600.1875 C 195.81249,600.18749 133.61366,580.81613 116.625,513.1875 C 116.35235,509.93873 116.20634,506.60984 116.1875,503.1875 C 116.18663,503.02885 116.1877,502.877 116.1875,502.71875 C 117.08706,497.22183 118.39702,491.56612 120.1875,485.78125 C 140.80464,419.16911 211.46875,409.15625 211.46875,409.15625 C 211.46875,409.15625 155.53907,409.25097 125.65625,458.84375 C 143.47218,420.22077 180.1875,402.65625 180.1875,402.65625 C 180.1875,402.65625 130.59298,418.38775 114.875,469.96875 C 122.29941,426.97488 154.8125,400.28125 154.8125,400.28125 z M 315.375,411.53125 C 310.733,411.53451 306.19813,413.14911 302.03125,416.96875 C 282.83835,431.11089 292.93909,454.34534 299,460.40625 C 300.37776,461.78402 302.23008,463.95098 304.3125,466.375 C 296.32908,467.07131 287.78118,467.84375 282.875,467.84375 C 272.97194,467.84376 261.40179,475.03125 255.625,475.03125 C 249.84822,475.03126 237.48279,472.625 232.53125,472.625 C 228.40102,472.62499 205.34147,480.41123 191.09375,483 C 188.76423,479.80301 184.89671,475.5625 180.6875,475.5625 C 173.92856,475.56249 168.0067,482.27795 162.9375,481.4375 C 157.8683,480.59706 152.81026,481.44592 154.5,491.53125 C 156.18974,501.61658 157.86607,512.54116 164.625,515.0625 C 171.38393,517.58379 174.76897,510.03786 184.0625,511.71875 C 193.35603,513.39964 195.03125,511.69561 195.03125,505.8125 C 195.03125,505.06183 195.05277,504.20332 195.09375,503.25 C 209.94133,504.24771 229.83121,507.875 235.8125,507.875 C 243.23981,507.87499 250.68622,502.28125 254.8125,502.28125 C 258.93877,502.28126 282.85266,506.28125 294.40625,506.28125 C 301.12053,506.28126 312.01106,507.35916 321.09375,505.75 C 325.29235,514.2566 322.94787,514.07983 327.28125,516.96875 C 333.34216,521.00937 348.49143,517.98208 355.5625,529.09375 C 360.54017,536.91582 360.50677,545.72741 360.40625,553.4375 C 331.81848,557.22841 328.78445,564.786 309.09375,583.65625 C 291.02673,608.77691 279.81629,620.76874 284.875,636.1875 C 287.90546,640.22812 311.11643,658.39847 318.1875,668.5 C 325.25856,678.60153 329.3125,701.84375 329.3125,701.84375 C 329.3125,701.84376 340.38651,697.02079 353.375,691.25 C 354.55252,698.83237 352.2196,706.20153 344.53125,712.96875 C 339.16953,717.68811 312.13203,730.93626 317.4375,735.71875 C 327.86108,745.11492 362.35545,733.07937 373.6875,728.21875 C 385.01953,723.35811 393.09124,729.18467 402.28125,719.75 C 406.07693,715.85325 401.5828,708.25505 389.59375,696.46875 C 386.08344,693.01782 387.55856,691.62703 377.28125,680.4375 C 386.16571,676.31402 393.39038,672.79394 394.96875,671.53125 C 400.01952,667.49064 350.01721,639.62134 348.5,631.125 C 343.44925,602.84076 394.96256,602.8336 411.125,603.84375 C 427.28745,604.85393 509.10628,649.31567 517.1875,661.4375 C 522.7776,669.82266 537.08327,651.12769 546.03125,635.46875 C 555.07012,639.77661 562.09732,647.71047 564.5,658.65625 C 566.03146,665.633 571.46482,691.481 578.21875,689.15625 C 591.48816,684.58877 587.88801,645.48704 589.125,633.21875 C 590.36198,620.95048 599.33345,616.67251 595.53125,604.0625 C 593.96085,598.85427 585.14995,599.12699 569.03125,603.90625 C 564.67421,605.19812 563.92469,603.62886 552.21875,606.1875 C 549.52982,596.59387 544.13602,586.6875 541.4375,586.6875 C 537.82351,586.68748 464.7452,556.00381 432,551.6875 C 432.8533,548.67739 433.34375,546.03301 433.34375,544.25 C 433.34375,537.14795 404.49351,508.20835 396.8125,495.8125 C 396.87416,495.79454 396.9381,495.80059 397,495.78125 C 413.16244,490.73049 438.40626,476.5625 438.40625,476.5625 C 438.40625,476.5625 453.55077,497.80394 448.5,504.875 C 443.44924,511.94607 439.42735,512.92973 440.4375,523.03125 C 440.4375,523.03125 452.55313,541.22969 456.59375,543.25 C 460.63436,545.2703 474.77109,529.11323 475.78125,524.0625 C 476.7914,519.01174 470.73906,500.82106 468.71875,493.75 C 466.69845,486.67893 468.69845,466.48827 470.71875,461.4375 C 472.73905,456.38674 459.62499,447.28124 459.625,447.28125 C 459.625,447.28125 429.29997,446.28125 421.21875,446.28125 C 415.58529,446.28125 401.13008,449.22504 387.40625,453.0625 C 386.92548,452.75489 386.42526,452.50883 385.875,452.34375 C 382.34317,451.2842 373.09431,451.70036 362.5625,453 C 357.44711,441.26159 335.3406,411.51721 315.375,411.53125 z "
       id="path2344" />
  </g>
</svg>
