<?xml version="1.0" encoding="UTF-8" standalone="no"?>
<!-- Created with Inkscape (http://www.inkscape.org/) -->
<svg
   xmlns:dc="http://purl.org/dc/elements/1.1/"
   xmlns:cc="http://web.resource.org/cc/"
   xmlns:rdf="http://www.w3.org/1999/02/22-rdf-syntax-ns#"
   xmlns:svg="http://www.w3.org/2000/svg"
   xmlns="http://www.w3.org/2000/svg"
   xmlns:sodipodi="http://sodipodi.sourceforge.net/DTD/sodipodi-0.dtd"
   xmlns:inkscape="http://www.inkscape.org/namespaces/inkscape"
   width="744.09448"
   height="1052.3622"
   id="svg2"
   sodipodi:version="0.32"
   inkscape:version="0.45.1"
   version="1.0"
   sodipodi:docbase="C:\Users\ieb\Documents\Kung Food card game\outlines"
   sodipodi:docname="splits_kick.svg"
   inkscape:output_extension="org.inkscape.output.svg.inkscape">
  <defs
     id="defs4" />
  <sodipodi:namedview
     id="base"
     pagecolor="#ffffff"
     bordercolor="#666666"
     borderopacity="1.0"
     gridtolerance="10000"
     guidetolerance="10"
     objecttolerance="10"
     inkscape:pageopacity="0.0"
     inkscape:pageshadow="2"
     inkscape:zoom="1.729517"
     inkscape:cx="411.37619"
     inkscape:cy="523.94914"
     inkscape:document-units="px"
     inkscape:current-layer="layer2"
     inkscape:window-width="1280"
     inkscape:window-height="974"
     inkscape:window-x="-8"
     inkscape:window-y="-8" />
  <metadata
     id="metadata7">
    <rdf:RDF>
      <cc:Work
         rdf:about="">
        <dc:format>image/svg+xml</dc:format>
        <dc:type
           rdf:resource="http://purl.org/dc/dcmitype/StillImage" />
      </cc:Work>
    </rdf:RDF>
  </metadata>
  <g
     inkscape:groupmode="layer"
     id="layer2"
     inkscape:label="outline">
    <path
       style="fill:#000000;fill-rule:evenodd;stroke-width:1px;stroke-linecap:butt;stroke-linejoin:miter;stroke-opacity:1"
       d="M 386.43834,343.80202 C 362.32371,344.17217 351.13744,362.17063 349.15709,372.86452 C 347.46992,381.97531 345.23202,401.37909 348.40709,412.02077 C 334.40377,412.23111 331.15011,414.22253 328.31334,416.20827 C 324.22488,419.07018 310.32372,429.69538 308.68834,436.64577 C 307.00018,443.82041 304.58681,459.11721 305.81334,463.61452 C 307.03988,468.11182 312.77949,483.2474 313.18834,486.92702 C 313.23031,487.30475 313.24829,487.74109 313.28209,488.14577 C 309.81255,486.70894 287.31741,477.41709 282.03209,475.83327 C 276.31844,474.12106 242.03208,458.70826 242.03209,458.70827 C 242.03209,458.70827 228.83949,455.72643 223.12584,452.30202 C 217.41217,448.87761 195.89596,444.59852 191.50084,442.45827 C 187.10571,440.31801 180.11758,430.49981 174.78209,423.39577 C 170.55317,417.7651 159.73296,392.31053 150.62584,395.36452 C 142.46166,398.1023 156.77604,435.18066 158.09459,438.17702 C 159.41312,441.17337 159.96132,464.03296 164.25084,466.45827 C 169.64695,469.50923 173.47671,465.98953 178.75084,465.98952 C 184.025,465.98952 198.9696,476.27076 198.96959,476.27077 C 198.96959,476.69883 205.12515,483.21135 208.64125,486.2077 C 212.15734,489.20406 224.00083,494.67701 224.00084,494.67702 C 233.22119,505.44092 243.7718,515.00612 256.81348,522.53661 C 258.0107,523.20289 261.60112,523.9523 267.62584,527.23952 C 264.48968,534.09859 262.16513,541.40381 265.34459,544.58327 C 269.47293,548.71161 290.08919,548.48405 297.50084,545.14577 C 309.09332,553.4578 317.84557,558.05289 332.12584,558.89577 C 332.37696,558.91059 332.62099,558.89207 332.84459,558.86452 C 334.22395,565.14106 333.92209,572.61796 335.25084,573.61452 C 336.88622,574.84107 349.98795,576.86972 356.93834,576.05202 C 363.88872,575.2343 373.68834,567.0624 373.68834,565.42702 C 373.68834,564.29812 368.62221,557.7198 366.15709,552.27077 C 383.0086,549.20095 409.90503,539.97979 414.56334,538.42702 C 420.69602,536.38279 437.87087,522.71075 444.00084,519.64577 C 450.54239,516.37502 462.00612,503.68741 466.09459,502.05202 C 468.49544,501.09169 480.38632,498.3775 483.65709,496.33327 C 486.92786,494.28904 505.75603,482.42442 504.93834,482.83327 C 515.56834,476.29173 520.03998,470.15096 523.71959,469.33327 C 527.3992,468.51557 538.4567,474.23943 545.40709,469.33327 C 552.3575,464.4271 554.79776,446.85664 557.25084,443.17702 C 559.70392,439.49739 581.78988,414.54934 580.56334,410.05202 C 579.33678,405.55472 570.46516,408.79532 565.43834,412.11452 C 557.65821,417.2517 548.67786,428.45048 545.40709,429.67702 C 542.13634,430.90356 526.60229,449.32548 520.46959,450.55202 C 514.33693,451.77857 493.47729,455.85154 487.34459,457.89577 C 481.21188,459.93999 461.59459,463.20827 461.59459,463.20827 C 461.59458,463.20828 439.11527,465.2552 430.93834,467.70827 C 425.13973,469.44786 411.39126,477.70384 402.09459,482.83327 C 408.87692,473.78311 419.18806,459.56089 420.28209,455.45827 C 421.91748,449.32557 421.10229,426.01029 414.96959,422.73952 C 411.54101,420.91094 399.13118,417.97059 388.84459,415.77077 C 395.98106,407.23452 405.32133,395.07091 406.40709,391.27077 C 408.04248,385.54691 408.44613,360.60404 407.21959,357.33327 C 405.99304,354.06251 393.31065,344.65096 388.81334,343.83327 C 388.00842,343.80772 387.21623,343.79008 386.43834,343.80202 z "
       id="path2327"
       sodipodi:nodetypes="cscsssscscssssssssscccscscssscsssscsssssssscscsscsscc" />
  </g>
</svg>
