<?xml version="1.0" encoding="UTF-8" standalone="no"?>
<!-- Created with Inkscape (http://www.inkscape.org/) -->
<svg
   xmlns:dc="http://purl.org/dc/elements/1.1/"
   xmlns:cc="http://web.resource.org/cc/"
   xmlns:rdf="http://www.w3.org/1999/02/22-rdf-syntax-ns#"
   xmlns:svg="http://www.w3.org/2000/svg"
   xmlns="http://www.w3.org/2000/svg"
   xmlns:sodipodi="http://sodipodi.sourceforge.net/DTD/sodipodi-0.dtd"
   xmlns:inkscape="http://www.inkscape.org/namespaces/inkscape"
   width="744.09448"
   height="1052.3622"
   id="svg2"
   sodipodi:version="0.32"
   inkscape:version="0.45.1"
   version="1.0"
   sodipodi:docbase="C:\Users\ieb\Documents\Kung Food card game\outlines"
   sodipodi:docname="start1.svg"
   inkscape:output_extension="org.inkscape.output.svg.inkscape">
  <defs
     id="defs4" />
  <sodipodi:namedview
     id="base"
     pagecolor="#ffffff"
     bordercolor="#666666"
     borderopacity="1.0"
     gridtolerance="10000"
     guidetolerance="10"
     objecttolerance="10"
     inkscape:pageopacity="0.0"
     inkscape:pageshadow="2"
     inkscape:zoom="0.98994949"
     inkscape:cx="497.69771"
     inkscape:cy="534.11968"
     inkscape:document-units="px"
     inkscape:current-layer="layer2"
     inkscape:window-width="1280"
     inkscape:window-height="974"
     inkscape:window-x="-8"
     inkscape:window-y="-8" />
  <metadata
     id="metadata7">
    <rdf:RDF>
      <cc:Work
         rdf:about="">
        <dc:format>image/svg+xml</dc:format>
        <dc:type
           rdf:resource="http://purl.org/dc/dcmitype/StillImage" />
      </cc:Work>
    </rdf:RDF>
  </metadata>
  <g
     inkscape:groupmode="layer"
     id="layer2"
     inkscape:label="outline"
     style="display:inline">
    <g
       id="g13741"
       style="fill:#000000;fill-opacity:1"
       transform="translate(63.63961,23.233509)">
      <path
         id="path3062"
         d="M 376.78571,352.71932 C 376.78571,352.71932 367.85714,342.71932 360,339.50504 C 352.14286,336.29075 345.71429,308.07647 345.71429,308.07647 C 345.71429,308.07647 331.42857,288.79075 319.28571,286.29075 C 307.14286,283.79075 261.42857,270.21932 261.42857,270.21932 C 261.42857,270.21932 251.78571,274.1479 241.78571,280.93361 C 231.78571,287.71932 226.78571,294.1479 225,298.07647 C 223.21429,302.00504 232.85714,366.29075 234.64286,425.57647 C 236.42857,484.86218 326.78571,428.79075 326.78571,428.79075 C 326.78571,428.79075 337.5,383.79075 337.85714,370.57647 C 338.21429,357.36218 377.14286,353.43361 376.78571,352.71932 z "
         style="fill:#000000;fill-opacity:1;fill-rule:evenodd;stroke:none;stroke-width:1px;stroke-linecap:butt;stroke-linejoin:miter;stroke-opacity:1" />
      <path
         id="path5002"
         d="M 403.57143,303.43361 C 403.57143,303.43361 403.92857,313.07647 401.07143,317.71932 C 398.21429,322.36218 402.5,333.07647 402.5,333.07647 L 416.42857,350.57647 C 416.42857,350.57647 425.35714,337.00504 426.42857,332.71932 C 427.5,328.43361 430.71429,310.57647 430.71429,307.71932 C 430.71429,304.86218 430,302.00504 430,302.00504 C 430,302.00504 428.57143,300.21932 427.5,302.36218 C 426.42857,304.50504 428.21429,293.43361 424.64286,294.86218 C 421.07143,296.29075 414.28571,316.29075 414.28571,316.29075 C 414.28571,316.29075 412.14286,305.21932 403.57143,303.43361 z "
         style="fill:#000000;fill-opacity:1;fill-rule:evenodd;stroke:none;stroke-width:1px;stroke-linecap:butt;stroke-linejoin:miter;stroke-opacity:1" />
      <path
         id="path5973"
         d="M 408.92857,318.07647 L 410.71429,297.36218 L 412.85714,295.57647 C 412.85714,295.57647 411.78571,292.71932 414.28571,292.71932 C 416.78571,292.71932 417.5,291.6479 419.64286,291.6479 C 421.78571,291.6479 421.07143,294.1479 422.85714,294.86218 C 424.64286,295.57647 425.71429,298.43361 425.71429,298.43361 L 418.21429,326.6479 L 408.92857,318.07647 z "
         style="fill:#000000;fill-opacity:1;fill-rule:evenodd;stroke:none;stroke-width:1px;stroke-linecap:butt;stroke-linejoin:miter;stroke-opacity:1" />
      <path
         id="path6944"
         d="M 402.85714,331.29075 L 399.64286,339.50504 C 399.64286,339.50504 390.71429,347.36218 386.78571,351.6479 C 382.85714,355.93361 366.42857,348.43361 366.42857,348.43361 L 330.35714,367.36218 L 341.42857,370.21932 C 341.42857,370.21932 344.28571,377.00504 354.64286,383.43361 C 365,389.86218 373.21429,393.43361 376.42857,392.71932 C 379.64286,392.00504 411.07143,368.79075 412.5,368.07647 C 413.92857,367.36218 414.28571,353.79075 414.28571,353.79075 L 418.92857,346.29075 L 402.85714,331.29075 z "
         style="fill:#000000;fill-opacity:1;fill-rule:evenodd;stroke:none;stroke-width:1px;stroke-linecap:butt;stroke-linejoin:miter;stroke-opacity:1" />
      <path
         id="path7915"
         d="M 320.35714,288.43361 C 320.35714,288.43361 316.78571,282.00504 321.07143,278.79075 C 325.35714,275.57647 328.21429,274.1479 328.21429,274.1479 C 328.21429,274.1479 324.28571,265.93361 323.92857,262.36218 C 323.57143,258.79075 330.35714,258.79075 329.64286,257.36218 C 328.92857,255.93361 330,239.1479 327.85714,236.29075 C 325.71429,233.43361 319.28571,219.1479 303.21429,218.43361 C 287.14286,217.71932 283.57143,220.21932 280.71429,222.71932 C 277.85714,225.21932 270,236.6479 269.64286,240.57647 C 269.28571,244.50504 273.92857,264.1479 270,277.36218 C 266.07143,290.57647 321.42857,289.50504 320.35714,288.43361 z "
         style="fill:#000000;fill-opacity:1;fill-rule:evenodd;stroke:none;stroke-width:1px;stroke-linecap:butt;stroke-linejoin:miter;stroke-opacity:1" />
      <path
         id="path8886"
         d="M 330.35714,401.29075 C 330.35714,401.29075 335.71429,406.29075 337.14286,405.57647 C 338.57143,404.86218 339.28571,401.29075 343.21429,400.93361 C 347.14286,400.57647 362.5,400.21932 365,400.21932 C 367.5,400.21932 359.64286,404.50504 359.64286,404.50504 C 359.64286,404.50504 381.42857,405.21932 381.07143,407.36218 C 380.71429,409.50504 376.42857,410.21932 376.42857,410.21932 C 376.42857,410.21932 385,410.93361 384.28571,413.07647 C 383.57143,415.21932 378.21429,415.57647 378.21429,415.57647 C 378.21429,415.57647 381.42857,415.21932 380.71429,417.36218 C 380,419.50504 366.42857,422.36218 366.42857,422.36218 C 366.42857,422.36218 373.92857,422.36218 373.57143,424.50504 C 373.21429,426.6479 360.71429,427.36218 352.14286,427.71932 C 343.57143,428.07647 341.07143,425.57647 335.71429,425.21932 C 330.35714,424.86218 321.78571,419.50504 321.78571,419.50504 L 330.35714,401.29075 z "
         style="fill:#000000;fill-opacity:1;fill-rule:evenodd;stroke:none;stroke-width:1px;stroke-linecap:butt;stroke-linejoin:miter;stroke-opacity:1" />
      <path
         id="path9857"
         d="M 236.78571,422.36218 C 236.78571,422.36218 218.21429,439.50504 218.21429,466.29075 C 218.21429,493.07647 225.35714,514.50504 212.14286,552.00504 C 198.92857,589.50504 185,638.79075 178.92857,642.36218 C 172.85714,645.93361 203.57143,661.29075 213.92857,660.21932 C 224.28571,659.1479 241.07143,646.29075 241.78571,643.43361 C 242.5,640.57647 249.64286,608.07647 260.35714,588.07647 C 271.07143,568.07647 296.07143,525.21932 298.21429,518.43361 C 300.35714,511.6479 238.21429,422.36218 236.78571,422.36218 z "
         style="fill:#000000;fill-opacity:1;fill-rule:evenodd;stroke:none;stroke-width:1px;stroke-linecap:butt;stroke-linejoin:miter;stroke-opacity:1" />
      <path
         id="path10828"
         d="M 283.57143,522.36218 C 283.57143,522.36218 342.85714,613.43361 349.28571,631.29075 C 355.71429,649.1479 348.92857,640.57647 348.92857,640.57647 C 348.92857,640.57647 396.78571,657.36218 400,656.29075 C 403.21429,655.21932 392.14286,556.6479 393.57143,552.00504 C 395,547.36218 385.35714,539.1479 379.28571,522.36218 C 373.21429,505.57647 347.85714,425.93361 325.35714,426.6479 C 302.85714,427.36218 245.71429,449.86218 245.71429,449.86218 L 283.57143,522.36218 z "
         style="fill:#000000;fill-opacity:1;fill-rule:evenodd;stroke:none;stroke-width:1px;stroke-linecap:butt;stroke-linejoin:miter;stroke-opacity:1" />
      <path
         id="path11799"
         d="M 189.64286,647.36218 C 189.64286,647.36218 190.35714,674.50504 189.64286,678.07647 C 188.92857,681.6479 186.42857,695.21932 184.64286,697.00504 C 182.85714,698.79075 173.21429,699.1479 172.14286,702.36218 C 171.07143,705.57647 168.92857,711.6479 170.71429,712.36218 C 172.5,713.07647 175.71429,713.79075 178.57143,717.36218 C 181.42857,720.93361 182.85714,726.29075 188.21429,726.6479 C 193.57143,727.00504 206.42857,725.21932 206.42857,722.71932 C 206.42857,720.21932 205,698.79075 208.21429,690.21932 C 211.42857,681.6479 214.28571,650.93361 214.28571,650.93361 L 189.64286,647.36218 z "
         style="fill:#000000;fill-opacity:1;fill-rule:evenodd;stroke:none;stroke-width:1px;stroke-linecap:butt;stroke-linejoin:miter;stroke-opacity:1" />
      <path
         sodipodi:nodetypes="csssssssssscc"
         id="path12770"
         d="M 356.42857,636.29075 C 356.42857,636.29075 365,665.93361 365.35714,678.07647 C 365.71429,690.21932 359.64286,719.50504 360,721.6479 C 360.35714,723.79075 367.5,730.21932 372.14286,730.93361 C 376.78571,731.6479 392.5,729.1479 399.64286,728.79075 C 406.78571,728.43361 429.28571,729.1479 432.85714,726.6479 C 436.42857,724.1479 441.07143,719.50504 438.92857,715.93361 C 436.78571,712.36218 426.78571,707.71932 422.5,707.71932 C 418.21429,707.71932 410,702.71932 406.07143,702.36218 C 402.14286,702.00503 395.35714,698.79075 393.92857,693.79075 C 392.5,688.79075 388.57143,681.6479 388.92857,677.00504 C 389.28571,672.36218 392.85714,638.79075 392.85714,638.79075 L 356.42857,636.29075 z "
         style="fill:#000000;fill-opacity:1;fill-rule:evenodd;stroke:none;stroke-width:1px;stroke-linecap:butt;stroke-linejoin:miter;stroke-opacity:1" />
    </g>
  </g>
</svg>
