<?xml version="1.0" encoding="UTF-8" standalone="no"?>
<!-- Created with Inkscape (http://www.inkscape.org/) -->
<svg
   xmlns:dc="http://purl.org/dc/elements/1.1/"
   xmlns:cc="http://web.resource.org/cc/"
   xmlns:rdf="http://www.w3.org/1999/02/22-rdf-syntax-ns#"
   xmlns:svg="http://www.w3.org/2000/svg"
   xmlns="http://www.w3.org/2000/svg"
   xmlns:sodipodi="http://sodipodi.sourceforge.net/DTD/sodipodi-0.dtd"
   xmlns:inkscape="http://www.inkscape.org/namespaces/inkscape"
   width="744.09448"
   height="1052.3622"
   id="svg2"
   sodipodi:version="0.32"
   inkscape:version="0.45.1"
   version="1.0"
   sodipodi:docbase="C:\Users\ieb\Documents\Kung Food card game\outlines"
   sodipodi:docname="stomp.svg"
   inkscape:output_extension="org.inkscape.output.svg.inkscape">
  <defs
     id="defs4" />
  <sodipodi:namedview
     id="base"
     pagecolor="#ffffff"
     bordercolor="#666666"
     borderopacity="1.0"
     gridtolerance="10000"
     guidetolerance="10"
     objecttolerance="10"
     inkscape:pageopacity="0.0"
     inkscape:pageshadow="2"
     inkscape:zoom="0.6077538"
     inkscape:cx="476.27226"
     inkscape:cy="530.3437"
     inkscape:document-units="px"
     inkscape:current-layer="layer2"
     inkscape:window-width="1280"
     inkscape:window-height="974"
     inkscape:window-x="-8"
     inkscape:window-y="-8" />
  <metadata
     id="metadata7">
    <rdf:RDF>
      <cc:Work
         rdf:about="">
        <dc:format>image/svg+xml</dc:format>
        <dc:type
           rdf:resource="http://purl.org/dc/dcmitype/StillImage" />
      </cc:Work>
    </rdf:RDF>
  </metadata>
  <g
     inkscape:groupmode="layer"
     id="layer2"
     inkscape:label="outline">
    <path
       style="fill:#000000;fill-rule:evenodd;stroke-width:1px;stroke-linecap:butt;stroke-linejoin:miter;stroke-opacity:1"
       d="M 357.40625,88.9375 C 347.16863,88.71626 318.75211,102.37238 317.625,120.40625 C 316.46152,139.02186 310.64667,141.35332 307.15625,144.84375 C 303.70817,148.29183 309.33154,167.49996 309.46875,167.96875 C 290.40797,172.06136 270.38387,178.14738 261.78125,186.75 C 261.54226,186.98899 261.3187,187.23942 261.09375,187.5 C 245.43022,196.98175 224.35574,210.67888 214.09375,221.625 C 196.64161,240.24061 190.81503,249.56719 180.34375,258.875 C 169.87247,268.18279 174.51463,279.82677 157.0625,292.625 C 139.61037,305.42323 97.71875,327.51914 97.71875,334.5 C 97.71875,335.33164 98.036714,336.29119 98.53125,337.34375 C 93.350758,334.20576 88.255916,332.42599 84.9375,334.5 C 75.629697,340.31737 53.524024,355.4254 54.6875,362.40625 C 55.850977,369.38712 68.644146,385.69473 75.625,384.53125 C 82.605852,383.36778 88.4375,375.21875 88.4375,375.21875 L 95.40625,381.03125 C 95.406251,381.03124 101.2211,381.05058 105.875,372.90625 C 108.89263,367.6254 113.8533,360.87377 116.34375,356.78125 C 116.65867,357.04634 117.5,357.78125 117.5,357.78125 C 117.5,357.78126 182.66817,333.34863 190.8125,327.53125 C 198.95683,321.71387 229.20176,310.06269 242,294.9375 C 246.05879,290.14075 253.64877,283.82939 262.09375,277.4375 C 264.62665,292.80078 266.80022,306.308 266.4375,313.5625 C 265.27402,336.83202 302.50722,362.40588 301.34375,392.65625 C 300.67799,409.96603 297.72195,433.36861 297.0625,452.1875 C 274.76978,485.15009 278.06251,637.15495 278.0625,642.8125 C 278.0625,648.62987 262.93498,671.91094 273.40625,681.21875 C 283.87753,690.52656 326.92538,879.00235 333.90625,883.65625 C 336.98697,885.71006 344.39616,884.14721 351.6875,881.75 C 352.33997,887.35128 352.06469,892.51317 350.21875,896.46875 C 340.66551,916.94 321.12734,911.56719 325.78125,920.875 C 330.43516,930.18283 366.5,931.375 366.5,931.375 C 366.50001,931.37499 382.79317,925.53866 390.9375,909.25 C 399.08183,892.96131 387.4375,883.65156 387.4375,874.34375 C 387.4375,872.40594 387.14931,867.96145 386.75,862.59375 C 399.52967,852.91169 415.15409,839.82224 416.53125,833.625 C 418.8582,823.15372 399.08437,745.21754 380.46875,649.8125 C 368.93958,590.72549 395.7621,544.12846 417.875,517.21875 C 433.11561,512.90076 465.11586,502.89125 478.1875,491.5625 C 489.74604,481.5451 505.35349,466.46753 514.9375,455.03125 C 517.33117,484.55868 521.95645,530.6706 528.21875,539.28125 C 533.52434,546.57642 542.24383,550.43852 550.90625,552.4375 C 551.32596,562.1689 551.29473,570.05331 550.3125,573 C 546.82204,583.47129 550.3172,618.38458 559.625,621.875 C 568.93278,625.36544 632.93985,590.4496 637.59375,583.46875 C 642.24768,576.48786 638.74784,541.58652 618.96875,542.75 C 599.18968,543.91347 599.1875,556.71875 599.1875,556.71875 L 586.53125,546.3125 C 598.48683,537.89455 610.8125,525.00475 610.8125,518.3125 C 610.81248,510.27489 586.47113,409.76849 575,362.8125 C 575.79223,360.68183 576.14118,358.95591 575.90625,357.78125 C 573.5793,346.1465 570.11308,318.20918 561.96875,314.71875 C 553.82444,311.22831 528.23086,301.9086 521.25,306.5625 C 516.39697,309.79785 474.99489,342.27631 445.90625,373.5 C 448.10817,362.13174 459.5625,329.04478 459.5625,314.71875 C 459.5625,307.99537 463.2251,282.63942 466.1875,256.25 C 474.88301,265.78166 485.01991,275.78587 493.3125,280.96875 C 511.92811,292.60351 534.03126,296.09376 534.03125,296.09375 C 534.03125,296.09375 543.34892,301.98103 553.8125,300.75 C 573.59158,298.42305 635.26426,299.60098 648.0625,298.4375 C 649.74363,298.28467 650.83496,297.58559 651.5,296.53125 C 658.24616,297.88557 665.54607,298.94974 670.15625,298.4375 C 680.62753,297.27402 695.75237,283.31015 700.40625,278.65625 C 705.06015,274.00235 679.47366,237.92071 673.65625,235.59375 C 667.83887,233.2668 663.18518,240.26211 658.53125,233.28125 C 653.87734,226.3004 645.71638,237.92306 641.0625,240.25 C 637.69357,241.93447 636.78808,258.14924 636.53125,267.03125 C 636.49322,267.03639 636.44247,267.0222 636.40625,267.03125 C 631.75234,268.19472 591.05549,261.19474 577.09375,260.03125 C 563.13204,258.86778 537.53377,229.77889 527.0625,225.125 C 518.51439,221.32584 481.95536,199.07495 468.28125,190.6875 C 467.58195,188.4714 466.63857,187.09461 465.375,186.75 C 456.58235,184.35201 423.086,169.31267 391.65625,162.78125 C 394.11434,152.75093 401.40626,142.53125 401.40625,142.53125 C 401.40625,142.53125 397.91348,137.86561 396.75,119.25 C 395.58653,100.63439 367.65155,90.163476 358.34375,89 C 358.05288,88.963641 357.7365,88.944637 357.40625,88.9375 z "
       id="path2432" />
  </g>
</svg>
