<?xml version="1.0" encoding="UTF-8" standalone="no"?>
<!-- Created with Inkscape (http://www.inkscape.org/) -->
<svg
   xmlns:dc="http://purl.org/dc/elements/1.1/"
   xmlns:cc="http://web.resource.org/cc/"
   xmlns:rdf="http://www.w3.org/1999/02/22-rdf-syntax-ns#"
   xmlns:svg="http://www.w3.org/2000/svg"
   xmlns="http://www.w3.org/2000/svg"
   xmlns:sodipodi="http://sodipodi.sourceforge.net/DTD/sodipodi-0.dtd"
   xmlns:inkscape="http://www.inkscape.org/namespaces/inkscape"
   width="744.09448"
   height="1052.3622"
   id="svg2"
   sodipodi:version="0.32"
   inkscape:version="0.45.1"
   version="1.0"
   sodipodi:docbase="C:\Users\ieb\Documents\Kung Food card game\outlines"
   sodipodi:docname="wide_hook.svg"
   inkscape:output_extension="org.inkscape.output.svg.inkscape">
  <defs
     id="defs4" />
  <sodipodi:namedview
     id="base"
     pagecolor="#ffffff"
     bordercolor="#666666"
     borderopacity="1.0"
     gridtolerance="10000"
     guidetolerance="10"
     objecttolerance="10"
     inkscape:pageopacity="0.0"
     inkscape:pageshadow="2"
     inkscape:zoom="0.49497475"
     inkscape:cx="229.12227"
     inkscape:cy="439.72612"
     inkscape:document-units="px"
     inkscape:current-layer="layer2"
     showguides="true"
     inkscape:guide-bbox="true"
     inkscape:window-width="1280"
     inkscape:window-height="974"
     inkscape:window-x="-8"
     inkscape:window-y="-8" />
  <metadata
     id="metadata7">
    <rdf:RDF>
      <cc:Work
         rdf:about="">
        <dc:format>image/svg+xml</dc:format>
        <dc:type
           rdf:resource="http://purl.org/dc/dcmitype/StillImage" />
      </cc:Work>
    </rdf:RDF>
  </metadata>
  <g
     inkscape:groupmode="layer"
     id="layer2"
     inkscape:label="outline">
    <path
       style="fill:#000000;fill-rule:evenodd;stroke-width:1px;stroke-linecap:butt;stroke-linejoin:miter;stroke-opacity:1"
       d="M 279.9375,301.53125 C 277.95742,301.5684 275.89657,301.65466 273.75,301.8125 C 232.33375,301.81249 215.15625,338.16957 215.15625,349.28125 C 215.15625,360.39292 217.18592,366.47271 211.125,381.625 C 206.9812,391.98446 227.23849,429.69893 234.34375,428.09375 C 248.85894,424.81458 265.65704,412.95003 268.6875,421.03125 C 271.71794,429.11246 258.59137,439.18829 249.5,442.21875 C 248.7644,442.46395 248.281,443.08088 248,443.96875 C 234.73408,438.56955 226.10346,434.15625 214.15625,434.15625 C 196.98366,434.15624 147.46716,430.09375 141.40625,430.09375 C 135.34533,430.09374 111.10232,438.17577 104.03125,433.125 C 96.960186,428.07424 61.625,390.70702 61.625,385.65625 C 61.625,380.60549 65.668779,362.41561 73.75,358.375 C 81.831221,354.33438 74.75936,328.07265 70.71875,327.0625 C 66.67814,326.05234 59.59375,327.0625 59.59375,327.0625 C 59.593751,327.0625 63.633567,322.01015 56.5625,321 C 49.491433,319.98984 22.217958,335.16799 19.1875,340.21875 C 16.157043,345.2695 15.136737,382.62659 20.1875,388.6875 C 25.238263,394.74842 26.27189,402.82424 30.3125,407.875 C 34.35311,412.92576 62.618017,480.60628 75.75,488.6875 C 88.88198,496.76873 106.0625,500.8125 106.0625,500.8125 C 106.0625,500.81251 155.56725,517.9797 173.75,520 C 183.13977,521.04332 209.50185,525.02517 233.0625,528.65625 C 238.69492,540.04663 240.21022,543.40719 244.46875,553.34375 C 250.52966,567.48591 281.84533,591.74777 287.90625,623.0625 C 291.08815,639.50239 293.13715,657.75986 294.96875,671.8125 C 286.24719,674.40749 278.53611,677.07241 273.75,679.625 C 258.59771,687.7062 195.95701,715.98049 190.90625,721.03125 C 185.8555,726.08199 170.71875,758.40243 170.71875,783.65625 C 170.71876,808.91005 167.69686,838.20003 163.65625,846.28125 C 162.24761,849.09852 170.40481,853.04152 182.15625,856.65625 C 182.46074,869.19646 181.66788,884.60562 176.78125,892.75 C 167.68987,907.90231 160.59914,915.98128 141.40625,924.0625 C 122.21335,932.14372 105.04298,938.22112 110.09375,947.3125 C 115.14451,956.40385 130.31646,961.4578 145.46875,959.4375 C 160.62102,957.41718 182.82582,939.21875 193.9375,939.21875 C 205.04917,939.21875 231.3328,933.16482 229.3125,926.09375 C 227.29219,919.02266 217.19766,903.87262 216.1875,894.78125 C 215.77405,891.06017 218.08291,878.49375 220.9375,865 C 232.70972,866.52672 242.66393,866.68823 246.46875,864.46875 C 258.59058,857.39767 264.65863,812.95622 273.75,804.875 C 282.20213,797.36198 367.47958,797.70459 404.59375,775.0625 C 430.56589,783.30962 476.36117,806.48104 494.96875,818 C 516.18195,831.13199 564.67893,873.57421 571.75,878.625 C 578.82107,883.67577 597.01254,879.61408 605.09375,877.59375 C 607.72711,876.93541 613.92145,874.01367 621.1875,869.96875 C 633.75242,878.194 648.3891,888.32355 649.53125,891.75 C 651.55156,897.81092 649.53125,907.90625 649.53125,907.90625 C 649.53126,907.90622 662.67116,913.9789 679.84375,912.96875 C 697.01637,911.95861 717.21717,904.88119 711.15625,888.71875 C 705.09533,872.55631 689.94528,854.38436 679.84375,850.34375 C 675.71476,848.69215 667.54142,843.29753 659.3125,837.53125 C 661.95629,823.99444 656.9214,796.25587 647.5,788.71875 C 637.39848,780.63753 562.65387,748.30078 553.5625,743.25 C 544.47113,738.19924 515.17103,696.77726 491.9375,681.625 C 478.64889,672.95851 464.93788,667.92959 448.53125,662.375 C 445.31405,641.32238 412.86476,605.20526 410.125,598.8125 C 407.36509,592.37264 408.78018,553.32087 407.53125,536.46875 C 420.80344,539.68271 434.46418,543.28861 437.40625,545.25 C 443.46717,549.29062 482.85548,566.47973 487.90625,568.5 C 492.95701,570.52031 511.13835,582.6266 522.25,588.6875 C 533.36167,594.74842 575.79855,598.80473 602.0625,608.90625 C 628.32646,619.00777 632.34536,629.09454 638.40625,632.125 C 644.46716,635.15546 666.68829,634.14371 669.71875,626.0625 C 672.74921,617.98128 681.85309,596.76873 677.8125,588.6875 C 673.77189,580.60628 660.63439,564.45783 656.59375,562.4375 C 652.55314,560.41719 639.41246,573.56251 623.25,573.5625 C 607.08756,573.5625 562.6648,528.09295 555.59375,525.0625 C 548.52268,522.03205 517.19526,511.9367 507.09375,508.90625 C 496.99222,505.8758 458.61167,456.38356 447.5,449.3125 C 436.38832,442.24144 417.20701,440.20779 412.15625,438.1875 C 407.10549,436.16719 385.87882,417.9984 360.625,411.9375 C 347.70901,408.83766 345.08501,408.11391 341.5625,409.5 C 339.27669,403.92024 337.11886,399.27248 335.375,396.78125 C 328.30394,386.67972 322.23985,363.44686 323.25,359.40625 C 324.22859,355.4919 341.31983,300.37969 279.9375,301.53125 z "
       id="path3543" />
  </g>
</svg>
