<?xml version="1.0" encoding="UTF-8" standalone="no"?>
<!-- Created with Inkscape (http://www.inkscape.org/) -->
<svg
   xmlns:dc="http://purl.org/dc/elements/1.1/"
   xmlns:cc="http://web.resource.org/cc/"
   xmlns:rdf="http://www.w3.org/1999/02/22-rdf-syntax-ns#"
   xmlns:svg="http://www.w3.org/2000/svg"
   xmlns="http://www.w3.org/2000/svg"
   xmlns:sodipodi="http://sodipodi.sourceforge.net/DTD/sodipodi-0.dtd"
   xmlns:inkscape="http://www.inkscape.org/namespaces/inkscape"
   width="744.09448"
   height="1052.3622"
   id="svg2"
   sodipodi:version="0.32"
   inkscape:version="0.45.1"
   version="1.0"
   sodipodi:docbase="C:\Users\ieb\Documents\Kung Food card game\outlines"
   sodipodi:docname="zen_finger_poke.svg"
   inkscape:output_extension="org.inkscape.output.svg.inkscape">
  <defs
     id="defs4" />
  <sodipodi:namedview
     id="base"
     pagecolor="#ffffff"
     bordercolor="#666666"
     borderopacity="1.0"
     gridtolerance="10000"
     guidetolerance="10"
     objecttolerance="10"
     inkscape:pageopacity="0.0"
     inkscape:pageshadow="2"
     inkscape:zoom="0.24748737"
     inkscape:cx="438.91987"
     inkscape:cy="471.23858"
     inkscape:document-units="px"
     inkscape:current-layer="layer2"
     inkscape:window-width="1280"
     inkscape:window-height="974"
     inkscape:window-x="-8"
     inkscape:window-y="-8" />
  <metadata
     id="metadata7">
    <rdf:RDF>
      <cc:Work
         rdf:about="">
        <dc:format>image/svg+xml</dc:format>
        <dc:type
           rdf:resource="http://purl.org/dc/dcmitype/StillImage" />
      </cc:Work>
    </rdf:RDF>
  </metadata>
  <g
     inkscape:groupmode="layer"
     id="layer2"
     inkscape:label="outlinr">
    <path
       style="fill:#000000;fill-rule:evenodd;stroke-width:1px;stroke-linecap:butt;stroke-linejoin:miter;stroke-opacity:1"
       d="M 187.78125,184.625 C 176.40424,184.9566 170.69734,205.03475 169.71875,210.90625 C 168.7086,216.96717 162.62499,287.68751 162.625,287.6875 C 154.00657,284.03398 126.48823,278.71898 120.21875,301.8125 C 120.21875,301.8125 108.09058,301.82662 95.96875,315.96875 C 85.740955,327.90117 87.719793,337.64288 88.59375,340.40625 C 88.660337,340.5446 88.704622,340.69314 88.75,340.8125 C 88.705488,340.69164 88.652438,340.59182 88.59375,340.40625 C 87.728116,338.60766 85.095495,336.35279 81.8125,363.4375 C 77.77189,396.77253 133.33677,419.01174 146.46875,424.0625 C 156.04415,427.74535 188.01582,432.99625 204.71875,435.59375 C 205.05344,436.04133 205.49179,436.23316 206.0625,436.15625 C 206.48598,436.09918 206.89194,436.05578 207.3125,436 C 211.68019,436.66918 215.15625,437.1875 215.15625,437.1875 C 215.15625,437.1875 215.42109,435.3131 215.46875,434.96875 C 277.60062,427.6296 305.59676,435.1311 318.15625,443.84375 C 318.33587,458.06245 323.69221,475.14515 314.15625,492.75 C 306.69062,506.5327 293.38082,528.14568 286.96875,545.90625 C 243.60956,553.04654 242.33198,557.15179 212.125,586.6875 C 166.66814,631.13419 104.03046,692.75713 101,720.03125 C 102.84921,725.27068 109.24206,732.37433 117.59375,739.625 C 114.56607,749.8886 118.26888,763.10321 107.0625,773.5625 C 91.91021,787.70466 40.400208,853.35786 96.96875,867.5 C 167.67942,880.63198 143.45003,812.94448 151.53125,799.8125 C 157.18905,790.61859 159.37231,777.97111 165.03125,769.125 C 169.53133,770.63948 173.29535,771.24151 175.78125,770.53125 C 189.92339,766.49066 188.90625,759.40625 188.90625,759.40625 C 188.90625,759.40622 298.00252,636.18512 347.5,627.09375 C 396.99746,618.00239 452.5525,595.77506 493.96875,611.9375 C 535.385,628.09994 480.84454,668.51253 483.875,676.59375 C 485.71518,681.50088 491.66203,690.85991 502.375,697.46875 C 498.96363,703.45438 494.57262,710.026 488.90625,717 C 462.6423,749.3249 466.67735,759.41798 467.6875,764.46875 C 468.69766,769.51953 487.90798,775.59534 534.375,781.65625 C 580.84198,787.71717 611.13753,798.81789 619.21875,779.625 C 627.29997,760.43213 603.07107,755.36326 596,750.3125 C 588.92894,745.26171 560.63436,741.24762 556.59375,732.15625 C 554.57003,727.60286 553.07265,713.67711 552.0625,700.90625 C 573.89098,694.00441 593.71807,680.05842 592.96875,675.5625 C 591.95861,669.50161 577.79458,650.30933 588.90625,638.1875 C 600.01791,626.06566 628.31091,579.62262 622.25,570.53125 C 617.01726,562.68215 567.35863,517.9294 453.125,522.75 C 454.91758,516.64151 456.78074,511.24201 458.59375,507.875 C 463.77072,498.26063 473.26223,484.29115 481.15625,464.03125 C 487.64339,476.84774 494.63418,491.11282 499,492.75 C 507.08122,495.78046 533.34693,512.94841 545.46875,514.96875 C 557.59059,516.98905 585.8875,515.96874 593.96875,515.96875 C 598.81708,515.96875 603.28145,512.68071 606.09375,510.0625 C 616.02072,517.44038 624.5426,540.36212 632.34375,529.09375 C 641.43513,515.96177 622.25,509.90465 622.25,503.84375 C 622.25,497.78284 660.62499,478.60231 660.625,471.53125 C 660.625,464.46018 639.43749,472.53126 639.4375,472.53125 C 639.4375,472.53125 656.59292,463.44606 653.5625,456.375 C 650.53204,449.30393 632.34377,464.46875 632.34375,464.46875 C 632.34375,464.46875 636.40544,458.40546 633.375,455.375 C 630.34454,452.34454 617.21877,466.46874 617.21875,466.46875 C 617.21875,466.46875 619.23828,458.3953 614.1875,456.375 C 610.77823,455.0113 599.62919,474.63712 592.6875,487.65625 C 578.68054,486.49232 567.65538,473.51352 558.625,469.5 C 549.53362,465.45939 545.49763,444.23747 536.40625,436.15625 C 527.31488,428.07503 522.2359,401.83123 508.09375,393.75 C 500.05146,389.15441 491.38009,387.16747 485.375,386.3125 C 481.07135,382.88829 475.01417,380.04277 466.6875,377.59375 C 454.32238,373.95695 451.41474,370.06308 452.71875,366.5625 C 461.55671,365.51749 470.69045,363.89897 477.8125,361.40625 C 498.01555,354.33518 506.09534,312.9437 512.15625,296.78125 C 518.21717,280.61881 515.16309,236.16482 461.625,229.09375 C 414.14783,218.99222 411.0421,235.69742 400.03125,248.28125 C 385.88911,264.44368 379.81251,308.90084 379.8125,328.09375 C 379.8125,338.88976 392.90868,350.31059 404.375,358.25 C 395.58889,361.82182 379.14136,367.75684 360.625,370.5 C 356.03995,371.17927 352.13998,372.83573 348.78125,375.1875 C 332.74732,376.38254 313.67782,377.00344 295.96875,377.59375 C 272.8898,378.36305 243.423,363.90959 230.65625,356.96875 C 230.88422,356.38833 231.08824,355.8243 231.3125,355.34375 C 238.38357,340.19146 233.33201,313.95623 228.28125,305.875 C 223.23048,297.79378 204.0625,293.75001 204.0625,293.75 C 204.0625,293.75 200.00001,267.46478 200,252.3125 C 200,237.16021 216.18036,186.67656 188.90625,184.65625 C 188.52744,184.62468 188.14825,184.6143 187.78125,184.625 z "
       id="path2570" />
  </g>
</svg>
