<?xml version="1.0" encoding="UTF-8" standalone="no"?>
<!-- Created with Inkscape (http://www.inkscape.org/) -->
<svg
   xmlns:dc="http://purl.org/dc/elements/1.1/"
   xmlns:cc="http://web.resource.org/cc/"
   xmlns:rdf="http://www.w3.org/1999/02/22-rdf-syntax-ns#"
   xmlns:svg="http://www.w3.org/2000/svg"
   xmlns="http://www.w3.org/2000/svg"
   xmlns:xlink="http://www.w3.org/1999/xlink"
   xmlns:sodipodi="http://sodipodi.sourceforge.net/DTD/sodipodi-0.dtd"
   xmlns:inkscape="http://www.inkscape.org/namespaces/inkscape"
   width="744.09448"
   height="1052.3622"
   id="svg2"
   sodipodi:version="0.32"
   inkscape:version="0.45.1"
   sodipodi:docbase="C:\Users\ieb\Documents\Kung Food card game\Attack Cards"
   sodipodi:docname="CHO -- Lunge Punch.svg"
   inkscape:output_extension="org.inkscape.output.svg.inkscape"
   version="1.0"
   inkscape:export-filename="C:\Users\ieb\Documents\Kung Food card game\Attack Cards\CHO -- Lunge Punch.png"
   inkscape:export-xdpi="90"
   inkscape:export-ydpi="90">
  <defs
     id="defs4">
    <linearGradient
       inkscape:collect="always"
       id="linearGradient3164">
      <stop
         style="stop-color:#000000;stop-opacity:1;"
         offset="0"
         id="stop3166" />
      <stop
         style="stop-color:#000000;stop-opacity:0;"
         offset="1"
         id="stop3168" />
    </linearGradient>
    <linearGradient
       id="linearGradient4291">
      <stop
         style="stop-color:#e0b779;stop-opacity:1;"
         offset="0"
         id="stop4293" />
      <stop
         style="stop-color:#ffffff;stop-opacity:0;"
         offset="1"
         id="stop4295" />
    </linearGradient>
    <linearGradient
       inkscape:collect="always"
       xlink:href="#linearGradient4291"
       id="linearGradient4297"
       x1="360"
       y1="996.64789"
       x2="362.85715"
       y2="26.647896"
       gradientUnits="userSpaceOnUse" />
    <linearGradient
       inkscape:collect="always"
       xlink:href="#linearGradient3164"
       id="linearGradient3170"
       x1="-611.21912"
       y1="272.37756"
       x2="-631.638"
       y2="426.64792"
       gradientUnits="userSpaceOnUse"
       gradientTransform="matrix(1.0115039,0,0,1.0115039,926.40934,541.42842)" />
  </defs>
  <sodipodi:namedview
     id="base"
     pagecolor="#ffffff"
     bordercolor="#666666"
     borderopacity="1.0"
     gridtolerance="10000"
     guidetolerance="10"
     objecttolerance="10"
     inkscape:pageopacity="0.0"
     inkscape:pageshadow="2"
     inkscape:zoom="0.7"
     inkscape:cx="531.55676"
     inkscape:cy="470.49416"
     inkscape:document-units="px"
     inkscape:current-layer="layer3"
     inkscape:window-width="1280"
     inkscape:window-height="974"
     inkscape:window-x="-8"
     inkscape:window-y="-8" />
  <metadata
     id="metadata7">
    <rdf:RDF>
      <cc:Work
         rdf:about="">
        <dc:format>image/svg+xml</dc:format>
        <dc:type
           rdf:resource="http://purl.org/dc/dcmitype/StillImage" />
      </cc:Work>
    </rdf:RDF>
  </metadata>
  <g
     inkscape:label="Background"
     inkscape:groupmode="layer"
     id="layer1"
     style="display:inline"
     sodipodi:insensitive="true">
    <path
       style="fill:url(#linearGradient4297);fill-opacity:1;stroke:#000000;stroke-width:2.20000005;stroke-miterlimit:4;stroke-opacity:1"
       d="M 718.57143,519.50505 C 717.14286,1019.7908 716.54694,1020.1437 372.85714,1019.5051 C 27.734779,1018.8611 26.502386,1019.7897 27.14284,519.50505 C 27.785131,19.217709 27.737135,19.505048 372.85714,19.505048 C 719.40572,19.505048 720,22.076479 718.57143,519.50505 z "
       id="path3319"
       sodipodi:nodetypes="csssc" />
    <rect
       style="fill:#ffffff;fill-opacity:1;stroke:#000000;stroke-width:2.20000005;stroke-miterlimit:4;stroke-dasharray:none;stroke-opacity:1"
       id="rect4299"
       width="607.14288"
       height="558.57141"
       x="69.343178"
       y="318.07648" />
  </g>
  <g
     inkscape:groupmode="layer"
     id="layer2"
     inkscape:label="Res and Opp"
     style="display:inline"
     sodipodi:insensitive="true">
    <g
       id="g4320"
       transform="translate(0.5535566,0)">
      <text
         sodipodi:linespacing="108%"
         id="text4304"
         y="913.79071"
         x="111.42857"
         style="font-size:32px;font-style:normal;font-variant:normal;font-weight:normal;font-stretch:normal;text-align:start;line-height:108.00000429%;writing-mode:lr-tb;text-anchor:start;fill:#000000;fill-opacity:1;stroke:none;stroke-width:1px;stroke-linecap:butt;stroke-linejoin:miter;stroke-opacity:1;font-family:Narkisim"
         xml:space="preserve"><tspan
           y="913.79071"
           x="111.42857"
           id="tspan4306"
           sodipodi:role="line">Resolve</tspan></text>
      <text
         sodipodi:linespacing="108%"
         id="text4308"
         y="912.65009"
         x="475.24667"
         style="font-size:32px;font-style:normal;font-variant:normal;font-weight:normal;font-stretch:normal;text-align:start;line-height:108.00000429%;writing-mode:lr-tb;text-anchor:start;fill:#000000;fill-opacity:1;stroke:none;stroke-width:1px;stroke-linecap:butt;stroke-linejoin:miter;stroke-opacity:1;font-family:Narkisim"
         xml:space="preserve"><tspan
           y="912.65009"
           x="475.24667"
           id="tspan4310"
           sodipodi:role="line">Opportunity</tspan></text>
    </g>
    <text
       xml:space="preserve"
       style="font-size:56px;font-style:normal;font-variant:normal;font-weight:normal;font-stretch:normal;text-align:start;line-height:108.00000429%;writing-mode:lr-tb;text-anchor:start;fill:#000000;fill-opacity:1;stroke:none;stroke-width:1px;stroke-linecap:butt;stroke-linejoin:miter;stroke-opacity:1;font-family:Narkisim"
       x="134.57141"
       y="964.81335"
       id="text4316"
       sodipodi:linespacing="108%"><tspan
         sodipodi:role="line"
         id="tspan4318"
         x="134.57141"
         y="964.81335">-1</tspan></text>
    <text
       xml:space="preserve"
       style="font-size:56px;font-style:normal;font-variant:normal;font-weight:normal;font-stretch:normal;text-align:start;line-height:108.00000429%;writing-mode:lr-tb;text-anchor:start;fill:#000000;fill-opacity:1;stroke:none;stroke-width:1px;stroke-linecap:butt;stroke-linejoin:miter;stroke-opacity:1;font-family:Narkisim"
       x="519.75641"
       y="964.81335"
       id="text4326"
       sodipodi:linespacing="108%"><tspan
         sodipodi:role="line"
         id="tspan4328"
         x="519.75641"
         y="964.81335">+2</tspan></text>
    <g
       sodipodi:insensitive="true"
       inkscape:label="outline"
       id="g2280"
       transform="translate(6.30767,81.9075)" />
  </g>
  <g
     inkscape:groupmode="layer"
     id="layer3"
     inkscape:label="Art"
     style="display:inline">
    <path
       id="path2522"
       d="M 417.57541,467.79044 C 405.39436,467.88227 390.07839,469.78708 381.43552,472.5528 C 367.60692,476.97794 347.12395,489.14049 345.46452,491.90621 C 343.80508,494.67194 340.50339,497.97254 343.2691,502.95083 C 346.03481,507.92913 359.83522,524.52015 366.47294,529.49845 C 373.11066,534.47675 394.14733,547.19631 398.01934,551.62146 C 401.89134,556.04661 406.31928,562.16332 409.63814,564.92904 C 412.95701,567.69477 419.03163,574.85907 421.79736,574.85907 C 424.56308,574.85908 440.06164,563.25743 438.95536,561.04485 C 437.84907,558.83229 425.68155,541.11725 425.68155,541.11725 C 425.68154,541.11725 414.61201,542.22353 411.29315,541.11725 C 407.97426,540.01097 390.81295,516.80326 386.94094,515.14382 C 383.06892,513.48441 379.78052,502.95083 379.78052,502.95083 L 400.85649,513.08351 L 394.70933,515.14382 C 394.70933,515.14382 406.85525,529.51895 411.83356,534.49723 C 416.81185,539.47552 423.46454,535.59911 427.33655,536.15224 C 431.20855,536.70538 444.46909,559.39372 445.57537,562.15944 C 446.68167,564.92516 426.79669,580.38553 422.37154,580.93867 C 417.94639,581.49182 410.20014,573.77879 406.32813,569.35365 C 402.45612,564.9285 400.78615,554.95748 389.17013,549.42605 C 377.55411,543.89461 352.1183,521.76385 352.11831,521.76384 L 327.79988,532.3356 L 327.76611,532.26805 C 327.76611,532.26805 311.73707,535.58525 297.90848,545.54185 C 284.07989,555.49843 251.97866,632.96032 245.89407,642.91688 C 239.80949,652.87348 205.51229,683.82189 196.10885,695.43793 C 186.7054,707.05395 152.97742,759.07115 152.97742,759.07115 L 155.30793,760.5235 C 151.30339,764.07765 142.47321,770.08452 142.47321,769.57535 C 142.47321,769.57533 145.77049,782.29548 146.32363,787.27376 C 146.87677,792.25205 149.64971,812.17026 156.28743,814.93597 C 162.92516,817.70168 190.59125,816.02565 186.71924,812.70679 C 182.84724,809.38789 169.01197,786.7256 172.33083,781.19416 C 173.23015,779.6953 174.51102,776.71002 175.87727,773.18934 L 190.02924,781.73457 C 190.02924,781.73457 232.61971,738.06329 237.04487,733.63812 C 241.47001,729.21297 277.97148,682.18628 285.7155,673.8891 C 291.09779,668.12235 324.08915,640.78109 344.14727,624.27276 C 366.77566,634.45648 406.72583,652.8326 406.32813,655.61651 C 405.77499,659.48852 394.70933,741.37274 394.70933,741.37274 C 394.70933,741.37274 395.96703,741.64667 397.85046,742.01447 C 396.21572,746.43799 395.40008,750.05087 396.36433,751.33653 C 399.68318,755.76172 415.17237,752.98712 421.25695,754.64654 C 427.34154,756.30596 457.75563,756.83808 458.30877,754.07236 C 458.86191,751.30662 449.99997,747.99275 449.99997,747.99275 C 449.99997,747.99276 435.0432,747.99537 431.35585,742.82509 C 437.05314,742.10701 441.72495,741.37274 441.72495,741.37274 C 441.72494,741.37272 450.00441,640.68825 448.34497,636.26309 C 446.99501,632.66319 422.96188,605.64835 404.80823,595.39463 C 414.29228,591.2865 427.65009,585.89037 432.87575,584.28246 C 439.84813,582.13711 466.4928,560.27042 469.62359,556.92423 C 474.23699,556.38449 491.65434,554.39105 496.47519,554.39106 C 502.00663,554.39106 534.09236,542.77227 537.41121,542.77225 C 540.73007,542.77225 549.02889,545.01419 557.87922,544.46103 C 566.72951,543.90789 602.12027,532.84223 608.20485,532.84223 C 614.28943,532.84223 629.21711,539.47497 631.98286,538.92184 C 634.74858,538.3687 638.62392,527.31187 639.17707,523.99303 C 639.73022,520.67415 628.67288,515.68422 628.67286,515.68423 C 627.56656,516.79051 617.07566,520.10883 613.20364,520.10883 C 609.33162,520.10883 603.78912,517.89236 600.47024,517.33923 C 597.15138,516.78609 582.22754,522.87844 579.46182,522.87843 C 576.6961,522.87843 554.00831,520.64924 549.03001,520.64924 C 544.05172,520.64924 535.2119,525.07383 532.44619,525.07384 C 529.68048,525.07384 518.5982,522.30426 518.5982,522.30425 C 518.5982,522.30425 511.50833,538.04879 502.01439,535.61183 C 500.27589,535.16558 499.80952,543.34147 473.81177,549.42605 C 471.48594,549.97039 468.75611,548.84174 466.51624,547.53461 C 463.73577,542.64325 460.08492,537.16146 458.30877,534.49723 C 456.73762,532.14051 458.64177,524.68788 461.07837,517.27168 C 461.98188,521.11332 462.71846,525.18616 462.19296,526.76262 C 461.08668,530.08148 469.94418,544.45659 472.15676,546.11604 C 474.36934,547.77546 481.54638,542.23185 481.54638,542.23185 L 478.23637,535.61183 L 483.20138,540.57684 L 490.39558,540.03643 L 498.13019,531.72764 L 502.5548,531.18723 L 508.09399,531.18723 C 508.09399,531.18723 510.87576,527.84843 514.74778,521.76384 C 518.61979,515.67926 518.04117,505.73425 515.8286,496.33082 C 513.61603,486.92737 505.33769,484.6954 500.35938,482.48282 C 496.25331,480.6579 474.62776,494.07829 466.854,499.03286 C 465.56697,497.50446 460.13045,495.84145 457.2955,495.08112 C 450.32905,486.10744 439.11643,472.36313 433.95657,469.7832 C 431.05256,468.33118 424.88403,467.73534 417.57541,467.79044 z "
       style="fill:#000000;fill-rule:evenodd;stroke:none;stroke-width:1px;stroke-linecap:butt;stroke-linejoin:miter;stroke-opacity:1" />
    <path
       style="font-size:36px;font-style:normal;font-variant:normal;font-weight:normal;font-stretch:normal;text-align:start;line-height:108.00000429%;writing-mode:lr-tb;text-anchor:start;fill:#000000;fill-opacity:1;stroke:none;stroke-width:1px;stroke-linecap:butt;stroke-linejoin:miter;stroke-opacity:1;font-family:Narkisim"
       d="M 296.42133,819.04071 C 294.89787,820.55245 293.36857,822.7087 291.83344,825.50946 C 290.62639,827.85323 289.4135,830.19111 288.19476,832.52313 L 288.19476,837.67352 C 288.19475,839.79462 288.48186,841.83368 289.05609,843.79071 L 283.53656,843.79071 C 284.11077,841.61103 284.39788,839.56025 284.39789,837.63837 L 284.39789,832.52313 C 283.17913,830.22627 281.95452,827.9294 280.72406,825.63251 C 279.09515,822.70284 277.57757,820.50558 276.17133,819.04071 L 282.06,819.04071 C 282.08343,819.8962 282.17132,820.52901 282.32367,820.93915 C 282.37054,821.09151 282.66351,821.67745 283.20258,822.69696 L 286.38422,828.86688 L 289.1264,824.1911 C 290.18108,822.23409 290.7553,820.5173 290.84906,819.04071 L 296.42133,819.04071 z M 313.84125,834.75555 C 313.84123,837.28681 313.10295,839.45478 311.6264,841.25946 C 310.05608,843.19305 308.02874,844.15985 305.54437,844.15985 C 303.21233,844.15985 301.30804,843.29266 299.83148,841.55829 C 298.42523,839.91767 297.72211,837.91376 297.72211,835.54657 C 297.72211,832.92158 298.47211,830.73018 299.97211,828.97235 C 301.56585,827.12081 303.65765,826.19502 306.2475,826.19501 C 308.57952,826.19502 310.45452,827.05635 311.8725,828.77899 C 313.18498,830.38447 313.84123,832.37666 313.84125,834.75555 L 313.84125,834.75555 z M 310.30804,835.5993 C 310.30803,833.9001 309.86272,832.36494 308.97211,830.99384 C 307.95256,829.42354 306.63421,828.63838 305.01703,828.63837 C 304.85296,828.63838 304.60101,828.65596 304.26117,828.6911 C 302.24554,829.71065 301.23773,831.60908 301.23773,834.38641 C 301.23773,836.15595 301.68304,837.779 302.57367,839.25555 C 303.61663,840.97821 304.95257,841.79852 306.58148,841.71649 L 307.35492,841.68134 C 309.32366,840.36884 310.30803,838.3415 310.30804,835.5993 L 310.30804,835.5993 z M 330.47015,843.79071 L 326.35687,843.79071 L 326.35687,840.87274 L 323.77289,843.70282 C 322.94085,844.00751 322.17913,844.15985 321.48773,844.15985 C 319.57757,844.15985 318.26507,843.60321 317.55023,842.48993 C 316.99945,841.63446 316.7182,840.19306 316.70648,838.16571 C 316.69476,837.56806 316.70062,836.71259 316.72406,835.5993 C 316.75921,834.41572 316.77679,833.55439 316.77679,833.01532 C 316.77679,830.40205 316.52484,828.25166 316.02094,826.56415 L 320.81976,826.56415 C 320.36273,827.78291 320.13421,829.21846 320.13422,830.87079 L 320.13422,837.39227 C 320.13421,838.66962 320.30999,839.54853 320.66156,840.02899 C 321.08343,840.61493 321.90374,840.9079 323.1225,840.9079 C 324.01311,840.9079 325.09124,840.60321 326.35687,839.99384 L 326.35687,831.31024 C 326.35686,829.5876 326.12835,828.00557 325.67133,826.56415 L 330.47015,826.56415 C 330.01311,828.04073 329.78459,829.1833 329.78461,829.99188 L 329.78461,838.35907 C 329.78459,840.55048 330.01311,842.36102 330.47015,843.79071 L 330.47015,843.79071 z M 337.64203,821.9411 C 337.40765,824.84737 336.43499,827.67745 334.72406,830.43134 C 334.1264,831.029 333.58734,831.32783 333.10687,831.32782 C 332.84906,831.32783 332.60883,831.28096 332.38617,831.18719 L 332.38617,830.83563 C 333.30023,829.30049 333.75726,827.57198 333.75726,825.65009 C 333.75726,824.80635 333.72211,824.16768 333.65179,823.73407 L 333.89789,823.04852 L 336.99164,821.46649 C 337.13226,821.57198 337.34905,821.73019 337.64203,821.9411 L 337.64203,821.9411 z M 351.49359,826.52899 L 350.77289,830.27313 C 349.95256,829.72237 349.15569,829.44697 348.38226,829.44696 C 347.58538,829.44697 346.42522,829.82783 344.90179,830.58954 L 344.90179,838.64032 C 344.90179,840.44501 345.1303,842.16181 345.58734,843.79071 L 340.78851,843.79071 C 341.24554,842.13837 341.47406,840.70282 341.47406,839.48407 L 341.47406,832.66376 C 341.47406,830.28486 341.24554,828.25166 340.78851,826.56415 L 344.90179,826.56415 L 344.90179,829.67548 L 347.59125,826.68719 C 348.47014,826.35909 349.23772,826.19502 349.89398,826.19501 C 350.42131,826.19502 350.95452,826.30635 351.49359,826.52899 L 351.49359,826.52899 z M 365.59125,833.87665 L 365.55609,835.63446 L 355.88812,835.63446 C 356.39202,839.48993 358.17913,841.41767 361.24945,841.41766 C 362.42131,841.41767 363.73381,841.10126 365.18695,840.46844 L 363.88617,843.65009 C 362.55022,843.98993 361.45452,844.15985 360.59906,844.15985 C 357.99749,844.15985 355.95843,843.32196 354.48187,841.64618 C 353.0639,840.05243 352.35492,837.94306 352.35492,835.31805 C 352.35492,832.88057 352.92328,830.81221 354.06,829.11298 C 355.37249,827.16768 357.1889,826.19502 359.50922,826.19501 C 361.55999,826.19502 363.1303,826.99776 364.22015,828.60321 C 365.18108,829.99776 365.63811,831.75557 365.59125,833.87665 L 365.59125,833.87665 z M 362.72601,832.68134 C 362.76116,831.61494 362.48577,830.69502 361.89984,829.92157 C 361.27874,829.06612 360.44671,828.63838 359.40375,828.63837 C 358.2553,828.63838 357.37054,829.13057 356.74945,830.11493 C 356.23382,830.94697 355.97601,831.97236 355.97601,833.1911 L 362.70844,833.1911 L 362.72601,832.68134 z M 388.09125,840.29266 L 386.79047,843.63251 C 385.57171,843.98407 384.46429,844.15985 383.4682,844.15985 C 381.48773,844.15985 380.24554,843.39813 379.74164,841.87469 C 379.5307,841.21845 379.42523,839.61884 379.42523,837.07587 L 379.42523,829.00751 L 376.98187,829.00751 L 382.85297,822.94305 L 382.85297,826.56415 L 386.93109,826.56415 L 386.93109,829.00751 L 382.85297,829.00751 L 382.85297,836.98798 C 382.85296,838.3122 382.94085,839.2204 383.11664,839.71259 C 383.44476,840.61493 384.14202,841.0661 385.20844,841.0661 C 386.1928,841.0661 387.15374,840.80829 388.09125,840.29266 L 388.09125,840.29266 z M 404.685,834.75555 C 404.68498,837.28681 403.9467,839.45478 402.47015,841.25946 C 400.89983,843.19305 398.87249,844.15985 396.38812,844.15985 C 394.05608,844.15985 392.15179,843.29266 390.67523,841.55829 C 389.26898,839.91767 388.56586,837.91376 388.56586,835.54657 C 388.56586,832.92158 389.31586,830.73018 390.81586,828.97235 C 392.4096,827.12081 394.5014,826.19502 397.09125,826.19501 C 399.42327,826.19502 401.29827,827.05635 402.71625,828.77899 C 404.02873,830.38447 404.68498,832.37666 404.685,834.75555 L 404.685,834.75555 z M 401.15179,835.5993 C 401.15178,833.9001 400.70647,832.36494 399.81586,830.99384 C 398.79631,829.42354 397.47796,828.63838 395.86078,828.63837 C 395.69671,828.63838 395.44476,828.65596 395.10492,828.6911 C 393.08929,829.71065 392.08148,831.60908 392.08148,834.38641 C 392.08148,836.15595 392.52679,837.779 393.41742,839.25555 C 394.46038,840.97821 395.79632,841.79852 397.42523,841.71649 L 398.19867,841.68134 C 400.16741,840.36884 401.15178,838.3415 401.15179,835.5993 L 401.15179,835.5993 z M 422.685,834.75555 C 422.68498,837.28681 421.9467,839.45478 420.47015,841.25946 C 418.89983,843.19305 416.87249,844.15985 414.38812,844.15985 C 412.05608,844.15985 410.15179,843.29266 408.67523,841.55829 C 407.26898,839.91767 406.56586,837.91376 406.56586,835.54657 C 406.56586,832.92158 407.31586,830.73018 408.81586,828.97235 C 410.4096,827.12081 412.5014,826.19502 415.09125,826.19501 C 417.42327,826.19502 419.29827,827.05635 420.71625,828.77899 C 422.02873,830.38447 422.68498,832.37666 422.685,834.75555 L 422.685,834.75555 z M 419.15179,835.5993 C 419.15178,833.9001 418.70647,832.36494 417.81586,830.99384 C 416.79631,829.42354 415.47796,828.63838 413.86078,828.63837 C 413.69671,828.63838 413.44476,828.65596 413.10492,828.6911 C 411.08929,829.71065 410.08148,831.60908 410.08148,834.38641 C 410.08148,836.15595 410.52679,837.779 411.41742,839.25555 C 412.46038,840.97821 413.79632,841.79852 415.42523,841.71649 L 416.19867,841.68134 C 418.16741,840.36884 419.15178,838.3415 419.15179,835.5993 L 419.15179,835.5993 z M 445.97601,819.55048 L 445.14984,822.96063 C 444.27092,821.96456 443.42132,821.46651 442.60101,821.46649 C 441.03069,821.46651 440.24554,822.67354 440.24554,825.08759 C 440.24554,825.28682 440.2514,825.54463 440.26312,825.86102 C 440.26312,826.22432 440.26898,826.4587 440.2807,826.56415 L 443.76117,826.56415 L 443.76117,829.00751 L 440.2807,829.00751 L 440.2807,838.55243 C 440.28069,840.69696 440.50335,842.44306 440.94867,843.79071 L 436.16742,843.79071 C 436.61273,842.64227 436.83538,840.88446 436.83539,838.51727 L 436.83539,829.00751 L 435.02484,829.00751 L 436.30804,826.56415 L 436.83539,826.56415 C 436.83538,824.10323 437.2221,822.29854 437.99554,821.15009 C 438.93304,819.73214 440.57366,819.02316 442.91742,819.02313 C 443.71428,819.02316 444.73381,819.19894 445.97601,819.55048 L 445.97601,819.55048 z M 457.48969,843.79071 L 453.3764,843.79071 L 453.3764,842.12079 L 450.65179,844.14227 L 449.8432,844.15985 C 448.43695,844.19501 447.27093,843.89032 446.34515,843.24579 C 445.30218,842.51923 444.7807,841.4704 444.7807,840.0993 C 444.7807,838.86884 445.3139,837.78486 446.38031,836.84735 C 447.17718,836.15595 448.34906,835.49384 449.89594,834.86102 C 451.05608,834.41572 452.21624,833.97627 453.3764,833.54266 L 453.3764,832.61102 C 453.37639,830.16182 452.30413,828.93721 450.15961,828.93719 C 449.19866,828.93721 447.94476,829.4001 446.39789,830.32587 L 447.36469,827.02118 C 448.84124,826.47042 450.11858,826.19502 451.19672,826.19501 C 453.51702,826.19502 455.11663,826.9919 455.99554,828.58563 C 456.65178,829.76924 456.97991,831.63838 456.97992,834.19305 C 456.97991,834.72041 456.96233,835.52021 456.92719,836.59247 C 456.89202,837.66474 456.87444,838.45868 456.87445,838.9743 C 456.87444,841.06024 457.07952,842.66571 457.48969,843.79071 L 457.48969,843.79071 z M 453.3764,841.2243 L 453.3764,836.44305 L 448.85883,836.44305 C 448.49554,837.54462 448.3139,838.42939 448.3139,839.09735 C 448.3139,840.64423 449.32757,841.41767 451.35492,841.41766 C 451.91741,841.41767 452.59124,841.35321 453.3764,841.2243 L 453.3764,841.2243 z M 471.09515,826.52899 L 470.37445,830.27313 C 469.55413,829.72237 468.75725,829.44697 467.98383,829.44696 C 467.18694,829.44697 466.02679,829.82783 464.50336,830.58954 L 464.50336,838.64032 C 464.50335,840.44501 464.73187,842.16181 465.1889,843.79071 L 460.39008,843.79071 C 460.8471,842.13837 461.07562,840.70282 461.07562,839.48407 L 461.07562,832.66376 C 461.07562,830.28486 460.8471,828.25166 460.39008,826.56415 L 464.50336,826.56415 L 464.50336,829.67548 L 467.19281,826.68719 C 468.07171,826.35909 468.83928,826.19502 469.49554,826.19501 C 470.02288,826.19502 470.55608,826.30635 471.09515,826.52899 L 471.09515,826.52899 z M 494.47406,843.79071 L 490.36078,843.79071 L 490.36078,842.12079 L 487.63617,844.14227 L 486.82758,844.15985 C 485.42132,844.19501 484.25531,843.89032 483.32953,843.24579 C 482.28656,842.51923 481.76507,841.4704 481.76508,840.0993 C 481.76507,838.86884 482.29828,837.78486 483.36469,836.84735 C 484.16156,836.15595 485.33343,835.49384 486.88031,834.86102 C 488.04046,834.41572 489.20061,833.97627 490.36078,833.54266 L 490.36078,832.61102 C 490.36077,830.16182 489.2885,828.93721 487.14398,828.93719 C 486.18304,828.93721 484.92913,829.4001 483.38226,830.32587 L 484.34906,827.02118 C 485.82562,826.47042 487.10296,826.19502 488.18109,826.19501 C 490.50139,826.19502 492.101,826.9919 492.97992,828.58563 C 493.63616,829.76924 493.96428,831.63838 493.96429,834.19305 C 493.96428,834.72041 493.9467,835.52021 493.91156,836.59247 C 493.87639,837.66474 493.85881,838.45868 493.85883,838.9743 C 493.85881,841.06024 494.06389,842.66571 494.47406,843.79071 L 494.47406,843.79071 z M 490.36078,841.2243 L 490.36078,836.44305 L 485.8432,836.44305 C 485.47991,837.54462 485.29827,838.42939 485.29828,839.09735 C 485.29827,840.64423 486.31195,841.41767 488.33929,841.41766 C 488.90179,841.41767 489.57561,841.35321 490.36078,841.2243 L 490.36078,841.2243 z M 518.45062,826.56415 C 517.46623,828.02901 516.59904,830.23799 515.84906,833.1911 L 513.14203,843.79071 L 510.20648,843.79071 L 506.91937,831.78485 L 503.86078,843.79071 L 500.94281,843.79071 C 500.26312,840.86103 499.58343,837.9372 498.90375,835.01923 C 498.0014,831.57393 496.95257,828.75557 495.75726,826.56415 L 500.74945,826.56415 C 500.69085,827.09151 500.66156,827.56026 500.66156,827.9704 C 500.66156,829.42354 500.94866,831.28682 501.52289,833.56024 L 502.99945,838.9743 L 506.02289,826.56415 L 508.94086,826.56415 L 512.22797,838.9743 L 513.63422,833.77118 C 514.16154,831.67354 514.42521,829.89815 514.42523,828.44501 C 514.42521,827.89424 514.3549,827.26729 514.21429,826.56415 L 518.45062,826.56415 z M 532.23187,843.79071 L 528.11859,843.79071 L 528.11859,842.12079 L 525.39398,844.14227 L 524.58539,844.15985 C 523.17913,844.19501 522.01312,843.89032 521.08734,843.24579 C 520.04437,842.51923 519.52289,841.4704 519.52289,840.0993 C 519.52289,838.86884 520.05609,837.78486 521.1225,836.84735 C 521.91937,836.15595 523.09124,835.49384 524.63812,834.86102 C 525.79827,834.41572 526.95843,833.97627 528.11859,833.54266 L 528.11859,832.61102 C 528.11858,830.16182 527.04632,828.93721 524.90179,828.93719 C 523.94085,828.93721 522.68695,829.4001 521.14008,830.32587 L 522.10687,827.02118 C 523.58343,826.47042 524.86077,826.19502 525.9389,826.19501 C 528.25921,826.19502 529.85881,826.9919 530.73773,828.58563 C 531.39397,829.76924 531.72209,831.63838 531.72211,834.19305 C 531.72209,834.72041 531.70452,835.52021 531.66937,836.59247 C 531.6342,837.66474 531.61663,838.45868 531.61664,838.9743 C 531.61663,841.06024 531.8217,842.66571 532.23187,843.79071 L 532.23187,843.79071 z M 528.11859,841.2243 L 528.11859,836.44305 L 523.60101,836.44305 C 523.23773,837.54462 523.05609,838.42939 523.05609,839.09735 C 523.05609,840.64423 524.06976,841.41767 526.09711,841.41766 C 526.6596,841.41767 527.33343,841.35321 528.11859,841.2243 L 528.11859,841.2243 z M 550.16156,826.56415 C 549.00139,828.21651 547.80608,830.77119 546.57562,834.22821 C 544.89983,838.95087 543.85686,841.76337 543.44672,842.66571 C 542.11077,845.65399 540.5639,847.8161 538.80609,849.15204 L 534.49945,849.15204 C 535.95257,847.945 537.10101,846.73797 537.94476,845.53094 C 538.64788,844.51141 539.4389,843.03485 540.31781,841.10126 L 537.25922,833.61298 C 535.97015,830.63643 534.63422,828.28682 533.2514,826.56415 L 538.03265,826.56415 C 538.29046,827.86495 538.92913,829.81612 539.94867,832.41766 C 540.71038,834.29267 541.46624,836.16767 542.21625,838.04266 C 542.86077,836.16767 543.5053,834.28681 544.14984,832.40009 C 544.89983,830.03291 545.25725,828.0876 545.22211,826.56415 L 550.16156,826.56415 z M 571.04437,840.29266 L 569.74359,843.63251 C 568.52483,843.98407 567.41741,844.15985 566.42133,844.15985 C 564.44085,844.15985 563.19867,843.39813 562.69476,841.87469 C 562.48382,841.21845 562.37835,839.61884 562.37836,837.07587 L 562.37836,829.00751 L 559.935,829.00751 L 565.80609,822.94305 L 565.80609,826.56415 L 569.88422,826.56415 L 569.88422,829.00751 L 565.80609,829.00751 L 565.80609,836.98798 C 565.80609,838.3122 565.89398,839.2204 566.06976,839.71259 C 566.39788,840.61493 567.09515,841.0661 568.16156,841.0661 C 569.14593,841.0661 570.10686,840.80829 571.04437,840.29266 L 571.04437,840.29266 z M 587.63812,834.75555 C 587.63811,837.28681 586.89982,839.45478 585.42328,841.25946 C 583.85295,843.19305 581.82561,844.15985 579.34125,844.15985 C 577.00921,844.15985 575.10491,843.29266 573.62836,841.55829 C 572.22211,839.91767 571.51898,837.91376 571.51898,835.54657 C 571.51898,832.92158 572.26898,830.73018 573.76898,828.97235 C 575.36273,827.12081 577.45452,826.19502 580.04437,826.19501 C 582.37639,826.19502 584.25139,827.05635 585.66937,828.77899 C 586.98186,830.38447 587.63811,832.37666 587.63812,834.75555 L 587.63812,834.75555 z M 584.10492,835.5993 C 584.10491,833.9001 583.65959,832.36494 582.76898,830.99384 C 581.74944,829.42354 580.43108,828.63838 578.8139,828.63837 C 578.64983,828.63838 578.39788,828.65596 578.05804,828.6911 C 576.04241,829.71065 575.0346,831.60908 575.03461,834.38641 C 575.0346,836.15595 575.47991,837.779 576.37054,839.25555 C 577.41351,840.97821 578.74944,841.79852 580.37836,841.71649 L 581.15179,841.68134 C 583.12053,840.36884 584.10491,838.3415 584.10492,835.5993 L 584.10492,835.5993 z M 604.26703,843.79071 L 600.15375,843.79071 L 601.14581,840.87274 L 597.59943,843.70282 C 596.66412,844.00751 595.85076,844.15985 595.15936,844.15985 C 593.2492,844.15985 592.12567,843.60321 591.78876,842.48993 C 591.52874,841.63446 591.73748,840.19306 592.41498,838.16571 C 592.60614,837.56806 592.90277,836.71259 593.30487,835.5993 C 593.74212,834.41572 594.0523,833.55439 594.23541,833.01532 C 595.12383,830.40205 595.60284,828.25166 595.67242,826.56415 L 600.47125,826.56415 C 599.59966,827.78291 598.88335,829.21846 598.32233,830.87079 L 596.10529,837.39227 C 595.67168,838.66962 595.549,839.54853 595.73724,840.02899 C 595.95989,840.61493 596.68059,840.9079 597.89935,840.9079 C 598.78997,840.9079 599.97173,840.60321 601.44464,839.99384 L 604.39557,831.31024 C 604.98076,829.5876 605.28984,828.00557 605.32281,826.56415 L 610.12164,826.56415 C 609.16288,828.04073 608.54582,829.1833 608.27045,829.99188 L 605.42719,838.35907 C 604.6823,840.55048 604.29558,842.36102 604.26703,843.79071 L 604.26703,843.79071 z M 626.61981,819.55048 L 624.63458,822.96063 C 624.09477,821.96456 623.41472,821.46651 622.59442,821.46649 C 621.02409,821.46651 619.82878,822.67354 619.00848,825.08759 C 618.94036,825.28682 618.85832,825.54463 618.76239,825.86102 C 618.63933,826.22432 618.56572,826.4587 618.54156,826.56415 L 622.02203,826.56415 L 621.19147,829.00751 L 617.711,829.00751 L 614.46674,838.55243 C 613.73797,840.69696 613.36736,842.44306 613.35492,843.79071 L 608.57367,843.79071 C 609.40936,842.64227 610.2293,840.88446 611.03351,838.51727 L 614.26569,829.00751 L 612.45514,829.00751 L 614.56891,826.56415 L 615.09625,826.56415 C 615.93267,824.10323 616.93279,822.29854 618.09662,821.15009 C 619.51531,819.73214 621.39653,819.02316 623.7403,819.02313 C 624.53715,819.02316 625.49699,819.19894 626.61981,819.55048 L 626.61981,819.55048 z M 636.81512,819.55048 L 634.8299,822.96063 C 634.29008,821.96456 633.61003,821.46651 632.78973,821.46649 C 631.21941,821.46651 630.0241,822.67354 629.2038,825.08759 C 629.13567,825.28682 629.05364,825.54463 628.9577,825.86102 C 628.83464,826.22432 628.76103,826.4587 628.73688,826.56415 L 632.21735,826.56415 L 631.38678,829.00751 L 627.90631,829.00751 L 624.66205,838.55243 C 623.93328,840.69696 623.56268,842.44306 623.55023,843.79071 L 618.76898,843.79071 C 619.60467,842.64227 620.42462,840.88446 621.22882,838.51727 L 624.461,829.00751 L 622.65045,829.00751 L 624.76422,826.56415 L 625.29156,826.56415 C 626.12798,824.10323 627.1281,822.29854 628.29193,821.15009 C 629.71062,819.73214 631.59184,819.02316 633.93561,819.02313 C 634.73246,819.02316 635.6923,819.19894 636.81512,819.55048 L 636.81512,819.55048 z "
       id="text3173" />
  </g>
  <g
     inkscape:groupmode="layer"
     id="layer4"
     inkscape:label="Points"
     sodipodi:insensitive="true">
    <path
       sodipodi:type="arc"
       style="fill:#f7a0a0;fill-opacity:1;stroke:#000000;stroke-width:2.20000005;stroke-miterlimit:4;stroke-dasharray:none;stroke-opacity:1;display:inline"
       id="path4301"
       sodipodi:cx="395.71429"
       sodipodi:cy="346.64789"
       sodipodi:rx="91.428574"
       sodipodi:ry="91.428574"
       d="M 487.14287 346.64789 A 91.428574 91.428574 0 1 1  304.28572,346.64789 A 91.428574 91.428574 0 1 1  487.14287 346.64789 z"
       transform="translate(-22.799677,1.4285714)" />
    <text
       xml:space="preserve"
       style="font-size:144px;font-style:normal;font-variant:normal;font-weight:normal;font-stretch:normal;text-align:start;line-height:108.00000429%;writing-mode:lr-tb;text-anchor:start;fill:#000000;fill-opacity:1;stroke:none;stroke-width:1px;stroke-linecap:butt;stroke-linejoin:miter;stroke-opacity:1;font-family:Narkisim"
       x="344"
       y="385.21933"
       id="text4343"
       sodipodi:linespacing="108%"><tspan
         sodipodi:role="line"
         id="tspan4345"
         x="344"
         y="385.21933">8</tspan></text>
  </g>
  <g
     inkscape:groupmode="layer"
     id="layer5"
     inkscape:label="Words"
     sodipodi:insensitive="true"
     style="display:inline">
    <text
       xml:space="preserve"
       style="font-size:100px;font-style:normal;font-variant:normal;font-weight:normal;font-stretch:normal;text-align:start;line-height:108.00000429%;writing-mode:lr-tb;text-anchor:start;fill:#000000;fill-opacity:1;stroke:none;stroke-width:1px;stroke-linecap:butt;stroke-linejoin:miter;stroke-opacity:1;font-family:Narkisim"
       x="289.71429"
       y="219.50504"
       id="text4348"
       sodipodi:linespacing="108%"><tspan
         sodipodi:role="line"
         id="tspan4350"
         x="289.71429"
         y="219.50504">Cho</tspan></text>
    <text
       xml:space="preserve"
       style="font-size:56px;font-style:normal;font-variant:normal;font-weight:normal;font-stretch:normal;text-align:start;line-height:108.00000429%;writing-mode:lr-tb;text-anchor:start;fill:#000000;fill-opacity:1;stroke:none;stroke-width:1px;stroke-linecap:butt;stroke-linejoin:miter;stroke-opacity:1;font-family:Narkisim"
       x="138.28571"
       y="285.21933"
       id="text4352"
       sodipodi:linespacing="108%"><tspan
         sodipodi:role="line"
         id="tspan4354"
         x="138.28571"
         y="285.21933">Ka</tspan></text>
    <text
       xml:space="preserve"
       style="font-size:56px;font-style:normal;font-variant:normal;font-weight:normal;font-stretch:normal;text-align:start;line-height:108.00000429%;writing-mode:lr-tb;text-anchor:start;fill:#000000;fill-opacity:1;stroke:none;stroke-width:1px;stroke-linecap:butt;stroke-linejoin:miter;stroke-opacity:1;font-family:Narkisim"
       x="534.71594"
       y="285.21933"
       id="text4356"
       sodipodi:linespacing="108%"><tspan
         sodipodi:role="line"
         id="tspan4358"
         x="534.71594"
         y="285.21933">Ro</tspan></text>
    <text
       xml:space="preserve"
       style="font-size:56px;font-style:normal;font-variant:normal;font-weight:normal;font-stretch:normal;text-align:start;line-height:108.00000429%;writing-mode:lr-tb;text-anchor:start;fill:#000000;fill-opacity:1;stroke:none;stroke-width:1px;stroke-linecap:butt;stroke-linejoin:miter;stroke-opacity:1;font-family:Narkisim"
       x="224.14453"
       y="110.58652"
       id="text3156"
       sodipodi:linespacing="108%"><tspan
         sodipodi:role="line"
         id="tspan3158"
         x="224.14453"
         y="110.58652">Lunge Punch</tspan></text>
  </g>
</svg>
