<?xml version="1.0" encoding="UTF-8" standalone="no"?>
<!-- Created with Inkscape (http://www.inkscape.org/) -->
<svg
   xmlns:dc="http://purl.org/dc/elements/1.1/"
   xmlns:cc="http://web.resource.org/cc/"
   xmlns:rdf="http://www.w3.org/1999/02/22-rdf-syntax-ns#"
   xmlns:svg="http://www.w3.org/2000/svg"
   xmlns="http://www.w3.org/2000/svg"
   xmlns:xlink="http://www.w3.org/1999/xlink"
   xmlns:sodipodi="http://sodipodi.sourceforge.net/DTD/sodipodi-0.dtd"
   xmlns:inkscape="http://www.inkscape.org/namespaces/inkscape"
   width="744.09448"
   height="1052.3622"
   id="svg2"
   sodipodi:version="0.32"
   inkscape:version="0.45.1"
   sodipodi:docbase="C:\Users\ieb\Documents\Kung Food card game\Attack Cards"
   sodipodi:docname="NA -- Ridiculous Leaping Kick.svg"
   inkscape:output_extension="org.inkscape.output.svg.inkscape"
   version="1.0"
   inkscape:export-filename="C:\Users\ieb\Documents\Kung Food card game\Attack Cards\NA_LeapingKick.png"
   inkscape:export-xdpi="90"
   inkscape:export-ydpi="90">
  <defs
     id="defs4">
    <linearGradient
       inkscape:collect="always"
       id="linearGradient3164">
      <stop
         style="stop-color:#000000;stop-opacity:1;"
         offset="0"
         id="stop3166" />
      <stop
         style="stop-color:#000000;stop-opacity:0;"
         offset="1"
         id="stop3168" />
    </linearGradient>
    <linearGradient
       id="linearGradient4291">
      <stop
         style="stop-color:#e0b779;stop-opacity:1;"
         offset="0"
         id="stop4293" />
      <stop
         style="stop-color:#ffffff;stop-opacity:0;"
         offset="1"
         id="stop4295" />
    </linearGradient>
    <linearGradient
       inkscape:collect="always"
       xlink:href="#linearGradient4291"
       id="linearGradient4297"
       x1="360"
       y1="996.64789"
       x2="362.85715"
       y2="26.647896"
       gradientUnits="userSpaceOnUse" />
    <linearGradient
       inkscape:collect="always"
       xlink:href="#linearGradient3164"
       id="linearGradient3170"
       x1="-611.21912"
       y1="272.37756"
       x2="-631.638"
       y2="426.64792"
       gradientUnits="userSpaceOnUse"
       gradientTransform="matrix(1.0115039,0,0,1.0115039,926.40934,541.42842)" />
  </defs>
  <sodipodi:namedview
     id="base"
     pagecolor="#ffffff"
     bordercolor="#666666"
     borderopacity="1.0"
     gridtolerance="10000"
     guidetolerance="10"
     objecttolerance="10"
     inkscape:pageopacity="0.0"
     inkscape:pageshadow="2"
     inkscape:zoom="0.7"
     inkscape:cx="532.00193"
     inkscape:cy="585.09043"
     inkscape:document-units="px"
     inkscape:current-layer="layer5"
     inkscape:window-width="1280"
     inkscape:window-height="974"
     inkscape:window-x="-8"
     inkscape:window-y="-8" />
  <metadata
     id="metadata7">
    <rdf:RDF>
      <cc:Work
         rdf:about="">
        <dc:format>image/svg+xml</dc:format>
        <dc:type
           rdf:resource="http://purl.org/dc/dcmitype/StillImage" />
      </cc:Work>
    </rdf:RDF>
  </metadata>
  <g
     inkscape:label="Background"
     inkscape:groupmode="layer"
     id="layer1"
     style="display:inline"
     sodipodi:insensitive="true">
    <path
       style="fill:url(#linearGradient4297);fill-opacity:1;stroke:#000000;stroke-width:2.20000005;stroke-miterlimit:4;stroke-opacity:1"
       d="M 718.57143,519.50505 C 717.14286,1019.7908 716.54694,1020.1437 372.85714,1019.5051 C 27.734779,1018.8611 26.502386,1019.7897 27.14284,519.50505 C 27.785131,19.217709 27.737135,19.505048 372.85714,19.505048 C 719.40572,19.505048 720,22.076479 718.57143,519.50505 z "
       id="path3319"
       sodipodi:nodetypes="csssc" />
    <rect
       style="fill:#ffffff;fill-opacity:1;stroke:#000000;stroke-width:2.20000005;stroke-miterlimit:4;stroke-dasharray:none;stroke-opacity:1"
       id="rect4299"
       width="607.14288"
       height="558.57141"
       x="69.343178"
       y="318.07648" />
  </g>
  <g
     inkscape:groupmode="layer"
     id="layer2"
     inkscape:label="Res and Opp"
     style="display:inline"
     sodipodi:insensitive="true">
    <g
       id="g4320"
       transform="translate(0.5535566,0)">
      <text
         sodipodi:linespacing="108%"
         id="text4304"
         y="913.79071"
         x="111.42857"
         style="font-size:32px;font-style:normal;font-variant:normal;font-weight:normal;font-stretch:normal;text-align:start;line-height:108.00000429%;writing-mode:lr-tb;text-anchor:start;fill:#000000;fill-opacity:1;stroke:none;stroke-width:1px;stroke-linecap:butt;stroke-linejoin:miter;stroke-opacity:1;font-family:Narkisim"
         xml:space="preserve"><tspan
           y="913.79071"
           x="111.42857"
           id="tspan4306"
           sodipodi:role="line">Resolve</tspan></text>
      <text
         sodipodi:linespacing="108%"
         id="text4308"
         y="912.65009"
         x="475.24667"
         style="font-size:32px;font-style:normal;font-variant:normal;font-weight:normal;font-stretch:normal;text-align:start;line-height:108.00000429%;writing-mode:lr-tb;text-anchor:start;fill:#000000;fill-opacity:1;stroke:none;stroke-width:1px;stroke-linecap:butt;stroke-linejoin:miter;stroke-opacity:1;font-family:Narkisim"
         xml:space="preserve"><tspan
           y="912.65009"
           x="475.24667"
           id="tspan4310"
           sodipodi:role="line">Opportunity</tspan></text>
    </g>
    <text
       xml:space="preserve"
       style="font-size:56px;font-style:normal;font-variant:normal;font-weight:normal;font-stretch:normal;text-align:start;line-height:108.00000429%;writing-mode:lr-tb;text-anchor:start;fill:#000000;fill-opacity:1;stroke:none;stroke-width:1px;stroke-linecap:butt;stroke-linejoin:miter;stroke-opacity:1;font-family:Narkisim"
       x="134.57141"
       y="964.81335"
       id="text4316"
       sodipodi:linespacing="108%"><tspan
         sodipodi:role="line"
         id="tspan4318"
         x="134.57141"
         y="964.81335">-1</tspan></text>
    <text
       xml:space="preserve"
       style="font-size:56px;font-style:normal;font-variant:normal;font-weight:normal;font-stretch:normal;text-align:start;line-height:108.00000429%;writing-mode:lr-tb;text-anchor:start;fill:#000000;fill-opacity:1;stroke:none;stroke-width:1px;stroke-linecap:butt;stroke-linejoin:miter;stroke-opacity:1;font-family:Narkisim"
       x="519.75641"
       y="964.81335"
       id="text4326"
       sodipodi:linespacing="108%"><tspan
         sodipodi:role="line"
         id="tspan4328"
         x="519.75641"
         y="964.81335">+3</tspan></text>
    <g
       sodipodi:insensitive="true"
       inkscape:label="outline"
       id="g2280"
       transform="translate(6.30767,81.9075)" />
  </g>
  <g
     inkscape:groupmode="layer"
     id="layer3"
     inkscape:label="Art"
     style="display:inline"
     sodipodi:insensitive="true">
    <g
       inkscape:label="outline"
       id="g2274"
       transform="matrix(1.3061578,0,0,1.3061578,-64.852863,15.640603)">
      <g
         style="fill:#000000"
         id="g10069">
        <path
           sodipodi:type="arc"
           style="fill:#000000;fill-opacity:1;stroke:none;stroke-width:2.20000005;stroke-miterlimit:4;stroke-dasharray:none;stroke-opacity:1"
           id="path2272"
           sodipodi:cx="234.86047"
           sodipodi:cy="676.58545"
           sodipodi:rx="46.972092"
           sodipodi:ry="9.0913725"
           d="M 281.83257 676.58545 A 46.972092 9.0913725 0 1 1  187.88838,676.58545 A 46.972092 9.0913725 0 1 1  281.83257 676.58545 z"
           transform="translate(-13.131983,-41.416254)" />
        <path
           style="fill:#000000;fill-opacity:1;stroke:none;stroke-width:2.20000005;stroke-miterlimit:4;stroke-dasharray:none;stroke-opacity:1"
           d="M 415.1875,622.03125 C 401.15697,622.03125 388.69283,624.06366 380.75,627.1875 C 339.6336,627.78737 308.09375,631.11924 308.09375,635.15625 C 308.09375,639.19326 339.6336,642.55637 380.75,643.15625 C 388.69283,646.28009 401.15698,648.31252 415.1875,648.3125 C 432.37321,648.3125 447.20801,645.28764 454.25,640.90625 C 470.01981,639.44076 479.81251,637.40524 479.8125,635.15625 C 479.8125,632.90726 470.01981,630.90299 454.25,629.4375 C 447.20801,625.05611 432.37322,622.03123 415.1875,622.03125 z "
           id="path2274" />
        <path
           style="fill:#000000;fill-rule:evenodd;stroke:none;stroke-width:1px;stroke-linecap:butt;stroke-linejoin:miter;stroke-opacity:1"
           d="M 235.65625,348 C 235.34479,348.07481 235.12691,348.47648 235,349.125 C 233.61048,348.82882 231.92098,348.51103 230.3125,348.28125 C 226.77697,347.77617 223.74922,350.79726 220.71875,352.3125 C 217.68829,353.82773 203.03474,359.40197 196.46875,362.9375 C 189.90276,366.47303 180.81679,374.53712 177.28125,377.0625 C 173.74572,379.58788 158.09375,408.90624 158.09375,408.90625 C 158.07007,408.91809 158.06969,408.94078 158.09375,408.96875 C 158.06306,408.96486 157.59375,408.90625 157.59375,408.90625 C 157.59375,408.90624 153.55314,427.58439 157.59375,431.625 C 161.63436,435.66561 215.65197,462.44417 219.1875,468 C 222.72305,473.55585 222.22033,476.07424 228.28125,481.125 C 234.34216,486.17577 259.09375,499.81837 259.09375,502.34375 C 259.09375,504.86914 262.125,519.5 262.125,519.5 L 269.21875,519 L 272.25,521.53125 C 272.25,521.53123 312.65545,513.45781 309.625,511.4375 C 306.59454,509.41721 301.53125,509.90625 301.53125,509.90625 C 301.53126,509.90624 302.53554,503.33867 299,503.84375 C 295.46446,504.34881 278.81678,500.32186 275.28125,496.28125 C 271.74571,492.24063 248.5,460.90625 248.5,460.90625 C 248.5,460.90624 245.97382,452.82773 245.46875,451.3125 C 244.96367,449.79728 209.59216,417.98905 203.53125,415.96875 C 206.41896,407.30563 236.06018,386.49477 238.875,384.53125 L 241.4375,389.1875 L 248.5,389.1875 L 246.96875,385.65625 L 252.53125,388.6875 C 252.53124,388.6875 251.51681,384.13515 256.0625,383.125 C 260.60819,382.11486 266.1875,380.625 266.1875,380.625 L 266.125,379.53125 C 277.79553,379.86141 289.36559,380.06137 291.9375,379.59375 C 297.49334,378.58359 308.60041,375.05742 314.15625,375.5625 C 319.71209,376.06758 325.78125,379.10898 325.78125,377.59375 L 328.8125,372.53125 L 334.875,372.53125 L 331.84375,363.9375 L 322.75,362.4375 L 316.1875,369 C 316.18749,369 287.38515,362.42148 286.375,360.90625 C 285.88165,360.16623 275.37953,358.8198 264.125,356.875 C 263.3449,354.81314 261.43398,351.78055 256.59375,350.8125 C 252.72978,350.0397 250.18348,351.65156 247.875,353.53125 C 242.55882,352.13641 238.36098,350.53741 236.875,348.78125 C 236.35414,348.16569 235.96334,347.92624 235.65625,348 z "
           id="path2278" />
        <g
           style="fill:#000000"
           id="g10062">
          <path
             id="path6166"
             d="M 271.73103,434.14882 C 271.73103,434.14882 275.77165,403.33917 280.82241,403.84425 C 285.87317,404.34932 285.36809,416.47115 285.36809,416.47115 C 285.36809,416.47115 289.91378,421.01684 294.45947,422.53207 C 299.00515,424.0473 318.19805,416.97623 327.7945,417.48131 C 337.39095,417.98638 343.45187,421.01684 347.99755,421.01684 C 352.54324,421.01684 366.1803,415.96608 381.83766,413.4407 C 397.49503,410.91532 441.43666,412.93562 441.43666,412.93562 L 420.72854,436.16913 C 420.72854,436.16913 388.90873,435.66405 382.84781,436.16913 C 376.7869,436.67421 352.03816,431.62344 345.97725,432.12852 C 339.91633,432.6336 329.30973,435.66405 323.75389,435.66405 C 318.19805,435.66405 303.04576,431.11837 296.47977,431.62344 C 289.91378,432.12852 286.88332,436.16913 286.88332,436.16913 L 271.73103,434.14882 z "
             style="fill:#000000;fill-rule:evenodd;stroke:none;stroke-width:1px;stroke-linecap:butt;stroke-linejoin:miter;stroke-opacity:1" />
          <path
             sodipodi:nodetypes="ccssssscssc"
             id="path7137"
             d="M 415.67777,448.29096 L 419.71838,463.94832 C 419.71838,463.94832 426.78945,463.94832 428.30468,461.42294 C 429.81991,458.89756 433.35544,454.35188 437.90113,453.8468 C 442.44682,453.34172 470.73109,452.83665 477.29708,450.81634 C 483.86307,448.79604 498.51028,440.20974 498.51028,437.68436 C 498.51028,435.15898 496.08771,422.73084 492.95444,421.01684 C 480.42339,414.16195 457.31053,415.60512 457.31053,415.60512 C 457.31053,415.60512 440.93159,448.29096 435.88082,448.29096 C 430.83006,448.29096 424.26407,445.76558 421.73869,446.27066 C 419.21331,446.77573 415.1727,448.29096 415.67777,448.29096 z "
             style="fill:#000000;fill-rule:evenodd;stroke:none;stroke-width:1px;stroke-linecap:butt;stroke-linejoin:miter;stroke-opacity:1" />
          <path
             id="path8108"
             d="M 417.193,434.6539 L 442.95189,446.27066 L 460.12448,423.03715 C 460.12448,423.03715 457.09403,364.95338 456.08387,358.38738 C 455.07372,351.82139 453.55849,344.75032 450.52804,343.2351 C 447.49758,341.71987 435.37575,343.2351 433.86052,345.2554 C 432.34529,347.27571 422.24376,350.30616 419.21331,349.29601 C 416.18285,348.28586 396.48487,368.99399 396.48487,368.99399 C 396.48487,368.99399 391.43411,370.50921 390.42396,374.04475 C 389.41381,377.58028 381.33259,399.29856 380.32243,401.82394 C 379.31228,404.34932 368.2006,425.05745 366.1803,427.07776 C 364.15999,429.09806 360.11938,441.21989 360.11938,441.21989 L 356.58385,452.83665 C 356.58385,452.83665 354.05847,458.39249 356.07877,460.41279 C 358.09908,462.4331 363.65492,464.4534 363.65492,464.4534 L 365.17015,455.8671 C 365.17015,455.8671 363.65492,444.25035 365.17015,441.72497 C 366.68537,439.19959 378.8072,426.57268 381.33259,424.0473 C 383.85797,421.52192 388.40365,407.88486 391.43411,405.35948 C 394.46457,402.8341 405.07117,394.2478 405.07117,394.2478 L 411.13209,399.80364 C 411.13209,399.80364 403.05087,408.89501 403.55594,412.93562 C 404.06102,416.97623 417.193,435.15898 417.193,434.6539 z "
             style="fill:#000000;fill-rule:evenodd;stroke:none;stroke-width:1px;stroke-linecap:butt;stroke-linejoin:miter;stroke-opacity:1" />
          <path
             id="path9079"
             d="M 396.48487,366.97368 L 396.48487,366.97368 z "
             style="fill:#000000;fill-rule:evenodd;stroke:#000000;stroke-width:1px;stroke-linecap:butt;stroke-linejoin:miter;stroke-opacity:1" />
          <path
             id="path9081"
             d="M 393.95949,363.94322 L 387.89858,362.93307 C 387.89858,362.93307 390.92904,358.89246 387.3935,357.37723 C 383.85797,355.862 379.81736,346.26555 379.81736,346.26555 C 379.81736,346.26555 380.32243,329.59804 396.98995,331.11326 C 413.65747,332.62849 417.69808,353.8417 417.69808,353.8417 L 399.01026,371.51937 L 393.95949,363.94322 z "
             style="fill:#000000;fill-rule:evenodd;stroke:none;stroke-width:1px;stroke-linecap:butt;stroke-linejoin:miter;stroke-opacity:1" />
        </g>
      </g>
    </g>
    <text
       xml:space="preserve"
       style="font-size:32px;font-style:normal;font-variant:normal;font-weight:normal;font-stretch:normal;text-align:start;line-height:108.00000429%;writing-mode:lr-tb;text-anchor:start;fill:#000000;fill-opacity:1;stroke:none;stroke-width:1px;stroke-linecap:butt;stroke-linejoin:miter;stroke-opacity:1;font-family:Narkisim"
       x="104.78181"
       y="752.28406"
       id="text2288"
       sodipodi:linespacing="108%"><tspan
         sodipodi:role="line"
         id="tspan2290"
         x="104.78181"
         y="752.28406">Only Possible in the movies</tspan></text>
    <text
       xml:space="preserve"
       style="font-size:32px;font-style:normal;font-variant:normal;font-weight:normal;font-stretch:normal;text-align:start;line-height:108.00000429%;writing-mode:lr-tb;text-anchor:start;fill:#000000;fill-opacity:1;stroke:none;stroke-width:1px;stroke-linecap:butt;stroke-linejoin:miter;stroke-opacity:1;display:inline;font-family:Narkisim"
       x="430.29691"
       y="795.42914"
       id="text2305"
       sodipodi:linespacing="108%"><tspan
         sodipodi:role="line"
         id="tspan2307"
         x="430.29691"
         y="795.42914">...and card games</tspan></text>
  </g>
  <g
     inkscape:groupmode="layer"
     id="layer4"
     inkscape:label="Points"
     sodipodi:insensitive="true">
    <path
       sodipodi:type="arc"
       style="fill:#f7a0a0;fill-opacity:1;stroke:#000000;stroke-width:2.20000005;stroke-miterlimit:4;stroke-dasharray:none;stroke-opacity:1;display:inline"
       id="path4301"
       sodipodi:cx="395.71429"
       sodipodi:cy="346.64789"
       sodipodi:rx="91.428574"
       sodipodi:ry="91.428574"
       d="M 487.14287 346.64789 A 91.428574 91.428574 0 1 1  304.28572,346.64789 A 91.428574 91.428574 0 1 1  487.14287 346.64789 z"
       transform="translate(-22.799677,1.4285714)" />
    <text
       xml:space="preserve"
       style="font-size:144px;font-style:normal;font-variant:normal;font-weight:normal;font-stretch:normal;text-align:start;line-height:108.00000429%;writing-mode:lr-tb;text-anchor:start;fill:#000000;fill-opacity:1;stroke:none;stroke-width:1px;stroke-linecap:butt;stroke-linejoin:miter;stroke-opacity:1;font-family:Narkisim"
       x="310"
       y="385.21933"
       id="text4343"
       sodipodi:linespacing="108%"><tspan
         sodipodi:role="line"
         id="tspan4345"
         x="310"
         y="385.21933">10</tspan></text>
  </g>
  <g
     inkscape:groupmode="layer"
     id="layer5"
     inkscape:label="Words"
     style="display:inline"
     sodipodi:insensitive="true">
    <text
       xml:space="preserve"
       style="font-size:100px;font-style:normal;font-variant:normal;font-weight:normal;font-stretch:normal;text-align:start;line-height:108.00000429%;writing-mode:lr-tb;text-anchor:start;fill:#000000;fill-opacity:1;stroke:none;stroke-width:1px;stroke-linecap:butt;stroke-linejoin:miter;stroke-opacity:1;font-family:Narkisim"
       x="313.71429"
       y="219.50504"
       id="text4348"
       sodipodi:linespacing="108%"><tspan
         sodipodi:role="line"
         id="tspan4350"
         x="313.71429"
         y="219.50504">Na</tspan></text>
    <text
       xml:space="preserve"
       style="font-size:56px;font-style:normal;font-variant:normal;font-weight:normal;font-stretch:normal;text-align:start;line-height:108.00000429%;writing-mode:lr-tb;text-anchor:start;fill:#000000;fill-opacity:1;stroke:none;stroke-width:1px;stroke-linecap:butt;stroke-linejoin:miter;stroke-opacity:1;font-family:Narkisim"
       x="138.28571"
       y="285.21933"
       id="text4352"
       sodipodi:linespacing="108%"><tspan
         sodipodi:role="line"
         id="tspan4354"
         x="138.28571"
         y="285.21933">Ka</tspan></text>
    <text
       xml:space="preserve"
       style="font-size:56px;font-style:normal;font-variant:normal;font-weight:normal;font-stretch:normal;text-align:start;line-height:108.00000429%;writing-mode:lr-tb;text-anchor:start;fill:#000000;fill-opacity:1;stroke:none;stroke-width:1px;stroke-linecap:butt;stroke-linejoin:miter;stroke-opacity:1;font-family:Narkisim"
       x="524.71594"
       y="285.21933"
       id="text4356"
       sodipodi:linespacing="108%"><tspan
         sodipodi:role="line"
         id="tspan4358"
         x="524.71594"
         y="285.21933">Cho</tspan></text>
    <text
       xml:space="preserve"
       style="font-size:56px;font-style:normal;font-variant:normal;font-weight:normal;font-stretch:normal;text-align:start;line-height:108.00000429%;writing-mode:lr-tb;text-anchor:start;fill:#000000;fill-opacity:1;stroke:none;stroke-width:1px;stroke-linecap:butt;stroke-linejoin:miter;stroke-opacity:1;font-family:Narkisim"
       x="116.14453"
       y="110.58652"
       id="text3156"
       sodipodi:linespacing="108%"><tspan
         sodipodi:role="line"
         id="tspan3158"
         x="116.14453"
         y="110.58652">Ridiculous Leaping Kick</tspan></text>
  </g>
</svg>
