<?xml version="1.0" encoding="UTF-8" standalone="no"?>
<!-- Created with Inkscape (http://www.inkscape.org/) -->
<svg
   xmlns:dc="http://purl.org/dc/elements/1.1/"
   xmlns:cc="http://web.resource.org/cc/"
   xmlns:rdf="http://www.w3.org/1999/02/22-rdf-syntax-ns#"
   xmlns:svg="http://www.w3.org/2000/svg"
   xmlns="http://www.w3.org/2000/svg"
   xmlns:xlink="http://www.w3.org/1999/xlink"
   xmlns:sodipodi="http://sodipodi.sourceforge.net/DTD/sodipodi-0.dtd"
   xmlns:inkscape="http://www.inkscape.org/namespaces/inkscape"
   width="744.09448819"
   height="1052.3622047"
   id="svg2"
   sodipodi:version="0.32"
   inkscape:version="0.45.1"
   sodipodi:docbase="C:\Users\ieb\Documents\Kung Food card game\Start Cards"
   sodipodi:docname="Kyaa~ 9.svg"
   inkscape:output_extension="org.inkscape.output.svg.inkscape">
  <defs
     id="defs4">
    <linearGradient
       id="linearGradient3276">
      <stop
         id="stop3278"
         offset="0"
         style="stop-color:#fde7c3;stop-opacity:1;" />
      <stop
         id="stop3280"
         offset="1"
         style="stop-color:#ff872f;stop-opacity:1;" />
    </linearGradient>
    <linearGradient
       id="linearGradient4291">
      <stop
         style="stop-color:#e0b779;stop-opacity:1;"
         offset="0"
         id="stop4293" />
      <stop
         style="stop-color:#ffffff;stop-opacity:0;"
         offset="1"
         id="stop4295" />
    </linearGradient>
    <linearGradient
       inkscape:collect="always"
       xlink:href="#linearGradient4291"
       id="linearGradient4297"
       x1="360"
       y1="996.64789"
       x2="362.85715"
       y2="26.647896"
       gradientUnits="userSpaceOnUse" />
    <radialGradient
       inkscape:collect="always"
       xlink:href="#linearGradient3276"
       id="radialGradient3274"
       cx="372.85715"
       cy="597.36218"
       fx="372.85715"
       fy="597.36218"
       r="303.95715"
       gradientTransform="matrix(1,0,0,0.9224514,0,46.324582)"
       gradientUnits="userSpaceOnUse" />
  </defs>
  <sodipodi:namedview
     id="base"
     pagecolor="#ffffff"
     bordercolor="#666666"
     borderopacity="1.0"
     gridtolerance="10000"
     guidetolerance="10"
     objecttolerance="10"
     inkscape:pageopacity="0.0"
     inkscape:pageshadow="2"
     inkscape:zoom="0.49497475"
     inkscape:cx="438.35762"
     inkscape:cy="455.87131"
     inkscape:document-units="px"
     inkscape:current-layer="layer2"
     inkscape:window-width="1280"
     inkscape:window-height="974"
     inkscape:window-x="-8"
     inkscape:window-y="-8" />
  <metadata
     id="metadata7">
    <rdf:RDF>
      <cc:Work
         rdf:about="">
        <dc:format>image/svg+xml</dc:format>
        <dc:type
           rdf:resource="http://purl.org/dc/dcmitype/StillImage" />
      </cc:Work>
    </rdf:RDF>
  </metadata>
  <g
     inkscape:label="Background"
     inkscape:groupmode="layer"
     id="layer1"
     style="display:inline"
     sodipodi:insensitive="true">
    <path
       style="fill:url(#linearGradient4297);fill-opacity:1;stroke:#000000;stroke-width:2.20000005;stroke-miterlimit:4;stroke-opacity:1"
       d="M 718.57143,519.50505 C 717.14286,1019.7908 716.54694,1020.1437 372.85714,1019.5051 C 27.734779,1018.8611 26.502386,1019.7897 27.14284,519.50505 C 27.785131,19.217709 27.737135,19.505048 372.85714,19.505048 C 719.40572,19.505048 720,22.076479 718.57143,519.50505 z "
       id="path3319"
       sodipodi:nodetypes="csssc" />
    <rect
       style="fill:#ffffff;fill-opacity:1;stroke:#000000;stroke-width:2.20000005;stroke-miterlimit:4;stroke-dasharray:none;stroke-opacity:1"
       id="rect4299"
       width="607.14288"
       height="558.57141"
       x="69.343178"
       y="318.07648" />
  </g>
  <g
     inkscape:groupmode="layer"
     id="layer2"
     inkscape:label="Res and Opp"
     sodipodi:insensitive="true">
    <g
       id="g4320"
       transform="translate(0.5535566,0)">
      <text
         sodipodi:linespacing="108%"
         id="text4304"
         y="913.79071"
         x="111.42857"
         style="font-size:32px;font-style:normal;font-variant:normal;font-weight:normal;font-stretch:normal;text-align:start;line-height:108.00000429%;writing-mode:lr-tb;text-anchor:start;fill:#000000;fill-opacity:1;stroke:none;stroke-width:1px;stroke-linecap:butt;stroke-linejoin:miter;stroke-opacity:1;font-family:Narkisim"
         xml:space="preserve"><tspan
           y="913.79071"
           x="111.42857"
           id="tspan4306"
           sodipodi:role="line">Resolve</tspan></text>
      <text
         sodipodi:linespacing="108%"
         id="text4308"
         y="912.65009"
         x="475.24667"
         style="font-size:32px;font-style:normal;font-variant:normal;font-weight:normal;font-stretch:normal;text-align:start;line-height:108.00000429%;writing-mode:lr-tb;text-anchor:start;fill:#000000;fill-opacity:1;stroke:none;stroke-width:1px;stroke-linecap:butt;stroke-linejoin:miter;stroke-opacity:1;font-family:Narkisim"
         xml:space="preserve"><tspan
           y="912.65009"
           x="475.24667"
           id="tspan4310"
           sodipodi:role="line">Opportunity</tspan></text>
    </g>
    <text
       xml:space="preserve"
       style="font-size:56px;font-style:normal;font-variant:normal;font-weight:normal;font-stretch:normal;text-align:start;line-height:108.00000429%;writing-mode:lr-tb;text-anchor:start;fill:#000000;fill-opacity:1;stroke:none;stroke-width:1px;stroke-linecap:butt;stroke-linejoin:miter;stroke-opacity:1;font-family:Narkisim"
       x="132.57141"
       y="964.81335"
       id="text4316"
       sodipodi:linespacing="108%"><tspan
         sodipodi:role="line"
         id="tspan4318"
         x="132.57141"
         y="964.81335">-3</tspan></text>
    <text
       xml:space="preserve"
       style="font-size:56px;font-style:normal;font-variant:normal;font-weight:normal;font-stretch:normal;text-align:start;line-height:108.00000429%;writing-mode:lr-tb;text-anchor:start;fill:#000000;fill-opacity:1;stroke:none;stroke-width:1px;stroke-linecap:butt;stroke-linejoin:miter;stroke-opacity:1;font-family:Narkisim"
       x="526.61353"
       y="964.81335"
       id="text4326"
       sodipodi:linespacing="108%"><tspan
         sodipodi:role="line"
         id="tspan4328"
         x="526.61353"
         y="964.81335">+1</tspan></text>
  </g>
  <g
     inkscape:groupmode="layer"
     id="layer6"
     inkscape:label="Burst"
     sodipodi:insensitive="true">
    <rect
       style="fill:url(#radialGradient3274);fill-opacity:1;stroke:#000000;stroke-width:2.20000005;stroke-miterlimit:4;stroke-dasharray:none;stroke-opacity:1"
       id="rect2296"
       width="605.71429"
       height="558.57141"
       x="70"
       y="318.07648" />
    <path
       style="fill:#ffffff;fill-opacity:0.4771242;fill-rule:evenodd;stroke:none;stroke-width:1px;stroke-linecap:butt;stroke-linejoin:miter;stroke-opacity:1"
       d="M 357.29676,594.5214 L 222.85379,318.07647 L 159.1703,319.49414 L 340.31448,593.10372 L 71.428572,432.90743 L 71.428572,536.39708 L 336.06893,597.35673 L 72.843761,696.59338 L 72.843761,819.93034 L 343.14486,610.11572 L 231.34493,873.80167 L 330.40816,875.21933 L 354.46637,614.36873 L 518.6283,872.384 L 619.10673,872.384 L 350.22081,611.53339 L 672.88391,702.26404 L 672.88391,559.07974 L 355.88157,612.95105 L 675.71429,449.91943 L 674.2991,319.49414 L 613.44597,320.9118 L 375.69421,594.5214 L 442.2081,320.9118 L 377.1094,322.32947 L 357.29676,594.5214 z "
       id="path3282" />
  </g>
  <g
     inkscape:groupmode="layer"
     id="layer3"
     inkscape:label="Art"
     sodipodi:insensitive="true">
    <g
       style="display:inline"
       inkscape:label="outline"
       id="g2248"
       transform="translate(34.037683,137.54362)">
      <path
         id="path2342"
         d="M 324.72321,360.45982 C 324.36461,360.45947 324.01945,360.4734 323.66071,360.49107 C 320.79078,360.6324 317.94428,361.35155 315.25446,362.33482 C 309.35113,364.64585 302.99623,367.39529 299.25446,372.77232 C 295.1141,378.90403 292.24616,385.91659 290.62946,393.11607 C 291.04455,401.33035 292.63471,409.45659 294.47321,417.45982 C 295.64914,420.53619 295.64713,425.35207 299.31696,426.52232 C 302.2196,428.72546 304.37622,431.67948 306.34821,434.74107 C 303.00802,438.05146 295.66628,444.50238 286.12946,447.80357 C 272.99748,452.34926 260.3482,454.36604 260.34821,454.36607 C 260.34821,454.36607 260.37619,455.1932 260.37946,455.27232 C 258.63822,456.02941 254.43298,458.21858 246.72321,464.45982 C 236.11661,473.04612 239.16072,493.77231 239.16071,493.77232 C 239.16071,493.77232 233.09742,499.83133 230.06696,506.39732 C 227.0365,512.96331 230.55602,510.92507 228.53571,517.49107 C 226.5154,524.05706 224.50445,523.55356 224.50446,523.55357 C 224.46013,523.68656 224.44329,524.21158 224.44196,524.86607 L 224.00446,523.55357 C 224.00446,523.55357 209.84075,515.99963 201.25446,508.92857 C 192.66816,501.8575 183.59821,483.6786 183.59821,483.67857 L 183.53571,483.58482 C 183.40741,480.85086 182.92954,475.15125 181.06696,471.05357 C 178.54158,465.49774 174.50446,455.39732 174.50446,455.39732 L 169.44196,450.33482 C 169.44196,450.33483 164.41071,450.83561 164.41071,453.86607 C 164.41071,453.98886 164.42754,454.09648 164.44196,454.20982 C 163.72449,453.72179 162.86553,453.36607 161.87946,453.36607 C 158.34392,453.36607 151.76461,456.38287 150.75446,460.92857 C 150.22656,463.30412 152.32328,467.87575 154.44196,471.70982 C 147.03357,466.01339 136.80141,457.58722 134.59821,452.86607 C 131.06268,445.28993 131.06696,456.39732 131.06696,456.39732 C 131.06696,456.39733 134.76993,462.07711 139.97321,468.24107 C 138.29977,467.23706 136.65788,466.30481 135.09821,465.49107 C 131.29856,463.50866 129.05094,456.90319 127.53571,459.42857 C 126.40211,461.31791 129.78098,467.17063 134.09821,471.05357 L 133.09821,479.11607 L 140.16071,485.17857 L 154.25446,486.45982 C 158.08303,488.05355 166.9013,492.01194 171.97321,496.30357 C 178.53921,501.85941 200.25526,546.28834 203.28571,547.80357 C 206.31617,549.3188 218.44863,564.98599 224.00446,565.49107 C 229.24532,565.96751 235.20014,560.75731 235.87946,560.14732 C 236.12459,560.09869 236.37449,560.0257 236.62946,559.92857 C 245.54468,556.53229 260.03569,524.87359 264.47321,514.77232 C 266.61152,525.62596 277.03679,556.94704 276.53571,562.95982 C 276.03341,568.98746 277.02481,604.38251 277.03571,604.77232 C 275.10007,605.50181 271.90582,606.39732 267.94196,606.39732 C 261.37596,606.3973 235.10091,594.77232 225.50446,594.77232 C 215.90802,594.77231 196.22828,604.3786 195.72321,612.45982 C 195.21814,620.54102 196.71115,631.65985 210.34821,639.74107 C 223.98527,647.82229 240.67911,657.91334 251.28571,659.42857 C 252.69094,659.62932 256.0024,660.02932 260.41071,660.52232 C 252.41366,662.46049 234.7664,662.45979 231.06696,662.45982 C 227.02635,662.45982 214.4107,674.58479 214.41071,674.58482 C 214.41071,674.58482 221.47909,686.72078 224.00446,688.74107 C 226.52984,690.76138 252.78729,685.19378 258.84821,683.67857 C 264.90913,682.16334 266.93259,683.66255 270.97321,682.14732 C 275.01382,680.63209 326.0357,669.52232 326.03571,669.52232 C 326.03571,669.52232 330.59374,669.22747 337.09821,668.77232 C 357.95769,671.05007 374.93614,673.01221 377.03571,673.58482 C 382.59155,675.10007 397.2451,682.66842 401.28571,683.67857 C 405.32633,684.6887 422.50446,686.20982 422.50446,686.20982 C 422.50445,686.20985 435.62946,673.57895 435.62946,671.05357 C 435.62947,668.52821 428.56109,666.00122 426.03571,664.99107 C 423.51033,663.98094 416.43609,657.39732 413.91071,657.39732 C 412.36635,657.39732 406.68355,657.59432 401.75446,657.74107 C 413.18743,651.12642 430.56329,640.3173 435.12946,638.20982 C 441.69545,635.17936 443.71893,631.65588 447.25446,624.58482 C 450.79,617.51375 447.23258,607.39573 443.19196,601.33482 C 439.15135,595.2739 433.10171,593.77229 426.53571,593.77232 C 419.96971,593.77232 403.29507,599.31957 399.25446,600.83482 C 395.8986,602.09327 376.01213,602.29869 369.06696,602.33482 C 368.60547,596.65378 368.08298,585.05259 369.47321,568.02232 C 371.49351,543.27358 383.59822,515.49107 383.59821,515.49107 L 383.81696,512.92857 C 390.25592,524.75096 399.51888,546.67583 404.81696,553.86607 C 411.88802,563.46252 423.01111,569.51727 428.56696,570.02232 C 431.8304,570.319 433.30506,569.56585 434.00446,568.89732 C 434.01146,568.90489 434.09821,569.02232 434.09821,569.02232 C 434.09821,569.02232 434.26438,568.66306 434.31696,568.55357 C 434.53678,568.24391 434.59821,568.02232 434.59821,568.02232 C 434.59821,568.02232 434.59822,567.9912 434.59821,567.99107 C 435.68223,565.7964 438.80358,559.7857 441.69196,556.89732 C 445.22751,553.36179 450.78651,549.32308 453.81696,544.27232 C 456.84743,539.22155 477.54745,499.32895 482.59821,496.80357 C 482.91388,496.64573 483.11771,496.48323 483.25446,496.30357 C 484.88771,495.06047 492.17755,489.60885 496.22321,488.70982 C 500.7689,487.69968 509.37946,486.70982 509.37946,486.70982 L 508.94196,486.08482 C 511.48466,485.47868 513.9981,484.55993 515.41071,483.14732 C 518.94621,479.61181 521.98336,475.59497 520.97321,474.58482 C 519.96308,473.57469 515.94546,478.12194 509.37946,480.64732 C 508.37381,481.03411 507.44869,481.31632 506.56696,481.55357 C 515.33676,476.58246 525.77548,465.65454 524.50446,463.95982 C 522.98923,461.93952 518.45133,467.99694 514.41071,470.52232 C 513.50873,471.08606 512.02636,471.81457 510.34821,472.58482 C 513.92135,466.79221 519.79655,455.5128 518.97321,453.86607 C 517.96306,451.84576 512.38376,459.94031 508.84821,464.99107 C 507.10156,467.48628 503.25795,470.44962 499.81696,472.83482 L 499.25446,472.05357 L 499.25446,461.95982 L 498.37946,462.30357 C 496.1961,460.63519 485.952,452.92077 482.84821,453.30357 L 482.59821,452.36607 C 482.59824,452.36607 478.04587,456.39811 477.03571,459.42857 C 476.02553,462.45904 476.52985,469.51296 474.00446,473.55357 C 471.47911,477.59418 468.44196,478.62194 468.44196,481.14732 C 468.44195,482.51861 468.18294,485.30808 467.91071,487.77232 C 467.70099,488.09967 448.46738,518.0391 428.06696,528.83482 C 424.96699,525.88201 422.34294,518.1437 420.97321,514.49107 C 419.45798,510.45046 414.41498,502.85941 410.87946,497.30357 C 407.34393,491.74773 407.85757,481.65512 403.81696,471.55357 C 400.72597,463.82608 392.05125,460.51878 388.12946,459.39732 L 388.16071,458.92857 C 388.16071,458.92857 376.03175,454.38051 360.87946,449.83482 C 348.55747,446.13822 339.33601,437.86498 336.28571,434.86607 C 339.39482,430.22547 344.84681,427.87835 349.75446,425.58482 C 353.10426,419.58927 356.57421,413.39384 357.78571,406.55357 C 358.26403,397.84414 355.9065,389.15834 352.56696,381.17857 C 348.95701,372.15076 341.06747,365.39981 332.09821,361.99107 C 329.74449,360.92266 327.23341,360.46228 324.72321,360.45982 z M 166.41071,456.89732 C 166.60011,457.08672 166.6744,457.09447 166.66071,456.95982 C 168.02917,457.93578 169.67892,459.0457 170.47321,461.42857 C 171.2595,463.78743 170.94553,466.2928 170.47321,468.14732 L 169.94196,467.49107 L 161.87946,471.55357 C 158.9757,469.65749 157.36208,463.77929 157.81696,461.95982 C 158.32203,459.93951 166.41071,456.89729 166.41071,456.89732 z M 483.97321,458.95982 L 492.69196,464.45982 C 492.69195,464.45982 494.22242,474.5899 491.19196,474.08482 C 488.16152,473.57975 482.59821,471.05357 482.59821,471.05357 L 483.97321,458.95982 z M 138.94196,474.20982 C 140.64977,474.92824 143.23237,476.06361 146.12946,477.36607 L 138.62946,478.11607 L 138.94196,474.20982 z "
         style="fill:#000000;fill-opacity:1;fill-rule:evenodd;stroke:none;stroke-width:1px;stroke-linecap:butt;stroke-linejoin:miter;stroke-opacity:1" />
    </g>
  </g>
  <g
     inkscape:groupmode="layer"
     id="layer4"
     inkscape:label="Points"
     sodipodi:insensitive="true">
    <path
       sodipodi:type="arc"
       style="fill:#fffe88;fill-opacity:1;stroke:#000000;stroke-width:2.20000005;stroke-miterlimit:4;stroke-dasharray:none;stroke-opacity:1;display:inline"
       id="path4301"
       sodipodi:cx="395.71429"
       sodipodi:cy="346.64789"
       sodipodi:rx="91.428574"
       sodipodi:ry="91.428574"
       d="M 487.14287 346.64789 A 91.428574 91.428574 0 1 1  304.28572,346.64789 A 91.428574 91.428574 0 1 1  487.14287 346.64789 z"
       transform="translate(-22.799677,1.4285714)" />
    <text
       xml:space="preserve"
       style="font-size:144px;font-style:normal;font-variant:normal;font-weight:normal;font-stretch:normal;text-align:start;line-height:108.00000429%;writing-mode:lr-tb;text-anchor:start;fill:#000000;fill-opacity:1;stroke:none;stroke-width:1px;stroke-linecap:butt;stroke-linejoin:miter;stroke-opacity:1;font-family:Narkisim"
       x="343.42856"
       y="385.21933"
       id="text4343"
       sodipodi:linespacing="108%"><tspan
         sodipodi:role="line"
         id="tspan4345"
         x="343.42856"
         y="385.21933">9</tspan></text>
  </g>
  <g
     inkscape:groupmode="layer"
     id="layer5"
     inkscape:label="Words"
     sodipodi:insensitive="true">
    <text
       xml:space="preserve"
       style="font-size:144px;font-style:normal;font-variant:normal;font-weight:normal;font-stretch:normal;text-align:start;line-height:108.00000429%;writing-mode:lr-tb;text-anchor:start;fill:#000000;fill-opacity:1;stroke:none;stroke-width:1px;stroke-linecap:butt;stroke-linejoin:miter;stroke-opacity:1;font-family:Narkisim"
       x="207.14285"
       y="185.21931"
       id="text4348"
       sodipodi:linespacing="108%"><tspan
         sodipodi:role="line"
         id="tspan4350"
         x="207.14285"
         y="185.21931">Kyaa~</tspan></text>
  </g>
</svg>
